/* XPM */
static char *_1707038046[] = {
/* columns rows colors chars-per-pixel */
"42 42 196 2 ",
"   c #2E2D35",
".  c #312E34",
"X  c #343136",
"o  c #36333A",
"O  c #39363D",
"+  c #3C383E",
"@  c #413C3F",
"#  c #4D443A",
"$  c #5A4939",
"%  c #7E5C2E",
"&  c #6A483C",
"*  c #6C5338",
"=  c #725432",
"-  c #363641",
";  c #393741",
":  c #3D3A42",
">  c #3F3E49",
",  c #423D44",
"<  c #413F48",
"1  c #5F3147",
"2  c #454046",
"3  c #494346",
"4  c #45424A",
"5  c #4A454C",
"6  c #4E484E",
"7  c #514A4E",
"8  c #564B45",
"9  c #5E544B",
"0  c #464450",
"q  c #4B4751",
"w  c #4E4952",
"e  c #524D54",
"r  c #534F59",
"t  c #594F52",
"y  c #575056",
"u  c #595255",
"i  c #56515A",
"p  c #5B545B",
"a  c #664647",
"s  c #63534B",
"d  c #695645",
"f  c #7B5446",
"g  c #615553",
"h  c #62595E",
"j  c #655857",
"k  c #73634C",
"l  c #7A6A55",
"z  c #635B63",
"x  c #706964",
"c  c #AF021E",
"v  c #B6071B",
"b  c #B81C1D",
"n  c #BE321C",
"m  c #BC251E",
"M  c #9E012A",
"N  c #A1042B",
"B  c #A70425",
"V  c #A9152D",
"C  c #B61521",
"Z  c #B82525",
"A  c #D71605",
"S  c #C20210",
"D  c #C81510",
"F  c #CD0709",
"G  c #DC280A",
"H  c #C3241E",
"J  c #C3341C",
"K  c #E43805",
"L  c #E42C02",
"P  c #C73024",
"I  c #B76E1E",
"U  c #B9492F",
"Y  c #986627",
"T  c #966B37",
"R  c #DC401A",
"E  c #D45C16",
"W  c #EB4506",
"Q  c #F14100",
"!  c #F25806",
"~  c #E15913",
"^  c #DF650D",
"/  c #FE6604",
"(  c #FD6C00",
")  c #FA6A07",
"_  c #E97606",
"`  c #F77302",
"'  c #FC7301",
"]  c #FE7A08",
"[  c #EC611E",
"{  c #EB7C19",
"}  c #FF7612",
"|  c #F06511",
" . c #DE5528",
".. c #C34836",
"X. c #C55138",
"o. c #D45833",
"O. c #E35924",
"+. c #D6612C",
"@. c #D36D3E",
"#. c #E8762A",
"$. c #E56B2F",
"%. c #8C7549",
"&. c #947B49",
"*. c #897655",
"=. c #9C6C4B",
"-. c #C8801E",
";. c #E5830A",
":. c #E98C0E",
">. c #FA8601",
",. c #F98C00",
"<. c #F48B02",
"1. c #F79100",
"2. c #F89200",
"3. c #F99A0C",
"4. c #F89809",
"5. c #ED8E18",
"6. c #FC8A15",
"7. c #F99D11",
"8. c #F99B1A",
"9. c #E89818",
"0. c #FAA112",
"q. c #FBA71D",
"w. c #C38E39",
"e. c #D79F3D",
"r. c #D68F27",
"t. c #EF812E",
"y. c #F78A25",
"u. c #F49927",
"i. c #F68934",
"p. c #F89C34",
"a. c #FCA927",
"s. c #FCB12C",
"d. c #F2A330",
"f. c #FEA13C",
"g. c #F7AA31",
"h. c #FEB23C",
"j. c #FDBC3D",
"k. c #FDB833",
"l. c #FEC03F",
"z. c #9D814B",
"x. c #A1854B",
"c. c #A5884C",
"v. c #BE9A4B",
"b. c #B3934D",
"n. c #A78D59",
"m. c #B19255",
"M. c #B1945A",
"N. c #DD8643",
"B. c #E89B47",
"V. c #E89B48",
"C. c #CBA24E",
"Z. c #C7A14E",
"A. c #D3AA4F",
"S. c #D9AE4E",
"D. c #CCA754",
"F. c #D6AE51",
"G. c #FAA546",
"H. c #E6B84E",
"J. c #FFB543",
"K. c #F7B64A",
"L. c #FEA151",
"P. c #E7B951",
"I. c #F7BD52",
"U. c #EEB261",
"Y. c #FDC244",
"T. c #FEC64C",
"R. c #FFCA4F",
"E. c #FFCB51",
"W. c #FFCE5A",
"Q. c #F6C355",
"!. c #FFD05E",
"~. c #FFD053",
"^. c #FFCB65",
"/. c #FFD263",
"(. c #FED56A",
"). c #FFD96B",
"_. c #FFD272",
"`. c #FFDA75",
"'. c #FFD67E",
"]. c #FFDD7B",
"[. c #F7CE77",
"{. c #BBB18A",
"}. c #FFDF82",
"|. c #EAD58A",
" X c #FFE186",
".X c #FFE38B",
"XX c #FFE693",
"oX c #FFEA94",
"OX c #FFEA9D",
"+X c #FFEDA4",
"@X c #FFEFA9",
"#X c #FFF1AC",
"$X c #FFF3B3",
"%X c #FFF7BC",
"&X c #FFF8BE",
"*X c #FFF9C1",
/* pixels */
"4 2 4 < 4 6 4 5 5 2 5 4 > 2 2 > ; : O : 3 : + O X + O O + + + , + @ 4 : , < , < 3 , ",
"4 4 , , 5 6 5 4 : 2 6 2 6 q 4 : - : O 2 , , , o O @ + + + @ , , , , 3 , , 5 5 6 4 < ",
"6 5 2 2 q 4 : 2 2 5 5 5 6 w 4 2 + , 2 , < : : : + @ , + @ 3 3 5 7 4 4 : , , , , , 7 ",
"4 2 : 5 5 2 2 : : 2 4 4 4 4 4 4 2 3 5 : : + + 2 2 2 + : , , 3 7 6 4 , , 7 7 4 5 4 4 ",
"4 : : < : < : : o 2 2 4 6 4 5 2 4 6 5 %.%.%.&.k 6 2 , + + , , 6 5 4 5 t q 6 7 e 4 , ",
": : O + : : - O O 2 : 4 5 : 9 l C.A.S.E.R.R.E.P.S.A.A.Z.k # 3 5 6 4 q y e e e e 4 6 ",
": : : : + : : : : : 2 7 z.m.S.R.~.!./..X`.!.E.R.E.E.E.E.E.S.k 7 6 6 e 4 4 q r q q < ",
": : O + O O : + o + 9 v.E.R.(.}.#X$X$X&X%X.XW.R.E.R.E.E.E.E.P.*.u q 5 4 6 y r q < ; ",
": O o O X o + o o # A.R.E.R..X*X&X&X&X&X%X#X+X+XOX(.E.E.E.E.E.Q.*.q q 4 q r w 0 < : ",
"O o o o o o o o + z.Q.R.!..X@X&X&X&X&X&X&X*X%X*X*XOXE.E.E.E.R.R.F.k 5 5 q 6 4 > < , ",
": o o O o X X X d H.R.).@X&X&X%X&X&X&X&X&X&X&X&X&XOXE.E.E.E.E.E.E.P.u q 5 : - : : + ",
"X o X       X * H.E.].#X&X&X&X&X%X&X&X&X&X&X&X&X*XOXE.E.E.E.E.E.E.E.b.4 2 : : - : + ",
"+ O o . X . # v.R./.$X&X&X&X&X&X&X$X$X&X*X&X&X&X$X`.E.E.E.E.E.E.E.E.D.q 4 < , o O O ",
", + X   . . v.R.E.oX&X&X&X&X&X&X&X+X XOX%X%X%X&X$XW.E.E.R.E.E.E.E.E.D.w 5 , ; + + + ",
"+ o     . # S.R.].%X&X&X&X&X&X&X%X&X%XOXXX%X*X%X].E.R.R.E.Y.l.j.j.Y.D.4 q : 3 , + O ",
"+ X X O O z.T.T..X*X&X&X&X&X&X&X&X%X&X%X+X X.X%X).R.R.W.Y.0.2.2.,.3.C.5 e 4 4 < : O ",
"O + X O O x.R.!.OX&X&X&X&X&X&X&X&X&X&X%X*X$X`.`./.E.E.T.a.1.2.2.1.4.Z.q 5 5 4 < < , ",
", X O O X x.R.(.$X&X&X&X&X&X&X&X&X&X&X*X%X+X/.E.E.E.Y.q.2.1.2.2.1.:.l q 4 q 2 4 4 4 ",
": + + O @ x.R.R..X&X&X&X&X&X&X&X&X*X$X*X%X(.R.E.E.j.7.1.1.2.2.2.1.:.u q q 4 5 2 2 4 ",
", + + + + x.R.T..X*X%X&X&X&X&X&X&X%X]..X`.E.E.E.k.4.,.1.2.2.2.2.1.:.j q r 5 5 5 5 4 ",
"O + : + O c.R.R.].%X&X&X&X&X&X&X&X%X#XXXW.R.T.a.2.2.2.2.2.2.2.1.,.T w 0 5 < 5 < 4 < ",
": : + : : k H.W.!.].#X$X%X&X&X&X%X*X*X*X+X XE.6.' ,.2.2.2.2.1.3.w.g r q 5 , 5 5 < ; ",
": + , 3 5 3 x.(.$X#X.X.X#X*X&X%X%X%X%XoXoX).~.T.} ( >.,.2.2.>.s.n.i e w q < < < : 2 ",
"2 2 3 7 6 6 p Q. X#X&X&X*X$X+X].).).U.V.B.B.V.K.h./ ( >.2.' p.W.n.w w w q < 7 < < + ",
": : 2 5 6 e 7 =.N.I.[.].].`.I.@.X.X.V N N N B @.T./ / ' 6.p.j.e.l r w w 0 < < < , , ",
"2 2 2 2 6 5 5 1 N V P G.R.R.@.M M N N N N c S $.T./ } J.T.E.w.j r r 0 < < > , ; + ; ",
"< : 2 5 e q 5 a Z D A #.E.E.K...v B B v S A W y.E.J.'.).T.p.f e w 0 < < < < < , , , ",
"+ 2 5 6 e q q *.K.G.p.J.I.K.Q.T.O.F L W W | G.^./.OXOXQ.[ ! & < < < < , ; ; , < 5 , ",
"2 5 5 7 5 q q x {.|.`.R...V ..u.7.i.L._._.'..X.X#X*X].K.G E 8 , ; , ; ; + o @ 6 7 , ",
"3 5 t e 5 e e u r k r.7.Z B v _ 7.T.W.W.!.W.j.s..X@X].O.L | & : , , , ; o @ , 7 q < ",
"6 6 u p i e r r r r s -.^ W ! >.1.1.,.8.Y.T.k.<.+. . .G ) Y : : , ; , , + , , 5 6 q ",
"p i h i r e q u w r p m.0.,.,.0.3.a.j.Y.Y.0.E n c G W _ Y 3 : O , @ , , @ 6 5 t y e ",
"h h i r r w q r w i p M.Y.s.q.a.s.k.~.j.:.J B +.i./ _ % 4 , , 2 : , , , 7 7 y h u p ",
"z i i e r r q q 6 r h l C.a.u.u.u.5.u.{ b o.#.6.' ' Y > , : 4 , O , O , 4 e y e p h ",
"r i r q 4 w 4 4 e y p i s ^ m C H m b O.R y.] ` ` ;.= < : < < ; O + : 3 q 5 5 u h r ",
"e e 0 4 q q < 5 e e r w e f U t.p.p.{ j.8.<.I * * $ O : : O o o O O , , : : 5 i r q ",
"r 0 q 0 < > 4 5 5 5 q e w r d r.9.5.;.;._ Y + - - o O O o O O X . X , o + + 4 t r q ",
"i w 0 : - : 2 2 < 6 e e q r w 8 9 g 8 8 8 ; X . o o O + X O X . X X + @ : O , t w w ",
"w 4 - - : , , : 6 y i e q q q q 0 4 4 > : : . o O + , , + + X O + o @ , , , 5 6 4 0 ",
"0 > > 2 , < , + 7 q q q q q 5 < 2 w 4 : : O o O , 2 , @ , + O X O @ + , 3 , , , 4 5 ",
", , 5 < , < , , 6 < 6 q < < 4 7 6 < , , - , ; @ + o o + o + o . o X + @ < , 6 4 < < ",
"; , 5 6 7 6 7 < 5 4 < 6 < 5 7 6 < ; ; o ; , o @ o o + + o o + + @ @ , , 3 6 , , < , "
};
