/* XPM */
static char *pizza1706807299[] = {
/* columns rows colors chars-per-pixel */
"42 42 218 2 ",
"   c #3A272C",
".  c #2E2D35",
"X  c #312E34",
"o  c #392F35",
"O  c #333136",
"+  c #36333A",
"@  c #39363C",
"#  c #3C383E",
"$  c #581A19",
"%  c #660000",
"&  c #6A0300",
"*  c #721C09",
"=  c #72110E",
"-  c #77280A",
";  c #672319",
":  c #742615",
">  c #7D3613",
",  c #421E21",
"<  c #4A2427",
"1  c #5B2424",
"2  c #532B2F",
"3  c #5C2C2B",
"4  c #572626",
"5  c #4B2C31",
"6  c #432D33",
"7  c #552D32",
"8  c #592E31",
"9  c #42353C",
"0  c #4C343B",
"q  c #4B383F",
"w  c #463539",
"e  c #523136",
"r  c #5C3134",
"t  c #55353C",
"y  c #652D26",
"u  c #653129",
"i  c #6C3634",
"p  c #643230",
"a  c #743B38",
"s  c #753C21",
"d  c #7F4136",
"f  c #363640",
"g  c #393741",
"h  c #3D3A42",
"j  c #3F3E49",
"k  c #423E44",
"l  c #4B3D44",
"z  c #413F48",
"x  c #523D44",
"c  c #454046",
"v  c #494247",
"b  c #45424A",
"n  c #4A454C",
"m  c #4E484E",
"M  c #514A4E",
"N  c #53454B",
"B  c #464450",
"V  c #4B4751",
"C  c #4E4952",
"Z  c #534C54",
"A  c #534F59",
"S  c #594F52",
"D  c #56515A",
"F  c #5C545B",
"G  c #585156",
"H  c #62595E",
"J  c #60575B",
"K  c #635B63",
"L  c #9C0D0B",
"P  c #881D09",
"I  c #9C180D",
"U  c #A5080E",
"Y  c #AE0A10",
"T  c #A10D10",
"R  c #BA0C14",
"E  c #B31215",
"W  c #852D03",
"Q  c #8B2B05",
"!  c #9B2908",
"~  c #8D3201",
"^  c #833309",
"/  c #933C02",
"(  c #9A3D04",
")  c #943308",
"_  c #972814",
"`  c #953213",
"'  c #9E3917",
"]  c #9E3A17",
"[  c #862C17",
"{  c #A5270D",
"}  c #A13705",
"|  c #A13E19",
" . c #A22F12",
".. c #8D3329",
"X. c #BC302B",
"o. c #CE0D19",
"O. c #C60D15",
"+. c #D20E19",
"@. c #DA111A",
"#. c #E8131D",
"$. c #F1141F",
"%. c #DF1C29",
"&. c #EA1723",
"*. c #F21520",
"=. c #F31A26",
"-. c #CB3136",
";. c #EF212E",
":. c #EC2A35",
">. c #9A4601",
",. c #974201",
"<. c #864310",
"1. c #A44C02",
"2. c #A94E02",
"3. c #A94405",
"4. c #AB5401",
"5. c #AC5B02",
"6. c #B55904",
"7. c #A5421B",
"8. c #AD4B1E",
"9. c #A9461C",
"0. c #B25217",
"q. c #B56201",
"w. c #BC6C01",
"e. c #BA6804",
"r. c #BA6B09",
"t. c #87483B",
"y. c #9A5537",
"u. c #A84C28",
"i. c #B44C25",
"p. c #B45422",
"a. c #BA5A24",
"s. c #B24436",
"d. c #B57738",
"f. c #AD6025",
"g. c #F65F0F",
"h. c #F64D12",
"j. c #C37401",
"k. c #C67A01",
"l. c #CA7D01",
"z. c #C2720A",
"x. c #CA6A05",
"c. c #F8770C",
"v. c #C15F25",
"b. c #C26226",
"n. c #CB6C2A",
"m. c #D2732E",
"M. c #DA7D2F",
"N. c #DA7D32",
"B. c #D77A31",
"V. c #CE702C",
"C. c #8F4D42",
"Z. c #A55D49",
"A. c #9D6041",
"S. c #A66747",
"D. c #BD7356",
"F. c #B4684B",
"G. c #C74543",
"H. c #C87C58",
"J. c #65A834",
"K. c #A9B31D",
"L. c #88AE2A",
"P. c #90AF27",
"I. c #CD8201",
"U. c #D18501",
"Y. c #D48A00",
"T. c #DC9301",
"R. c #DB9503",
"E. c #DB9B11",
"W. c #E29B01",
"Q. c #FB9F06",
"!. c #D7BA0E",
"~. c #C8B713",
"^. c #E6A101",
"/. c #EAA500",
"(. c #EDAA01",
"). c #F1AE01",
"_. c #FDAA04",
"`. c #E9BB07",
"'. c #F5B301",
"]. c #FAB601",
"[. c #F4BD04",
"{. c #FDBD01",
"}. c #F0B10F",
"|. c #FDB314",
" X c #EBAF1E",
".X c #DD8132",
"XX c #DF8539",
"oX c #CF8236",
"OX c #E1873A",
"+X c #FFC100",
"@X c #FFC20A",
"#X c #FBC409",
"$X c #FEC313",
"%X c #FFC81C",
"&X c #FECA2B",
"*X c #FEC722",
"=X c #FAC737",
"-X c #FED13D",
";X c #BD8755",
":X c #BC824D",
">X c #CE835C",
",X c #DB8D58",
"<X c #CB9858",
"1X c #DE9059",
"2X c #DF8840",
"3X c #E28B44",
"4X c #E28E4B",
"5X c #E3914E",
"6X c #E18F53",
"7X c #E39353",
"8X c #E09259",
"9X c #DAAC5E",
"0X c #DDAD55",
"qX c #E6B859",
"wX c #E8BC60",
"eX c #FECF46",
"rX c #FED04A",
"tX c #F6CB54",
/* pixels */
"v c b k b m b n b b v b b b z z g h @ k v k # @ O # @ @ # @ # k k # v h k k k v z z ",
"v b k k n m b b h k v z n m B g g g @ k k k k + @ 9 @ @ # c k c h k v k k M v m v b ",
"m n b c n k 5 i t.t.C.d a i e 5 6 9 k k c h # # # k # # 9 c v v M v z h k v k z k m ",
"b b h b l y F.,X,X7X,X8X1X,X>XD.S.C.a 8 6 o h c v c # k k c v M C v z k M n v b b b ",
"c j h k < u.XX.XXX5X7X7X7X5X3X3X4X6X,X>XD.C.i r q c 9 # # c k n m v b Z C m Z C v z ",
"h h g @ $ p.M..XXX3X3X5X5X7X7X5XN.XX3X3X3X4X1XH.S.a 2 o # # c n b b Z S Z Z Z Z b v ",
"h h h h $ 9.b.n.n.n.n.n.m.B.B.N.N.OX7X8XXXM..XOX3X8X>XZ.i 5 v M m m Z b z Z Z C C j ",
"h @ @ f < ` a.p.a.a.a.a.a.a.a.v.b.n.m.N.XXN..X.XOXM.OX3X,XD.t.r N C C z m Z Z V j h ",
"h @ + + O $ [ ] 7.| 7.9.8.p.p.a.a.a.a.a.b.V.m..XM.M.M..X.XOX6XH.t.8 l B B A Z V z h ",
"@ @ + @ @ O   : f.5.4.1._ _ _ _ | 8.p.a.a.a.a.b.m.M..X.X.X.X.XOX4XH...0 m m z z k k ",
"h + + @ O O < :X X/.W.T. .&.#.+.O.Y I ` 7.8.a.a.a.v.n.B.M.OX.XM.M.OX4XZ.3 o f g h h ",
"O + O . .   a tX+X[.{.].} o.$.*.$.$.+.P 1.( ` 7.p.p.a.v.n.M..X.XN.n.8.i...$ @ # # h ",
"+ @ O O O , ;X=X{.P.L.#XT.I R o.o.O.L e.W.Y.w.2.) | p.p.a.v.m.M.p.| v.m.n.u.1 + @ # ",
"k h O . X y tX@X+X`.~.`.+XR.4.( ! 3.j.'.+X]./.T.l.4.) | p.a.a.a.` m.M..X.XM...  # # ",
"# + . .   y.eX+X$X*X*X$X+X+X'././.(.{.{._.(.'.{.).T.l.4.Q 7.a.7.' n.m.m.n.b._ 6 h @ ",
"# + O @ < <X%X+X=XrXrXrX&X{.+X+X+X+X{.r.i.s.i.r.).].T.T.k.3.` 8.9.a.a.a.a.8.: 9 h + ",
"# # O @ y wX@X{.@X@X$X-X&X+X{.!.K.#Xk.E =.=.;.-.2.].'.]./.Y.4.` 7.p.p.p.7.: 0 k k k ",
"h O @ o t.tX{./.T.).{.@X$X+X[.L.K.#Xw.O.*.*.*.&.{ /.+X{.+X'.T.5.) Q P : 4 l b z v b ",
"c # #   S.-XT.2.5.4.'.{.&X*X+X#X+X+X/.! R +.+.Y 3.{.{.+X+X{.l.>.,.: 8 z V b n v v v ",
"k @ # < ;X&XW.(.+Xw./.{.$X{.].Y.I.).{.R.4.} } 4.W.{.'.W.(.{.6.* p Z A C Z b b V b z ",
"@ # h < <X*X+X].{.(.{.+X+X+Xk.e.e.5.{.{./.^.W./.]./.4.~ / T.k.1 A A V b b b b b n z ",
"h h # 4 9X|.Q.Q.+X'.j.e.I.(.W.{.].w.].{.+X+X).U.k.w.Q ( * 5.^.- n D A n b b b b z g ",
"h @ k 3 9X|.g.c.{.k.% % & / ].{.+X'.{.+X+X].k.~ / ~ - y e 5.].4.e D A C b j b b h z ",
"c c c u 9X@X+X{.{.T.= L U 2.]._.].+X+X+X#X'.1./ 5.- 8 S t w.).j.; C C C V b b c k h ",
"h h l 3 <XE.Y.W.].{.I.6.x.).{.g.h._.#XL.!.].5.- - e Z Z 0 >.U.5.4 A C V B b b j h k ",
"c c k y X.Z.G.-.0.W.+X+X+X{.{.{._.{.!.K.#X].w.= w m V b C p ^ y m A n b j h c @ # h ",
"c h w ..:.=.=.=.%.{ ^.+X].'.{.+X{.{.+X+X+X'.e.1 v v z v F A V C V B b j b b c j c k ",
"# c 5 E *.*.*.*.#.Y k.+X].].].+X+X+X+X+X(.k.^ 0 b k b b n B b j b j j j g + h c m h ",
"z v x = +.#.#.@.o.L U.+X+X+X{.+X+X{.+XI.- 3 q b c b k k m n b z h h h # # O h n m k ",
"v m G x = T Y Y I 2.).{.{.+X+X{.).'.].,.5 C n n b b h k m z j j k k h h @ # v M m v ",
"C M G J 7 y.r.6.l./.~.~.+X+X{.^./ / q.: v C n z k j h c b k h h k # k c + c v b m m ",
"G F K D l y.=X'.{.`.J.~.+X+X'.q.~ ,.$ q n b j b c h j k h c h @ c # k # k m n S G m ",
"H J D A A u qX#X{.[.`.{.{.+XY.W 1.- q n b C m m n k c h c c h c h c k h m M G F F F ",
"K D A A D t S.&X{.{.+X+X+X+XW.Q W 2 b V b S A B b b k k c h n h @ h @ k n M S A F F ",
"A A A V b n y 0X@X).'.+X+X{.].j.- 0 V b b Z C b b h h k j h z + @ @ k c m b n G H D ",
"A A B z m M 6 t.=X'.'.].].+X+X].w.; n b b C b b j h @ h h + @ + + + c c h z n G D V ",
"A C C V z j v 7 d.&X+X+X+X'.W.'.^.^ l b b j + h f + @ @ + @ @ + O + k @ # # b Z A C ",
"A C B h f h z k 5 oX$X+X+X{.k./ q.: k b b f + . + + @ # + @ O O O O @ 9 # @ v S C V ",
"Z z f g h k k h v p d.}.].W.<.7 5 q b j h f . + @ h 9 k @ # O @ # @ k k c h n v b B ",
"b j j z k k k # Z b e s <.y w b b V b j h @ @ @ k c c h k # @ O @ 9 # k c c c c b n ",
"k h n b v v k k n b n n z z b C b b j h f k h @ @ @ @ @ @ @ + + @ O # h k c n b z j ",
"h k v n m n n n n b b m z v m C b h @ + @ c @ @ @ + @ @ + + @ @ # # c h v n c c b h "
};
