/* XPM */
static char *_11707038320[] = {
/* columns rows colors chars-per-pixel */
"42 42 159 2 ",
"   c #2E2D34",
".  c #312E34",
"X  c #343136",
"o  c #36333A",
"O  c #39363C",
"+  c #3C383E",
"@  c #413B3F",
"#  c #4F3B3F",
"$  c #6B363D",
"%  c #63393F",
"&  c #6A393E",
"*  c #7B363B",
"=  c #7E383E",
"-  c #363641",
";  c #383741",
":  c #3D3A42",
">  c #3F3E49",
",  c #423D44",
"<  c #4C3A41",
"1  c #413F48",
"2  c #5E3E47",
"3  c #653E44",
"4  c #6A3E44",
"5  c #773D42",
"6  c #7D3C41",
"7  c #454046",
"8  c #494247",
"9  c #45424A",
"0  c #4A454C",
"q  c #4E484E",
"w  c #53464C",
"e  c #5B464D",
"r  c #51494E",
"t  c #464450",
"y  c #4B4750",
"u  c #4E4952",
"i  c #534C54",
"p  c #5B4B53",
"a  c #544F59",
"s  c #5A4F59",
"d  c #575056",
"f  c #595157",
"g  c #56515A",
"h  c #5B545B",
"j  c #62444C",
"k  c #694048",
"l  c #67484B",
"z  c #794043",
"x  c #73464C",
"c  c #7E4349",
"v  c #784A4F",
"b  c #6D4650",
"n  c #634C54",
"m  c #764951",
"M  c #7B4A52",
"N  c #635057",
"B  c #6B5157",
"V  c #60555B",
"C  c #6B5359",
"Z  c #62595E",
"A  c #735056",
"S  c #74565D",
"D  c #785358",
"F  c #635B63",
"G  c #695B61",
"H  c #B50C1D",
"J  c #BE161B",
"K  c #B51A1E",
"L  c #BD1A1D",
"P  c #9F012B",
"I  c #A70927",
"U  c #AB0C25",
"Y  c #A20429",
"T  c #B41421",
"R  c #BD1D21",
"E  c #9C2C2F",
"W  c #8A2D32",
"Q  c #922F35",
"!  c #9D2B30",
"~  c #81393D",
"^  c #96363D",
"/  c #9F3238",
"(  c #923B3F",
")  c #9B383E",
"_  c #AD2226",
"`  c #AA2429",
"'  c #A7282D",
"]  c #B32226",
"[  c #B92327",
"{  c #B32429",
"}  c #B2292E",
"|  c #A42D32",
" . c #AB2C31",
".. c #B32B30",
"X. c #A23136",
"o. c #CD0307",
"O. c #C5030E",
"+. c #CD0409",
"@. c #CC090C",
"#. c #D20D07",
"$. c #D10A08",
"%. c #D61307",
"&. c #D81707",
"*. c #DB1C06",
"=. c #D1120A",
"-. c #C30510",
";. c #C50E12",
":. c #C90E12",
">. c #C51116",
",. c #C81216",
"<. c #C3151A",
"1. c #C2191C",
"2. c #DE2206",
"3. c #DA270A",
"4. c #DE3E0F",
"5. c #CF2C14",
"6. c #C4251A",
"7. c #C82918",
"8. c #D12E13",
"9. c #D33413",
"0. c #D83510",
"q. c #D73811",
"w. c #DA3A10",
"e. c #E22B05",
"r. c #E63205",
"t. c #E93703",
"y. c #EB3B03",
"u. c #E33B0A",
"i. c #EE4C06",
"p. c #E3430C",
"a. c #EB4A08",
"s. c #F14402",
"d. c #F34A02",
"f. c #ED5607",
"g. c #F55303",
"h. c #F95401",
"j. c #F65D02",
"k. c #FE5D00",
"l. c #F66203",
"z. c #FE6400",
"x. c #FD6B00",
"c. c #FC7300",
"v. c #FB7B00",
"b. c #863D41",
"n. c #8C3C42",
"m. c #943C41",
"M. c #9A3F43",
"N. c #A13D42",
"B. c #85444B",
"V. c #8A4249",
"C. c #80484F",
"Z. c #924247",
"A. c #934449",
"S. c #844A50",
"D. c #8C4F54",
"F. c #F98400",
"G. c #F88B00",
"H. c #F79200",
"J. c #F89200",
/* pixels */
"8 7 7 1 7 q 9 0 8 9 0 9 7 9 9 > ; : O : 7 : + + X + O O + + + @ , + 8 : , 1 : 7 9 7 ",
"8 9 1 1 0 q 0 9 1 7 0 9 0 0 9 : - + + , 7 : , o O + + + + , 7 7 : , 0 , , q 0 0 9 7 ",
"q 0 9 7 q 9 : 9 1 0 0 0 0 u 9 7 + , 7 , 7 : + + + 7 + + @ 7 7 8 r 9 7 : 7 7 7 7 7 q ",
"9 9 : 9 0 1 7 : : 7 9 9 9 0 9 9 7 0 8 7 : + @ 7 8 7 + : , 7 8 r 0 9 7 7 w 8 9 0 7 9 ",
"9 : : : : 1 : : O 1 7 9 q 9 0 e v r w D x 3 8 w q 7 7 + + 7 7 0 0 9 0 w u q i u 9 1 ",
": : : + : : O O + , , 7 0 1 0 A n 0 8 r c } k w q 7 : : + + 7 0 0 0 i a i i i u 0 9 ",
": : : : : : : : + : 7 0 7 9 q r 0 r i q = ,.<.( 9 9 9 8 + @ q q q q u 0 9 y s u q > ",
": : O + O O + : o + 7 7 : 0 9 q q i V. .J o.o.,.X.b q 7 7 q r r i u y 9 0 a i y > : ",
": O o O X O + o O + @ 7 0 7 r N m A.,.o.+.+.o.o.+.1.c 9 1 0 0 r y 9 y 9 y i u y 1 , ",
"O o o o X O O X O o O + : 8 Z.} 1.:.+.+.$.@.+.o.o.+.<.k : q 0 0 0 y 0 y i y 9 1 , , ",
": o o O X X X X O o O O 7 5 ,.+.$.%.e.t.s.s.r.e.2.#.o.` b.x e p s y u r 9 : ; ; : : ",
"o X X   . X X X X o O @ z J +.*.y.k.x.v.c.x.k.k.k.s.%.o.@.<.1. .B u y 1 0 : : ; : ; ",
"O + o . X   . X @ O # ~ 1.o.2.h.v.G.J.J.J.F.x.k.k.k.s.#.+.+.o.+.X.N u e m.1 , o O + ",
": ; X   X   X @ # * _ @.o.#.s.x.J.J.J.J.J.J.v.z.k.k.z.t.$.+.+.+.<.C i e { 2 : + + + ",
": X     . . X + * :.o.+.+.r.k.F.H.J.J.J.J.J.G.z.k.k.k.k.2.+.+.+.@.n.y j <.5 1 , : O ",
"+ X o O O O O $ L o.o.+.*.h.z.F.H.J.J.J.J.J.v.k.k.k.k.z.y.+.+.+.:.D.s V.R e 0 , : o ",
"+ O X O O + < ` +.+.+.+.s.k.z.G.H.J.J.J.H.G.x.k.k.k.z.k.y.+.+.+.,.N...,.m.< w 1 , , ",
": X O O X @ W @.+.+.+.&.h.k.x.G.H.J.J.H.J.v.z.k.k.k.k.k.y.+.+.+.+.+.:.m.u y 1 1 0 0 ",
"1 + + O @ # T o.+.+.+.*.k.k.k.F.H.H.H.J.F.z.k.k.k.k.k.k.y.+.+.+.+.@.n.i y 1 w 1 8 1 ",
": + + + + $ :.o.+.+.+.*.k.k.k.x.c.c.c.c.z.k.k.k.z.k.k.k.2.+.+.+.+.:.M y a 1 y y 0 1 ",
"; + : + + E +.o.+.+.+.2.k.k.k.k.k.k.k.k.k.k.z.k.k.k.k.k.&.+.+.+.+.R p t 9 9 9 9 0 : ",
": : , + 4 R @.+.+.+.o.*.g.x.v.c.x.l.x.x.k.k.p.r.y.k.g.e.$.+.+.+.+./ i y 9 8 9 7 1 ; ",
": + , w X.m.R +.+.+.+.+.&.g.v.F.F.F.v.x.k.k.8.-.+.2.&.+.+.+.+.+.:.C.u u t > 9 9 , 1 ",
"7 @ 7 l M.n X.@.+.+.+.o.o.r.k.k.x.l.g.4.q.w.p.H -.$.#.+.+.+.+.+.J N u u y 9 q 9 , ; ",
": : 7 w n q p X.@.+.+.+.+.J 9.g.k.R U Y Y I 4.T 8.s.e.+.@.+.+.+. .g u y y > , , : : ",
"7 7 , 7 r q 0 k :.+.+.+.o.1.6.f.k.7.Y Y U q.f.a.g.d.#.+.+.+.+.,.D g t 9 1 : 1 : + + ",
", : 7 q u 0 0 j <.+.+.o.@.s.k.i.9.a.q.p.f.v.F.z.a.u.#.+.+.+.@.m.u t 9 > 1 1 1 1 7 , ",
"+ 7 0 q i q r i n.:.+.o.+.&.y.0.U p.z.x.G.F.x.k.q.u.%.+.+.+.| w 9 > > : : - : , q : ",
"8 8 0 r i s u i N ) >.o.+.+.$.=.u.k.k.z.x.j.9.6.w.e.+.+.+.+.| 1 : : : ; O o + q q 1 ",
"8 0 d i w f i f a u B.<.+.+.+.%.h.z.k.k.a.6.8.a.e.$.+.+.@.+.:.3 7 : : : O O 0 r q 9 ",
"q q f h C S i i a a s B.<.+.+.2.i.p.p.w.7.p.k.e.$.+.+.+.+.+.+.4 7 + 7 7 O 7 8 8 0 q ",
"f h F g g h u f u i h G { +.+.$.3.9.w.w.a.d.e.$.+.+.o.+.+.+.-.% , + , + @ 0 0 p a i ",
"Z h f g g u y u g g h F { +.+.+.+.y.d.d.s.&.+.+.+.+.+.+.o.;.6 q : , 1 , q r d V f f ",
"F g g g a g y 9 u u h h X.@.o.:.>.:.#.$.$.o.+.+.+.+.+.+.o.K w : O : O , 0 u d d h Z ",
"a g g t > u 9 9 d f h g b 1.L m n B.R o.o.+.o.+.+.+.+.+.>.6 1 O O O : 8 q 0 0 f Z g ",
"a u t 9 y y 9 0 u i g u g n.{ p 9 0 m { @.+.o.+.<.` ` | 4 ; o o o O 1 7 : : 0 f g t ",
"g t u t 9 > 9 0 9 0 y i i s V.S.i a i e b.' L Q 2 > , : o O + o . o , O O : 0 i u u ",
"g u 9 : - : 7 9 9 q i a u u u s i a 9 9 9 1 < X X o O + o O X . X o O @ + O 8 i u u ",
"u > ; - : , 1 : q a g u y y y y 9 9 9 1 : - . o O , @ @ + O o o O O @ 8 , , 8 9 t t ",
"t > > 7 : 7 : + r 0 y y y y t 9 1 i 1 > : o O O , 7 , , , + o o O @ O @ 8 7 7 7 9 q ",
"1 : 0 0 , 9 , , q 9 y y 1 1 0 u 0 9 : : - , : O : o O O O O o X O O + + , 9 0 9 9 : ",
": , 9 8 q q q 8 0 9 8 0 1 8 q u 9 ; ; - + , O + o o O O O o O O + + 7 , 8 9 7 9 9 : "
};
