/* XPM */
static char *_1707038174[] = {
/* columns rows colors chars-per-pixel */
"42 42 198 2 ",
"   c #2E2D34",
".  c #312E34",
"X  c #343136",
"o  c #36333A",
"O  c #39363D",
"+  c #3C383E",
"@  c #4A363C",
"#  c #423B3F",
"$  c #46383C",
"%  c #59353B",
"&  c #77282C",
"*  c #792A2E",
"=  c #77262C",
"-  c #69383F",
";  c #363641",
":  c #393741",
">  c #3D3A42",
",  c #3F3E49",
"<  c #423D44",
"1  c #4B3F47",
"2  c #413F48",
"3  c #5A3D42",
"4  c #653B42",
"5  c #6A3B42",
"6  c #723F45",
"7  c #7C3A42",
"8  c #454046",
"9  c #484247",
"0  c #45424A",
"q  c #4A454C",
"w  c #4E484E",
"e  c #5B454D",
"r  c #52494E",
"t  c #5D484F",
"y  c #56424C",
"u  c #464450",
"i  c #4B4751",
"p  c #4E4952",
"a  c #524C54",
"s  c #594C53",
"d  c #544E58",
"f  c #5A4F59",
"g  c #565056",
"h  c #585157",
"j  c #56515A",
"k  c #5B545B",
"l  c #614045",
"z  c #64424A",
"x  c #604A4F",
"c  c #6E464C",
"v  c #7F4045",
"b  c #7B444A",
"n  c #764449",
"m  c #634C53",
"M  c #7D4E54",
"N  c #734C53",
"B  c #615057",
"V  c #6F5057",
"C  c #60575B",
"Z  c #62595E",
"A  c #645B63",
"S  c #AF061F",
"D  c #BA0E17",
"F  c #A5171C",
"G  c #BA171C",
"H  c #B3191E",
"J  c #BC191D",
"K  c #BA231C",
"L  c #BB2E1D",
"P  c #BF351B",
"I  c #9F012B",
"U  c #A80023",
"Y  c #A70D27",
"T  c #A2032A",
"R  c #A60125",
"E  c #A71E24",
"W  c #A91E23",
"Q  c #B71D21",
"!  c #BA1B20",
"~  c #9A272C",
"^  c #842D33",
"/  c #8C2F35",
"(  c #932D32",
")  c #9B2E34",
"_  c #853136",
"`  c #8B3136",
"'  c #84353A",
"]  c #8F333A",
"[  c #813A3E",
"{  c #9E3036",
"}  c #91333A",
"|  c #9C363B",
" . c #A02227",
".. c #AB2226",
"X. c #A3292E",
"o. c #AB272B",
"O. c #B22124",
"+. c #BA2226",
"@. c #B3282D",
"#. c #A72F34",
"$. c #A2363B",
"%. c #CD0409",
"&. c #CD090C",
"*. c #CD0307",
"=. c #D30F07",
"-. c #D10C08",
";. c #D31207",
":. c #D41907",
">. c #D91A06",
",. c #D31A0B",
"<. c #C60E12",
"1. c #CA0C10",
"2. c #C20211",
"3. c #C21417",
"4. c #C91014",
"5. c #C51A13",
"6. c #C11519",
"7. c #C2191C",
"8. c #D72306",
"9. c #DC2206",
"0. c #D92D07",
"q. c #D1230D",
"w. c #D92909",
"e. c #DE3C06",
"r. c #DB3407",
"t. c #CE3710",
"y. c #C73F17",
"u. c #DC3A10",
"i. c #C92614",
"p. c #E02805",
"a. c #E63204",
"s. c #D9510C",
"d. c #C7411F",
"f. c #D55810",
"g. c #E14404",
"h. c #EB4303",
"j. c #E24A04",
"k. c #E44B0C",
"l. c #E75B05",
"z. c #E95304",
"x. c #F35302",
"c. c #FF5D00",
"v. c #F75801",
"b. c #E25117",
"n. c #DB620D",
"m. c #EC6502",
"M. c #ED6B02",
"N. c #E0670A",
"B. c #E9650A",
"V. c #F76700",
"C. c #FB6400",
"Z. c #F46E00",
"A. c #FD6B00",
"S. c #E87607",
"D. c #F77200",
"F. c #FB7400",
"G. c #F37E01",
"H. c #FA7D00",
"J. c #EB7423",
"K. c #843D43",
"L. c #8D3D43",
"P. c #894147",
"I. c #88434A",
"U. c #924046",
"Y. c #804950",
"T. c #815157",
"R. c #EE8104",
"E. c #F38401",
"W. c #F98400",
"Q. c #F48B01",
"!. c #F88B00",
"~. c #F5880D",
"^. c #F79201",
"/. c #F89301",
"(. c #F89708",
"). c #F99B0B",
"_. c #F99805",
"`. c #E98211",
"'. c #F28612",
"]. c #F99E14",
"[. c #F79515",
"{. c #FAA216",
"}. c #FAA81F",
"|. c #F69D26",
" X c #FC9F20",
".X c #F19629",
"XX c #FBAB23",
"oX c #FAAD29",
"OX c #F9A625",
"+X c #FBB22D",
"@X c #F7A932",
"#X c #FCB633",
"$X c #FDBB39",
"%X c #FDBA37",
"&X c #FDC143",
"*X c #FEC649",
"=X c #FEC94E",
"-X c #FFCB51",
/* pixels */
"9 2 8 2 0 w 0 q q 8 q 0 8 8 0 , : : + > 9 < + O X + O O + + + # < + q > < < < 8 8 8 ",
"q 9 8 < q w 0 0 2 8 q 8 q i 0 > : + + 8 9 l < O O < + O + < 8 < + < 9 < < w q q 0 8 ",
"q q 0 8 i 0 , 8 2 q q q q i 0 , + < 8 < % O.- 1 + # < + # 8 8 q a 0 8 > 9 8 2 < 2 w ",
"0 0 > 0 q 8 8 > > 8 0 0 0 q q 0 8 9 9 < <  .7.( 9 < + < + 8 9 r q 8 0 8 r q 8 q 8 0 ",
"8 , > 2 , 8 , O + < 8 8 w 0 q 0 8 q 8 < , e [ X.r 8 > + + 8 8 q q 0 q r i w a a 0 2 ",
": > + + + : O O O < 2 8 q 2 0 q 0 q 0 9 + o $ x w 9 > > + + 8 q q q r d a a a p q 9 ",
"> > : < + > > > > > 8 q 8 0 q q q r p q > O < r 0 8 0 q + # w r w w a 0 0 i h p i , ",
": + O + O O > + o + 8 8 > q q t n m g q 2 < q q 0 q q 8 8 w r r d i i 0 w g a i , > ",
"> + o O X O + O O O < < q n | +.4.+.$.K.t a r b P.U.L.7 3 i q a i q q 0 i a p u 2 > ",
"+ o o o X O X X O O # < - 6.*.*.%.%.%.1.@.U.#.4.&.&.-.&.) i q 9 0 a 0 i a i 0 , < < ",
"+ o o O X X O X X $ / / ..%.%.%.%.%.*.*.%.&.&.%.*.%.%.%._ q i i s i p i q > ; > > > ",
"o o X   . . X X $ ..&.-.%.%.%.*.%.%.:.:.:.:.:.&.*.%.%.%._ q w a d i w 2 8 : > : > : ",
"O + o . X   . X ` &.%.*.%.%.&.8.r.l.G.E.~.~.E.m.r.%.%.%.J b P.L.m d a i q < < o O + ",
"> + X   X   . - 3.*.%.%.%.;.l.|.@X+X$X$X*X$X(.^.Q.j.%.%.%.4.1.&.} d p a u > > + + + ",
"+ o     . X X * &.%.%.%.;.B.+X=X-X-X-X-X=X}./.^.^.E.8.%.%.%.%.*.( f i q q > 2 < + + ",
"+ o X O $ X O * %.*.%.%.g.oX-X-X-X-X-X-X&X(.^./.^.^.m.-.%.%.%.%.) k p u a 0 q < > o ",
"+ + O $ v ' O & %.%.*.;.'.*X-X-X-X-X-X-X+X/.^./././.Q.8.%.%.%.%.L.f d p i 1 i 2 < < ",
"> o X X $ ( $ & &.%.*.g.XX-X-X-X-X-X-X&X).!./././.!.^.j.*.%.%.<.M j d i 1 s 2 2 9 q ",
"8 + + + < ^ X.~ %.%.&.m.XX=X-X-X-X-X-X#X!.H.!.^./././.z.%.%.%.#.A j d a K.4 u 1 9 2 ",
"< O O + + % F &.%.%.:.E.).XX&X-X-X&X&XoXH.W.^./.^.^./.m.-.%.<.T.k k I.@.+.m u u q 2 ",
"; + > + O < 4 G %.*.:.E.^.).=X&XXX).)._.W.W././.!.!.!.Z.=.*.J f j d { { b 0 0 0 q > ",
"> > > + < 9 8 l ) <.:.Q.^.).#X{./.Q.S.S.W.W./.W.A.C.F.v.-.*...f p d k i 0 0 0 0 2 : ",
"+ + < q q 9 w w 9 W :.E.^.^.^.R.n.P Y O.G.H.!.F.c.c.v.>.%.*.} d j j a i i , 0 0 < 2 ",
"9 < 9 r r w i q 1 E -.j.R.^.Q.L T I I Y `.~.F.F.A.C.a.%.%.*.] d h p p a i 2 0 8 < > ",
"> > 8 0 w a q q w W *.&.K R.Q.d.R T U D .X].H.!.W.h.;.%.-.%.} Z j p d u 0 , 8 , > < ",
"8 8 8 9 w q i q i W %.*.S s.^.G.0.q.9.g.@X#X(.S.k.=.%.%.%.%.} k d d u u 0 > < > + > ",
"8 > 8 w p q 0 i z 6.%.*.2.q.n.[.[.F.H.(.+X{.n.i.w.*.*.%.%.%./ p p u 0 < , < 8 , 8 < ",
"+ 8 9 w a i w a 5 <.%.%.*.w.K d.@X#XoXXX].f.5.z.h.-.%.%.%.%._ 2 0 , , , > ; > 8 q > ",
"8 9 q w q q p g c 3.*.*.%.=.t.q.J.%X+X_.R.5.&.D.C.;.%.*.%.Q z 2 > > > : + X + q r 2 ",
"9 q g g w g p g f K.1.*.%.%.j.D.{.{././.'.;.%.m.C.;.%.%.6.4 , , 8 > > > o O q r w 0 ",
"w w h k k a p g a N J %.%.*.;.G.XX].).XXJ.:.e.G.v.;.2.J ' 2 > > 8 + < 8 + 8 9 q q w ",
"k k Z j d p p k a I.1.%.%.%.&.m.].|.J.b.k.M.F.x.9.%.Q e < 0 > : < + < > # q q s g a ",
"C k k p j p i a d k o.%.%.%.%.9.k.u.r.Z.W.V.a.=.%.%.( > 0 < 2 < > < 2 < w r g k k h ",
"A k j j d a i u p p M 6.%.%.*.-.h.D.G.Z.h.,.%.%.%.1.5 > < > 9 < O < O < q r g g k k ",
"d d j u 0 p 0 0 g h k M 7.%.*.*.=.9.9.>.%.%.%.%.*.W 2 < > 2 2 : O + < < r q q h Z j ",
"d d u 0 p u 0 q p g j p N L.! <.*.%.%.%.*.%.<.X.} 4 : > > O X o o O < 8 : , q h h p ",
"d u p u 0 , 0 q 0 q i a d d s Y.6.%.*.*.*.G 4 > : o O O o O + X . X < o + + 0 a p p ",
"j p , , ; > 0 0 0 w a d a p i p N | Q <.*.E O   o o O + o O X . X O O # > O 9 g p p ",
"p , ; O > < < > w d k p i i i i q i e 6  .J % X O + # < + O o o O o # 8 < < 9 0 u 0 ",
"u , < 0 < < > + r q i i i i 0 1 2 a 2 > 1 5 3 O < 1 < > < + O X O # + # 8 8 8 8 8 i ",
", > q 9 8 8 8 < w 0 i i 2 2 9 i 0 0 , > ; < > O : O O : O O X X X O + + , 8 q 8 8 , ",
": 8 9 q q q w q q 0 9 q 2 q r i 8 : : O > < O O O X O O o O + + + + 8 < q 0 8 8 8 , "
};
