/* XPM */
static char *_1707038021[] = {
/* columns rows colors chars-per-pixel */
"42 42 201 2 ",
"   c #2E2D35",
".  c #312F35",
"X  c #343136",
"o  c #36333B",
"O  c #39363D",
"+  c #3C383E",
"@  c #3F3937",
"#  c #433D3E",
"$  c #4D443B",
"%  c #724A3B",
"&  c #363640",
"*  c #393741",
"=  c #3D3A42",
"-  c #3F3E49",
";  c #423E44",
":  c #413F48",
">  c #543C45",
",  c #763549",
"<  c #454046",
"1  c #4A4346",
"2  c #45424A",
"3  c #4A454C",
"4  c #4E484E",
"5  c #524A4E",
"6  c #524744",
"7  c #5D5247",
"8  c #464450",
"9  c #4B4751",
"0  c #4D4952",
"q  c #524D54",
"w  c #534F59",
"e  c #594F52",
"r  c #565056",
"t  c #5A5257",
"y  c #56515A",
"u  c #5B545B",
"i  c #644B44",
"p  c #665648",
"a  c #79584A",
"s  c #635654",
"d  c #62595E",
"f  c #61565A",
"g  c #754044",
"h  c #746346",
"j  c #7E6F59",
"k  c #635B62",
"l  c #AF011F",
"z  c #B7061B",
"x  c #BC141D",
"c  c #BC201A",
"v  c #9F012A",
"b  c #A1032A",
"n  c #A60728",
"m  c #AB192F",
"M  c #A20E33",
"N  c #AC1D30",
"B  c #832D36",
"V  c #A72227",
"C  c #B02532",
"Z  c #B73334",
"A  c #B02D2C",
"S  c #D1110D",
"D  c #C40812",
"F  c #CD100E",
"G  c #D82708",
"H  c #DA350D",
"J  c #CD3217",
"K  c #E42C04",
"L  c #E83904",
"P  c #C02423",
"I  c #D93928",
"U  c #8C4D2F",
"Y  c #914D2D",
"T  c #9F4832",
"R  c #995635",
"E  c #82503A",
"W  c #A14D23",
"Q  c #AD582C",
"!  c #B25625",
"~  c #946C3E",
"^  c #936A37",
"/  c #A87336",
"(  c #C94816",
")  c #DB491A",
"_  c #D75916",
"`  c #C85819",
"'  c #E6470B",
"]  c #E65C0B",
"[  c #FF5D00",
"{  c #F55E07",
"}  c #E74D15",
"|  c #DA6217",
" . c #D66B14",
".. c #FE6201",
"X. c #FC6C01",
"o. c #FA6605",
"O. c #FC7505",
"+. c #FB7B00",
"@. c #FA760A",
"#. c #E97D17",
"$. c #FF7A16",
"%. c #FF7511",
"&. c #EC6502",
"*. c #C85C25",
"=. c #E05A3A",
"-. c #CF663E",
";. c #E86622",
":. c #F67F21",
">. c #E77D3D",
",. c #EC7029",
"<. c #8B5346",
"1. c #B25F53",
"2. c #846946",
"3. c #8C774F",
"4. c #917D57",
"5. c #9A6940",
"6. c #D77941",
"7. c #E2664A",
"8. c #E16551",
"9. c #B8833A",
"0. c #ED8004",
"q. c #FA8300",
"w. c #F88C00",
"e. c #F88B06",
"r. c #F79100",
"t. c #F89201",
"y. c #F99A0B",
"u. c #F8960D",
"i. c #E88C1A",
"p. c #FE841C",
"a. c #FF8A1F",
"s. c #ED9716",
"d. c #F99E11",
"f. c #FB9318",
"g. c #FAA117",
"h. c #FAA319",
"j. c #FE8D22",
"k. c #FE9C2B",
"l. c #FD9A21",
"z. c #F39A3C",
"x. c #FCA92C",
"c. c #FBAC24",
"v. c #FFA835",
"b. c #FCB534",
"n. c #FDBC3C",
"m. c #FDB73A",
"M. c #FBB12C",
"N. c #D39131",
"B. c #FEC03E",
"V. c #9C8352",
"C. c #A78B53",
"Z. c #B49656",
"A. c #BA9A57",
"S. c #9D8D68",
"D. c #DB8143",
"F. c #E78B53",
"G. c #E29046",
"H. c #D2A94D",
"J. c #D4AE58",
"K. c #DAB25A",
"L. c #DEB457",
"P. c #CEA64F",
"I. c #E9A847",
"U. c #FBB443",
"Y. c #FCBD42",
"T. c #F6B94D",
"R. c #F9B94A",
"E. c #EBBB53",
"W. c #F6BB51",
"Q. c #EDB770",
"!. c #FDC143",
"~. c #FEC54B",
"^. c #FFCA4E",
"/. c #F3C354",
"(. c #FBC651",
"). c #FFCB51",
"_. c #FFCF5B",
"`. c #FFD05E",
"'. c #FDCB6A",
"]. c #FFD263",
"[. c #FFD66C",
"{. c #FBCD71",
"}. c #FFD570",
"|. c #FFD974",
" X c #FFDC7A",
".X c #FFE17F",
"XX c #F4C08E",
"oX c #FEDB81",
"OX c #F9D99E",
"+X c #FFE085",
"@X c #FFE38C",
"#X c #FFE692",
"$X c #FFE897",
"%X c #FFE99B",
"&X c #FFEDA4",
"*X c #FEEFAC",
"=X c #FFF1AC",
"-X c #FFF4B4",
";X c #FFF7BC",
":X c #FFF8BE",
">X c #FFF9C0",
/* pixels */
"2 < < < 2 4 2 3 3 : 3 2 : 2 2 : * * + ; 1 = + o o + o + + + + < + # 2 ; ; : ; 1 < : ",
"2 2 ; < 3 4 2 2 ; 2 3 2 4 4 2 * * + + ; < ; = o O = + o + = $ < = ; 2 ; ; 3 3 3 2 ; ",
"4 3 2 < 0 2 - : ; 3 3 3 3 4 2 ; + ; < ; < = + + + $ = + # < : 3 q 2 < = 1 2 : : : 5 ",
"2 < = 2 3 < < = = < 2 2 2 3 8 < : 1 2 ; + + = < 1 < = = = < 3 3 3 < : < 5 1 1 2 < 2 ",
"< - = : = : = = O ; < 2 4 2 4 2 < 4 ; < < < 1 4 4 < ; ; + ; < 3 3 2 3 q q 3 q 0 2 : ",
"= = O + = = O O O < ; < 3 ; 3 t h 3.P.H.H.P.H.H.H.H.H.P.3.p 1 3 3 3 q e q r q 0 3 2 ",
"= = = = + = = = = = 1 7 V.Z.Z.L./._.`.`._.].@X#X@X].).).^./.A.4.q 4 0 2 < 9 r 0 3 - ",
"= + O + O O = + o 6 Z.E. X=X-X#X.X=X=X-X=X-X>X>X;X@X).^.^.^.^.^.A.t 0 2 3 r y 9 : = ",
"= O o O X O + o p J.[.@X-X:X:X>X:X:X:X:X:X:X:X:X+X).^.).).).).^.).4.9 2 9 0 0 8 : = ",
"O O o o X X O 2./.|.-X:X:X:X:X:X:X:X:X:X:X:X:X%X`.).).).).).).).)./.C.0 q 0 2 - : = ",
"+ o o o X X $ J..X=X:X:X:X:X:X:X:X:X:X:X:X:X:X+X^.^.).).).).).).).(.E.3.3 - & = = = ",
"o o X     # Z.[.=X:X:X:X:X:X:X:X:X:X:X:X:X>X&X`.).).).).^.).).).).).(.Z.2 * = o = O ",
"O O X   X h /.$X;X:X:X:X:X:X:X:X:X:X:X:X:X=X|.).^.~.).).).^.~.n.c.n.).H.a : ; o + O ",
"; + X   $ E.^.$X:X:X:X:X:X:X:X:X:X:X:X:X-X[.^.Y.f.y.b.^.).~.d.t.r.y.M.h.~ ; & + + + ",
"+ o   . h /.(.$X:X:X:X:X:X:X:X:X:X>X:X:X-X].).k.X.w.h.^.!.h.t.t.t.r.r.r.~ = 1 ; + O ",
"+ o X # J.^.).[.+X%X%X:X:X:X;X:X>X-X-X>X=X].U.%.+.r.h.b.y.r.r.t.r.t.r.y. .i 2 : = O ",
"O O X # K.).).).^.].$X:X:X:X;X&X@X].}.@X[.).v.[ +.r.t.t.r.r.y.d.t.t.t.r.O.a 3 : ; ; ",
"; o @ # K.).).).^.[.;X>X;X%X}._.).).).).).).~.j.q.r.r.r.y.h.v.l.q.q.r.r.X.a : 2 2 2 ",
": + + # K.).).).^.[.=X#X X).).).).^.T.T.T.).).k.q.w.r.h.n.j.o...[ ..O.O.&.a 2 2 2 2 ",
"- O + ; K.).).).).).`.).).).(.(.G.-.N m m 6.(.~.p.+.w.c.j.[ [ [ [ [ [ | <.q 2 3 2 < ",
"O O ; ; A.).).).).).^.).I.D.Z Z M v v v v C T.).m.@.q.y.O.[ [ [ [ [ | p 2 2 2 2 3 : ",
"= = # + 3 C.E.T.(.).).~.Z b b b v b v v v C W.|.'.%.X.+.X.o.$.$.[ { <.q 2 2 2 2 : O ",
"= + = 1 3 > <.C I.).).).-.n b b v b b v l P '.-X[.$.a.j.v.~.Y.j.| Q y 0 9 - 2 < = 1 ",
"; ; 1 5 0 0 , M 6.(.).).).>.D z n l D D D ) '.-XoX{.).~.!.B.s./ f q 0 q 9 : 3 < : + ",
": ; ; 3 4 q , M x ;.b.).).R.;.' L L L ' ,.R.|.;X*X_.c.d.` ( ~ d y w 0 9 2 : : : = ; ",
"; ; : 1 5 3 3 , x G #.6.T..X[.v.p.a.x.!.~._.#X&Xm.y.0.J z G *.k y w 8 8 : = : = = * ",
"; ; : 4 q 3 3 9 g _ ( v 6.Q.&X&X X[.[.[.}.@X#X).i.] c D ' [ *.w 9 8 < - : : 2 : ; ; ",
"# ; 1 3 0 3 0 0 5 ^ T n n x D.&X;X:X-X=X@X`.B.d.A n z K +.+.] E 2 - - - * * = < 1 ; ",
"1 1 2 0 3 9 0 e y 0 ~ _ F K :.[.@X&X$X`.).).b./ > B D K +.w...Q - = = O O o ; 4 0 ; ",
"2 3 r e 9 e 0 w 0 9 2.s.o.@.U.@X[.).`.).).(.x.^ 2 6 V S &.w...Q < ; = = o O > 5 9 : ",
"3 5 t u y q q q q r r h i.h.].=X[.^.^.~._.oX|.S.: > V H +.w...Q ; = ; ; O : : 1 4 0 ",
"t u d y w q 0 u 0 r u k N.!.[.#X]._.+Xn.oXOXF.1.B ( ] 0.q.+.] E ; ; ; + ; 3 3 e e q ",
"d d y w w 0 9 q w w u d 9.T.`.@X%XU.XX7.) =.J ;.z.u.+.X.] ( i 2 = ; ; ; 4 5 e d r u ",
"k y w w w w 9 8 0 q d u u / z.8.8.H S S ' R.b.d.j.@._ Y i ; 2 = O ; + = 2 q r e u d ",
"w w w 9 2 9 2 2 e y u y 8 <.) G ) ) ;.U.c.x.f.X.` W 6 ; = ; ; * O O ; < 0 3 3 r d w ",
"w w 8 2 0 0 < 3 0 q w 9 w s R #.x.v.e.f.O.| ! % 1 = O & ; & o o o O ; < * ; 3 t w 9 ",
"w 8 0 9 : - 2 2 2 9 9 q 0 w 9 a R R R Y U 1 & O = & o O o + O X X X ; O O = 2 q w 0 ",
"w 0 8 * & = 2 2 2 3 q r 0 0 9 9 0 w 2 2 3 & o . o o O O o o X . X o o # = O 1 r 0 9 ",
"0 : & O = ; ; = 4 r y 0 0 9 9 9 3 2 : : * &   X O # ; ; # O X O + X # ; ; # 1 3 : 8 ",
"9 - - 2 ; ; = + q 3 0 9 9 9 2 2 : q : - ; o O + ; ; ; # ; * O X O + # ; 1 : ; : : 9 ",
": = 2 3 < 1 ; ; 3 2 3 0 2 : 2 q 3 2 : = & : = + + o O O O O o . o o + # ; 2 3 2 2 : ",
"= < 2 3 3 3 4 3 3 2 2 3 : 2 3 4 : = O o + ; o + o o O O O X + + # # ; ; 1 3 ; : 2 = "
};
