/* XPM */
static char *_01707038274[] = {
/* columns rows colors chars-per-pixel */
"42 42 116 2 ",
"   c #2E2D34",
".  c #312E34",
"X  c #343136",
"o  c #36333A",
"O  c #3A363C",
"+  c #3C383E",
"@  c #44373D",
"#  c #423B3F",
"$  c #52383D",
"%  c #70373C",
"&  c #7F363E",
"*  c #7E393F",
"=  c #363641",
"-  c #383741",
";  c #3D3A42",
":  c #3F3E49",
">  c #423D44",
",  c #413F48",
"<  c #563E45",
"1  c #5F3B41",
"2  c #603B42",
"3  c #693F49",
"4  c #7D3D42",
"5  c #454046",
"6  c #484247",
"7  c #45424A",
"8  c #4A454C",
"9  c #4E484E",
"0  c #594047",
"q  c #53454C",
"w  c #5E454C",
"e  c #514A4E",
"r  c #454451",
"t  c #4B4751",
"y  c #4D4952",
"u  c #524D54",
"i  c #5A4C52",
"p  c #534F59",
"a  c #565056",
"s  c #585157",
"d  c #56515A",
"f  c #5B545B",
"g  c #604247",
"h  c #6E4046",
"j  c #64474C",
"k  c #6C444A",
"l  c #7C4147",
"z  c #74444C",
"x  c #7B454C",
"c  c #79494F",
"v  c #624951",
"b  c #6C4C53",
"n  c #7C4B52",
"m  c #63545B",
"M  c #62595E",
"N  c #71535B",
"B  c #635A63",
"V  c #BE191D",
"C  c #AF1E23",
"Z  c #B71D21",
"A  c #BD1E21",
"S  c #9F292E",
"D  c #8C2C31",
"F  c #972F32",
"G  c #9D2E33",
"H  c #833136",
"J  c #89373C",
"K  c #8A3A3F",
"L  c #9C3136",
"P  c #94353C",
"I  c #9A343A",
"U  c #AF2024",
"Y  c #AF2429",
"T  c #A6282E",
"R  c #AD292D",
"E  c #B42126",
"W  c #BA2125",
"Q  c #B4262B",
"!  c #A22E34",
"~  c #A82B30",
"^  c #A43237",
"/  c #CD0307",
"(  c #CD0409",
")  c #CC090D",
"_  c #D30F07",
"`  c #D10B08",
"'  c #D51207",
"]  c #DB1D06",
"[  c #CA0D12",
"{  c #C51115",
"}  c #C91115",
"|  c #C3161A",
" . c #C3191D",
".. c #DE2205",
"X. c #E02605",
"o. c #E42D04",
"O. c #E63204",
"+. c #E83504",
"@. c #EC3B03",
"#. c #EF4102",
"$. c #F14502",
"%. c #F54C01",
"&. c #F75001",
"*. c #F95401",
"=. c #FF5D00",
"-. c #833B41",
";. c #8C3D43",
":. c #943D43",
">. c #9C3E43",
",. c #814246",
"<. c #8A4047",
"1. c #84444A",
"2. c #8F454D",
"3. c #9E454A",
"4. c #93494F",
"5. c #8A4C51",
/* pixels */
"6 5 5 , 5 9 7 8 8 5 8 7 5 7 7 : = ; O ; 6 ; ; o o + O O + + + 5 # ; 6 > 5 , > 5 5 5 ",
"6 7 , , 8 9 7 7 , 7 8 7 8 8 7 ; = + + 5 5 ; > o O + + + + ; # 5 ; > 6 ; > 9 8 8 7 5 ",
"9 8 7 5 9 7 , 5 > 6 8 8 8 y 8 ; + > 5 > 5 + + + # # ; + + 5 6 8 9 7 7 ; 5 7 5 , : 9 ",
"7 7 ; 7 7 7 5 ; : 5 7 6 7 8 8 7 5 6 8 ; ; + ; 5 6 5 + ; # 5 6 9 8 7 5 5 e 6 5 8 5 7 ",
", : ; : ; , ; ; O 5 w x ;.;.l w 9 8 , > > > 5 q 9 5 ; + # j w 8 8 7 8 i y 8 u y 7 5 ",
"; ; + + ; ; O O # i b x ,.P |  .R l e 8 ; O # 9 9 7 ; # ; 0 >.j 8 8 e u u i u y 7 7 ",
"; + ; ; ; ; ; ; + 5 5 8 5 l } / ) } Q R J $ 6 9 8 q q 9 + 5 R W b q y 8 7 y d u y : ",
"; + O + O O ; + o + 5 5 : c  ./ ( ( / / ) V <.z L W W 4 6 j V ` <.y t 7 9 u u t : ; ",
"; O o O X O + o O O # 5 k Q ) / ( ( ( ( ( ( [ { ( ( ( V ! R ) ( Y u 8 8 t y y r , ; ",
"O O o o X O O X O o # J  .( ( / ( ( ( ` _ ' _ ' ' ( ( ( ( ( ( ( { c 7 8 u y 7 : > > ",
"; o o O X X O X o o % } ( / ( ( ' ] O.$.&.*.*.*.%.+.' ( ( ( ( ( ( ! u y 7 ; = - - ; ",
"X o X   . . X X o $ V ` ( / ) o.%.=.=.=.=.=.=.=.=.=.*...( ( ( ( ( T y , , ; ; ; ; ; ",
"O + X   X   . X + H ) ( ( ` O.=.=.=.=.=.=.=.=.=.=.=.=.$.` ( ( ( ( ~ p t 8 , ; o O O ",
"; O o . X   . # + D ) ( / ..=.=.=.=.=.=.=.=.=.=.=.=.%.] ( ( ( ( ( ~ p t 8 ; ; @ + + ",
"; o     . X X O + D ` / ` #.=.=.=.=.=.=.=.=.=.=.=.=.o./ ( ( ( ( ( ^ y 7 t ; , , ; O ",
"+ o X o O X O # 1 Y ( / ..=.=.=.=.=.=.=.=.=.=.=.=.+._ ( ( ( ( ( ) 5.u t y 7 6 > ; O ",
"+ O X O O O O O T ( ( ) @.=.=.=.=.=.=.=.=.=.=.$.@.) ( ( ( ( ( ( ) n p y t , 8 , > > ",
"> X O O X O O @ E ( ( _ &.=.=.=.=.=.=.=.=.=.&.' ` ( ( ( ( ( ( (  .N p t , t 8 , , 6 ",
"; + + O # # O @ U / ( ` &.=.=.=.=.=.=.=.=.=.%.` ( ( ( ( ( ( ( ( Q B d t y , t , 8 6 ",
": + + + + + > @ U / ( _ &.=.=.=.=.=.=.%.@.*.%.` ( ( ( ( ( ( ( ( :.f d t p t 8 8 8 , ",
"O + ; + O > > + F ( ( _ %.=.=.=.*.@...` ) O.=...( ( X.X.( ( ( ( :.p r r 7 7 7 7 8 ; ",
"; ; ; + # 6 6 > 0 E ( ( ] $.*.=.O.( ( ( ( o.=.%.] +.*.+.( ( ( ( E m p t 7 8 7 5 , - ",
"; + > 6 9 5 9 9 5 k V ( ( ( $.=.$.' ( ( ( o.=.=.=.=.&.' ( ( ( ( ) n y y 8 : 7 7 > , ",
"5 5 6 e 9 9 9 8 5 7 4 [ ( ( ] %.*.#.+.+.+.%.=.=.&.+.] ( ( ( ( ( [ c y y t , 8 5 , ; ",
"> ; 5 8 9 u 9 8 7 9 4 [ ( ( _ X.@.=.=.=.=.=.=.%.X.+...( ( ( ( ( ) c y t r , , , ; > ",
"5 > 5 5 9 8 8 8 t k Z ( ( ( ' ] _ #.=.=.=.=.%.' X.*.+.( ( ( ( ( ) x r 7 , ; , ; + + ",
"> ; 5 8 y 8 8 8 u ! ( ( ( ( ( X.+.%.=.=.=.=.O.( ..=.$.` ( ( ( ( ( k 7 : , , , > 5 > ",
"+ 6 8 9 y y y y v A ( ( ( ( ( ' %.=.=.=.*.=.X.( ] *.$.( ( ( ( ( { 3 : : ; - ; 5 9 ; ",
"5 6 8 e 9 y y u 1.[ ( ( ( ( ( ( @.=.%.@.......X.%.=.O.( ( ( ( [ -.5 ; ; + o + 9 9 , ",
"8 6 a a 9 u y a ;.| A ) ( ( ( ( ..o._ ) ' ' $.=.$...` ( ( ( ( G 6 ; ; ; o O 6 e 9 7 ",
"9 9 a f f u u u n 4.n { ( ( ( ( ( ] ..] %.%.%.o.` ( ( ( ( { G < 5 ; > 5 + 5 6 6 9 9 ",
"s s M d p y y f s m f 3.[ ( ( ( ( ] @.@.$.o.' ( ( ( ( ( ( J > > ; + 5 ; # 8 8 i a y ",
"M f f y d y y y p d f B 2.W ) ( ( ( ( ` ` / ( ( ( ( ( ( [ 3 > > ; > > > 9 e a m s f ",
"B f d f p p t 8 y y f f d b :.>.| ( ( ( ( ( ( ( ( ( ( { I 6 6 > O > - > 8 9 a a f f ",
"p p d r : y 7 7 u d f d t d p t x V ( ( ( ( ^ I | Z J k , > ; O O + > > 9 8 8 a M d ",
"p p r 7 y y 7 8 u u d y p f t r 8 b :.L Z { ! x c g - + ; = o o o O > 6 ; : 8 s d y ",
"p r y r 7 : 6 7 7 8 y u u p r y u u u 7 u k H L ;.8 O O o O O o . o > O O ; 7 u y t ",
"d y 7 ; = ; 7 7 7 9 u u y y y y u u t 7 7 - o O ; o O + o O o . . o O # + O 6 i y y ",
"y : = = ; > > ; y u d y t t t y 7 r 7 , ; = . o O @ > > + + o o O o # 6 , # 9 7 7 r ",
"8 : : 7 : > ; + e 8 y t t y 7 7 , u , : ; o O O > > > # ; + O X O # + # 5 , > 5 7 9 ",
", ; 8 6 5 7 > > 9 7 8 t , , 8 9 7 7 : ; - > ; O - o O O O O o X O O + ; > 5 8 7 7 ; ",
"; , 6 8 8 9 9 6 9 7 7 8 , 8 9 t , ; - o ; > o + O o O O O o O O O + 5 + 8 7 5 5 7 : "
};
