/* XPM */
static char *_21707038349[] = {
/* columns rows colors chars-per-pixel */
"42 42 198 2 ",
"   c #2E2D34",
".  c #312E34",
"X  c #343136",
"o  c #36333A",
"O  c #39363C",
"+  c #3C383E",
"@  c #413C3F",
"#  c #7D393D",
"$  c #363641",
"%  c #383741",
"&  c #3D3A42",
"*  c #3F3E49",
"=  c #423D44",
"-  c #4C3E46",
";  c #423F48",
":  c #5A3C42",
">  c #603D42",
",  c #6F3B43",
"<  c #7E3C43",
"1  c #454046",
"2  c #484247",
"3  c #45424A",
"4  c #4A454C",
"5  c #4E484E",
"6  c #504147",
"7  c #5F4247",
"8  c #54434A",
"9  c #5B474D",
"0  c #524A4E",
"q  c #454451",
"w  c #4B4751",
"e  c #4E4952",
"r  c #534C54",
"t  c #5C4D54",
"y  c #544F59",
"u  c #584F58",
"i  c #575056",
"p  c #585157",
"a  c #56515A",
"s  c #5B545B",
"d  c #66454C",
"f  c #7B454A",
"g  c #7D454A",
"h  c #634B53",
"j  c #6C4C53",
"k  c #744A52",
"l  c #7D4D54",
"z  c #62545B",
"x  c #6B525A",
"c  c #62595E",
"v  c #73535B",
"b  c #72585F",
"n  c #645B63",
"m  c #B10F1F",
"M  c #BB0918",
"N  c #BA1D1F",
"B  c #BD291B",
"V  c #BC301D",
"C  c #9F002B",
"Z  c #A70F27",
"A  c #A20429",
"S  c #AF1A23",
"D  c #B71E23",
"F  c #BA1E22",
"G  c #9F2B2F",
"H  c #942F33",
"J  c #87383D",
"K  c #893A3F",
"L  c #9B3135",
"P  c #90373D",
"I  c #973135",
"U  c #AC252A",
"Y  c #A82A2F",
"T  c #AA2326",
"R  c #B32226",
"E  c #BB2226",
"W  c #B5262A",
"Q  c #B6282D",
"!  c #A52C32",
"~  c #AB2E33",
"^  c #B22E33",
"/  c #A3353A",
"(  c #A2383F",
")  c #AB3439",
"_  c #B03035",
"`  c #B03338",
"'  c #CF0B07",
"]  c #CD0409",
"[  c #CC0A0D",
"{  c #D10C08",
"}  c #D30F07",
"|  c #D51507",
" . c #D51D07",
".. c #DA1C06",
"X. c #D2140A",
"o. c #D21F09",
"O. c #C50C12",
"+. c #CA0E12",
"@. c #C20111",
"#. c #C31215",
"$. c #C81114",
"%. c #C2151A",
"&. c #C4191D",
"*. c #DE2406",
"=. c #D92B06",
"-. c #D62709",
";. c #DB3305",
":. c #D73809",
">. c #DC3708",
",. c #CA2813",
"<. c #CB3813",
"1. c #E32A05",
"2. c #E03806",
"3. c #E53605",
"4. c #C11D21",
"5. c #DF4105",
"6. c #C74217",
"7. c #C84417",
"8. c #DE4415",
"9. c #D55610",
"0. c #D65A10",
"q. c #E14505",
"w. c #EE4703",
"e. c #E74C04",
"r. c #F04702",
"t. c #F74F01",
"y. c #E65704",
"u. c #EC5403",
"i. c #E05D08",
"p. c #E85D04",
"a. c #FF5E00",
"s. c #F55A00",
"d. c #E14B11",
"f. c #E85717",
"g. c #E55810",
"h. c #EA6303",
"j. c #EE6801",
"k. c #EB6D0E",
"l. c #F36501",
"z. c #FC6200",
"x. c #FA6D00",
"c. c #F56E06",
"v. c #EE7301",
"b. c #EC7D05",
"n. c #E7790C",
"m. c #FB7300",
"M. c #F27B02",
"N. c #FA7C00",
"B. c #F17F08",
"V. c #F47201",
"C. c #E7641F",
"Z. c #DF7522",
"A. c #873C42",
"S. c #903F46",
"D. c #9D3C42",
"F. c #A83F44",
"G. c #844249",
"H. c #89454C",
"J. c #92464A",
"K. c #92484E",
"L. c #9B4045",
"P. c #824A52",
"I. c #825058",
"U. c #895358",
"Y. c #EE8304",
"T. c #F48301",
"R. c #FA8301",
"E. c #F58C01",
"W. c #F88C00",
"Q. c #F3890B",
"!. c #F79100",
"~. c #F89301",
"^. c #F99A0B",
"/. c #F6910A",
"(. c #F28814",
"). c #F99D13",
"_. c #F69719",
"`. c #FC9A1B",
"'. c #FAA116",
"]. c #FAA61D",
"[. c #FAA81F",
"{. c #EE8823",
"}. c #F08623",
"|. c #F69F28",
" X c #F49422",
".X c #F8A120",
"XX c #FBAB24",
"oX c #FBAE29",
"OX c #FBB12D",
"+X c #FCB027",
"@X c #FAAE30",
"#X c #FCB532",
"$X c #FDB937",
"%X c #FDBB3B",
"&X c #FDC243",
"*X c #FEC74B",
"=X c #FEC94E",
"-X c #FFCB51",
/* pixels */
"2 ; 1 ; 3 5 3 4 4 ; 2 3 ; 3 3 ; % & O = 2 & + O o + o O + + + @ + @ 2 & ; = = ; 2 ; ",
"2 2 = ; 4 5 3 3 ; 3 5 3 5 5 3 % O O O = 1 & = o O + + + + 1 1 1 = ; 2 = = 5 4 4 3 ; ",
"w 4 3 3 5 3 * 1 ; 2 4 2 4 w 3 ; & = 1 ; 1 & + + + @ = + @ 2 1 2 0 2 ; = = 2 ; ; ; 0 ",
"3 3 & 2 4 1 1 & & 3 2 3 4 9 w 3 ; 2 2 = & + + 1 2 1 + + @ 1 4 4 5 3 = = 0 4 2 2 ; 2 ",
"; * & ; & * * O O ; = 3 j K.t ; 1 4 = ; = = 2 0 4 1 = + + 1 1 4 4 4 3 0 0 4 r 5 2 ; ",
"& & O + & & O O O = ; 1 r 8 3 4 2 4 4 3 & o @ 4 5 ; & & + + 1 4 2 3 r y r y r e 4 4 ",
"& & & & + & * + + = = 5 ; 3 5 4 4 w 0 4 & o 1 4 9 A.K f 2 @ 4 0 5 5 r 3 3 e y r w * ",
"& + O + O O & + o + 2 ; & 4 2 5 0 t y 4 ; = 4 k W [ { $.E f 0 r y e 5 3 5 r y w * & ",
"& O o O X O + o O + - 6 8 8 g J._ ^ L.j w r f &.[ ] ] ] ] ~ 0 w w 3 w 3 w r e q ; & ",
"O O o o X o o X O 6 H B D F $.+.] ] [ &.L.K.&.] ] ] ] ] ] &.d 4 4 5 4 4 r e 3 * ; & ",
"& o o o X X X X @ R ] ] ] ] ] ] ] ] ] ] ] +.] ] ] ] ] ] ] $.g e y e e e 3 & & % & & ",
"o o X   X X X @ W ] ] ] ] ] ] ] ] ' -.2.2.q.5.5.=.{ ] ] ] [ / r r e 4 ; ; % & % & % ",
"o + o   X . . > $.] ] ] { ] { =.g.k.Q.).'.oXXX^.E.h.=.] ] ] F h e y r 5 4 ; & o + O ",
"= + X   X   . # ] ] ] ] ] { q._.&X&X&X*X=X-X$X~.~.~.b. .] ] &.j r y e r q & & + + + ",
"+ o     . X O Y ] ] ] ] ] q.|.*X-X-X-X-X-X=X'.W.W.~.!.p.{ ] +.H.e s w 4 4 & 2 ; + + ",
"+ X X O o O @ R ] ] ] ] ..(.&X-X-X-X-X=X-X%X~.~.~.~.!.E.;.] ] ) z s e q r 3 2 = & o ",
"O + X o O O @ H ] ] ] ' e.#X-X-X-X-X-X-X=X[.~.!.~.~.!.~.y.] ] E b a y w w w 4 ; ; = ",
"= o o O X + O : N ] ] | b.$X-X=X-X-X-X-X$X~.R.~.!.~.!.~.v.X.] [ F.s y w ; q ; 2 3 2 ",
"= + + O @ @ O @ H ] ] >.W.oX&X=X-X-X=X-XOXR.N.~.!.~.~.~.M.| ] ] ` s y w w 4 4 3 2 3 ",
"; O + + + + = O # ] ] 5.!.~.].*X=X%X].XX).N.N.!.!.!.W.~.T.*.] &.I.s a w u q - q 4 ; ",
"O + + & O @ 1 O d %.] q.~.W.XX&XXX^.!.W.!.E.R.!.W.N.m.N.N.*.] ( y y q u h ; 4 3 4 & ",
"& & + + = 2 1 = 7 M ] q.~.!.^.^.W.Y.0.V 6.T.N.W.R.z.a.a.w.{ +.P.y y y k D.4 3 ; * & ",
"& + = 2 4 2 4 5 9 R ] =.Y.!.!.Y.6.S A C Z n.W.N.m.a.z.t.| ] &.x a a r x k ; 4 ; & ; ",
"1 1 2 0 0 5 0 4 9 N ] ' -.9.!.b.S C C A m {.`.m.N.R.z.1.] ] 4.h a e e s r ; 4 2 = & ",
"= & 1 4 5 r 5 4 G.[ ] ] @.B b.~.i.#.M O.-.|.#X^.T.v.=.] ] ] &.U.a r e y v ; ; = & & ",
"1 = 1 1 5 4 q 4 A.] ] ] @.M 5.b.^.c.s.l.T.OXoXY.<.=.] ] ] ] ] Q v i e G.S.= = & & @ ",
"= & 1 0 w 4 4 h ) ] ] ] ] ] :.B Z.@X].].].].n.,.>.r.} ] { ] ] ] F ~ ! ^ d ; ; ; 1 = ",
"& 1 2 4 e w j W +.] ] ] ] ]  .B ,. X&X#X'.T.,.O.l.x...] ] ] ] ] ] ] [ P = o & = 4 & ",
"2 2 4 0 5 t ) Q +.] ] ] ] ] X.y.l._.'.^.~.Y.X.] u.m...] ] ] ] ] [ R < = O o @ 4 0 ; ",
"2 4 r r r U.P.c D.] ] ] ] ] ] ;.E.XX^.~.].}.X.-.V.x...] ] ] ] [ L 8 & & O + 2 0 5 3 ",
"5 5 p c p z i i l $.] ] ] ] ] ..T..X.X}.C.d.y.V.z.3.{ ] ] ] ] F 8 & = = O = 2 2 5 0 ",
"p s c a a z r a s L +.] ] ] ] [ 2.f.8.>.p.T.m.w...{ ] ] ] ] +.A.= = = @ = 4 4 i i w ",
"c s s r c F.k r r z K.^ &.[ ] ] | w.j.M.N.u.*.' ] ] ] ] O.W < 5 & = ; = 4 0 p z a s ",
"n a a a y v h 4 w r s n v H.~ &.] ..3.3.*.' ] ] ] ] N L < 8 2 & o = O = 4 0 p i s s ",
"y a a q 3 w 1 3 y u s a w y s k F ] ] ] ] ] ] ] ] ! : 3 & ; & O O + & 2 4 4 4 i c a ",
"e y q 3 w w 3 4 r r y w y s w q j U [ ] ] ] +.D S.6 $ & & o O o o O = = & * 4 p a w ",
"a w w q 1 * 3 4 3 4 w r r y w e y x H.! U ! , - & o O O o O O o . o @ O + & 4 r y w ",
"a w 3 * $ & 1 3 3 5 y y w e w e e r 4 w e & o . o X + + o O o . X o O + + O 2 r e e ",
"e * $ O & = = & 5 y p e e w w w 4 q 3 ; & $ . o o & = = + + X O O X @ - ; = 2 3 3 3 ",
"q * * 3 ; ; & + 0 4 w w w w 3 q ; e ; * & o O O = - = + & + O X O @ @ = 1 1 1 1 3 4 ",
"* & 4 4 ; 2 = = 4 2 4 e ; ; 3 e 4 ; ; & $ = & O & o o O o % X X o o + @ * 1 4 3 3 * ",
"& = 2 2 5 4 5 2 5 3 3 4 ; 4 5 e ; & % o & = o + o o + + O o O + + + 1 & 2 4 1 1 3 & "
};
