/* XPM */
static char *_1707038093[] = {
/* columns rows colors chars-per-pixel */
"42 42 205 2 ",
"   c #2E2D35",
".  c #312E35",
"X  c #333136",
"o  c #36333B",
"O  c #39363D",
"+  c #3C383E",
"@  c #413B3F",
"#  c #363640",
"$  c #393741",
"%  c #3D3A42",
"&  c #3F3E49",
"*  c #423E44",
"=  c #413F48",
"-  c #7C3E4E",
";  c #454046",
":  c #494247",
">  c #45424A",
",  c #4A454C",
"<  c #4E484E",
"1  c #4F4946",
"2  c #514A4D",
"3  c #58474C",
"4  c #5E544C",
"5  c #464450",
"6  c #4B4750",
"7  c #4D4952",
"8  c #524D54",
"9  c #534F59",
"0  c #594F52",
"q  c #565056",
"w  c #595256",
"e  c #56515A",
"r  c #5B545B",
"t  c #604D4B",
"y  c #67554E",
"u  c #76594B",
"i  c #614B55",
"p  c #62595D",
"a  c #655858",
"s  c #715A56",
"d  c #6E6355",
"f  c #746559",
"g  c #7A6B5B",
"h  c #72634B",
"j  c #645B62",
"k  c #736A64",
"l  c #B5051B",
"z  c #BF161E",
"x  c #9F012A",
"c  c #A0032B",
"v  c #A60627",
"b  c #AA162C",
"n  c #B11C2B",
"m  c #933A3C",
"M  c #A02D3C",
"N  c #B03537",
"B  c #D0160C",
"V  c #C10211",
"C  c #C61114",
"Z  c #D31D11",
"A  c #C5020D",
"S  c #CC200E",
"D  c #D8280E",
"F  c #D93010",
"G  c #C93514",
"H  c #E22C05",
"J  c #EB3C05",
"K  c #E53904",
"L  c #904D2D",
"P  c #995634",
"I  c #BF4437",
"U  c #B45730",
"Y  c #DB471D",
"T  c #D15513",
"R  c #FF5D00",
"E  c #E14E1C",
"W  c #E7540F",
"Q  c #DC6715",
"!  c #FC6B02",
"~  c #F86608",
"^  c #FA6607",
"/  c #FC7503",
"(  c #FA7B01",
")  c #F97A09",
"_  c #E46613",
"`  c #FF7612",
"'  c #FD7C14",
"]  c #EB6A0B",
"[  c #C34D39",
"{  c #DE4D33",
"}  c #D7512C",
"|  c #CA6226",
" . c #D86923",
".. c #D06838",
"X. c #EE7F25",
"o. c #E9742F",
"O. c #96314E",
"+. c #875642",
"@. c #A3404D",
"#. c #8B6453",
"$. c #8B6756",
"%. c #807258",
"&. c #947956",
"*. c #9B6548",
"=. c #B1744C",
"-. c #A96D52",
";. c #B37250",
":. c #A9714D",
">. c #826660",
",. c #CB6040",
"<. c #DA7E42",
"1. c #D67540",
"2. c #CB7158",
"3. c #E16651",
"4. c #E57C41",
"5. c #EE8105",
"6. c #FA8300",
"7. c #F88E00",
"8. c #F98409",
"9. c #F79100",
"0. c #F89201",
"q. c #F99C0D",
"w. c #FB920E",
"e. c #E8851A",
"r. c #FE8219",
"t. c #FF8B1F",
"y. c #F99618",
"u. c #F9A115",
"i. c #FAA31B",
"p. c #DE803A",
"a. c #D59031",
"s. c #CF8C30",
"d. c #FE8C21",
"f. c #FA8724",
"g. c #F89B2A",
"h. c #EF8A30",
"j. c #F08E37",
"k. c #F99B36",
"l. c #E59A26",
"z. c #FCA222",
"x. c #FEA82F",
"c. c #F9A629",
"v. c #FCB22D",
"b. c #FEAA36",
"n. c #FEB33B",
"m. c #FDBA39",
"M. c #FEC13F",
"N. c #99845B",
"B. c #A78959",
"V. c #AE955F",
"C. c #B79757",
"Z. c #988566",
"A. c #B49A67",
"S. c #CC9541",
"D. c #E18747",
"F. c #E99250",
"G. c #D3A94E",
"H. c #C9A558",
"J. c #D1A950",
"K. c #D8B35E",
"L. c #CFA64B",
"P. c #F1AF4B",
"I. c #FDB746",
"U. c #FEBD43",
"Y. c #F5B64D",
"T. c #F8BC4A",
"R. c #E9BE5B",
"E. c #E3B959",
"W. c #F6B854",
"Q. c #EFA94A",
"!. c #DDB863",
"~. c #CBB57D",
"^. c #F1A970",
"/. c #EEB870",
"(. c #EFA87B",
"). c #FEC244",
"_. c #FDC44B",
"`. c #FFCA4E",
"'. c #F5C14F",
"]. c #FDC750",
"[. c #FFCB51",
"{. c #FFCE5B",
"}. c #F2C254",
"|. c #FFD15E",
" X c #EBC05B",
".X c #F5CE6A",
"XX c #FED264",
"oX c #FFD56C",
"OX c #FFCF70",
"+X c #FCD774",
"@X c #FFDA73",
"#X c #FFDC7C",
"$X c #FFDF82",
"%X c #FFDF8B",
"&X c #FFE085",
"*X c #FFE38C",
"=X c #FFE693",
"-X c #FFEA9C",
";X c #FEE496",
":X c #FFEDA3",
">X c #FFF1AD",
",X c #FFF3B4",
"<X c #FFF7BC",
"1X c #FFF8BE",
"2X c #FFF9C0",
/* pixels */
": = ; = > < > , , ; , , & ; > & $ $ + * : % % o o + O O + + + * @ + 1 % ; * > > ; ; ",
": : * = , < > > * ; 6 & 1 < > O O $ O ; ; % * o O @ + O + @ * ; + ; > % ; , , , > ; ",
"6 , > > 2 > = = * , 6 , 6 < > & + @ ; ; ; % + + + @ @ + * ; ; 1 < , ; * ; > % % % , ",
"> > % : : = ; % % ; > ; > 6 > > ; > > * + + % ; > ; + * * * : < , > & ; < 1 , , > > ",
"> % % = % = % % O & ; > 1 > 6 & > 1 ; ; ; ; > 2 1 ; * % + * * 1 6 > , 2 8 , 8 8 , ; ",
"% % O + % % O O O @ * > 6 & > d h N.J.G.L.L.G.G.G.J.J.&.4 + : : , > < q < q 8 7 , , ",
"% % % % + % % % @ @ > 4 N.V.C.!.[.|.|.|.|.#X=X*X@X[.`.[.E.C.g 8 < < 8 5 > < q 7 5 & ",
"% % O + O O % % o : N.K.+X-X>X*X*X>X,X>X,X,X2X1X=X|.`.`.`.[.R.Z.r < , > , q 8 6 & % ",
"% O o O X o + O 1 V..X&X>X1X1X1X1X1X1X1X1X1X2X=X{.[.[.[.[.[.`.!.k > 6 > 6 8 7 5 > % ",
"O o o o o O o 1 H.XX:X1X1X1X1X1X1X1X1X1X1X1X>X@X[.[.[.[.[.[.`.[.K.k 5 , 8 7 5 & % % ",
"+ o o O o . + N..X-X1X1X1X1X1X1X1X1X1X1X1X1X-X{.`.[.[.[.[.[.[.[.[.A.r 7 > % # O % % ",
"o o X   . X y !.*X1X1X1X1X1X1X1X1X1X1X1X1X,X@X[.[.[.[.[.[.[.[.[.[. Xk & * % % % % % ",
"+ O o . X + V.@X>X1X1X1X1X1X1X1X1X1X1X1X,X*X{.`._.[.[.`.`._.v.v._.'.B.e , = % O + O ",
"% + X   . %.}.oX>X1X1X1X1X1X1X1X1X1X1X1X=X{._.z.w.v.`.[.m.q.0.0.i.c.a.p , % $ O + + ",
"+ o     @ B.].oX,X1X1X1X1X1X1X1X1X1X1X1X*X[.n.) 6.u._.).u.0.9.9.9.9.s.r 6 % > ; + O ",
"+ o X O h R.`.|.#X-X-X,X1X1X1X1X<X,X<X1X%X_.d./ 7.u.v.q.9.9.9.0.9.9.e.#.8 > , % % O ",
"O O o O d  X[.[.`.|.&X<X1X1X<X:X$XXX#X$X|.U.` / 0.0.0.9.0.q.q.9.9.9.6.=.7 , > ; % * ",
"@ o o O d  X`.[.`.|.:X2X<X-XoX{.`.`.`.[.`.`.k.( 7.0.0.q.i.x.y.6.7.7.( =.5 , & > > , ",
"* + + + g  X[.[.`.|.-X-X@X{.`.[.[.].Y.Y.W.[.n.8.7.0.u.n.t.^ ^ R ! / ^ -.7 > , > > > ",
"* O + $ d  X[.[.[.[.|.[.`.[.].T.D.[ b b [ Q.].g.( 7.z.t.R R R R R ~ =.i q 7 , , , ; ",
"# + * + y K.[.[.[.[.`.[.P.D.N N v x x x c D.`.U.r.( w.) R R R R ^ -.9 5 5 = , , > % ",
"$ * % + * s H.W.'.[.[.'.I x x x x x c x x <.oXoXt.! / ! ^ ' ` R ..s 9 5 , , = = % % ",
"+ + * : , : a @...].[.].1.b c x x x c v l D.:X*Xd.r.d.n.U.n.f.| $.e 7 7 5 * : = % ; ",
"; ; > 2 7 7 i O.I Y.[.[.{.o.C l v l V A Z F.:X-XOX{._.).v.l.&.9 e 7 7 8 6 = , = > % ",
"% % ; , < 8 w O.v Y k.[.[.T.o.J J J J W j.{.:X,XoXx.q.T | $.9 r 9 9 7 7 5 = = = * * ",
"> ; ; > < , 6 i M Z _ o.Y.@X.Xc.r.t.n.`.[.#X:X{.q.5.G l D -.r e 9 9 5 5 = % * % O O ",
"; + ; , 8 , , , y U T b ,./.:X-X#XoXoXoX#X=XXXg.Q S C W R ;.9 7 7 5 = = = * = * * * ",
"+ ; 1 , 6 6 6 8 8 u P b c z F.:X<X<X,X:X@X`.l.| b l H ( (  .s & = & = * % # * * : * ",
"> : , 2 < < 6 8 8 7 g | S D f.@X*X:X$X[.[.U.a.a u z D ( 6.~ $.& % % % # O o * : 7 * ",
"> 1 8 q < 8 8 q 9 6 f a./ ` I.&XoX[.|.[.[.n.S.e = N B ] 6.~ #.& * * % % O @ * 0 7 = ",
"< 8 w r e 8 8 8 8 9 0 f a.u.oX-XoX`.`.`.+X$X~.9 = N G ( 6.~ #.$ * % * * O * = , < 7 ",
"w w p e 9 8 6 r 8 8 r j C.m.oX&X|.oXoXT.;X^.2.m U W ( 6./  .y % * @ * * * , : 0 0 8 ",
"p p e 9 9 7 6 8 9 9 r j B.I.|.=X&XW.(.{ { Y E j.y.6.! _ U y * ; % ; = % < 8 8 p 0 r ",
"j e 9 9 9 9 6 5 6 8 p r r &.4.3.{ D Z D X.I.i.y.`  .P t > % : % + % + * : 8 0 9 r p ",
"9 9 9 5 > 7 > > 8 w r e 6 k E K E E h.v.z.x.)  .U t $ * % % % O O + + : < , 5 w p e ",
"9 9 5 5 6 7 = , 8 8 9 7 9 j *.e.x.g.w.r.] | +.3 & % O O % O O o o o ; ; % * , w 9 6 ",
"9 6 7 6 = & > : = 6 7 8 8 8 7 u P P P L u = # O # o O O o O + o X o * O O + : 8 9 6 ",
"9 6 > % # % ; > = 6 8 8 7 7 7 7 7 9 = = = $ X   o o + + o o X X X X O @ % O : 8 7 6 ",
"7 = # $ % * * % 3 q 0 7 7 6 6 7 6 , = = % # . O O + * * + + X X O X @ ; * @ 1 , 5 5 ",
", & & = = = * O 8 6 7 6 6 6 5 = = 7 = % % # O O * ; * + * + O o O @ @ * : = * = > > ",
"= % : , : = * = 1 = 6 6 = = = 3 , = = % # * O O % O O O O O o X o O O * * = < : = = ",
"% = : , , , < : , , = 6 = , < 8 = % $ o * = O O X X O O O O O O @ @ * * : : = = > % "
};
