/* XPM */
static char *_1707038117[] = {
/* columns rows colors chars-per-pixel */
"42 42 217 2 ",
"   c #2E2D34",
".  c #312E34",
"X  c #343136",
"o  c #36333A",
"O  c #39363C",
"+  c #3C383E",
"@  c #5B392C",
"#  c #433C3E",
"$  c #483838",
"%  c #5D3E34",
"&  c #6C222B",
"*  c #74292D",
"=  c #683D2A",
"-  c #632536",
";  c #73322E",
":  c #71132B",
">  c #564439",
",  c #72452A",
"<  c #654134",
"1  c #634A38",
"2  c #774B37",
"3  c #6D5C3E",
"4  c #705939",
"5  c #7E663B",
"6  c #363641",
"7  c #383741",
"8  c #3D3A42",
"9  c #3F3E49",
"0  c #423D44",
"q  c #413F48",
"w  c #4A3C43",
"e  c #503944",
"r  c #642F41",
"t  c #454046",
"y  c #494246",
"u  c #45424A",
"i  c #4A454C",
"p  c #4E484E",
"a  c #5A4C45",
"s  c #534B4D",
"d  c #564B44",
"f  c #5D5149",
"g  c #464550",
"h  c #4A4751",
"j  c #4D4952",
"k  c #524D54",
"l  c #594E52",
"z  c #534F59",
"x  c #565056",
"c  c #5A5354",
"v  c #56515A",
"b  c #5B545B",
"n  c #675847",
"m  c #62595E",
"M  c #645854",
"N  c #76534F",
"B  c #766448",
"V  c #5E5861",
"C  c #655C63",
"Z  c #B90616",
"A  c #BD2E0D",
"S  c #9F012A",
"D  c #9D0924",
"F  c #AA0122",
"G  c #A1032B",
"H  c #A70827",
"J  c #A9152E",
"K  c #AD1E30",
"L  c #8E3927",
"P  c #B62627",
"I  c #BA3829",
"U  c #AE2130",
"Y  c #B83534",
"T  c #AB2E29",
"R  c #C8060D",
"E  c #D10A07",
"W  c #C81B0E",
"Q  c #D61708",
"!  c #C81111",
"~  c #DE2505",
"^  c #DF3505",
"/  c #DD3416",
"(  c #CD2E15",
")  c #E42C04",
"_  c #E73903",
"`  c #E33A18",
"'  c #C83627",
"]  c #D93721",
"[  c #89591F",
"{  c #BB4C0F",
"}  c #BD4E10",
"|  c #A4531B",
" . c #B75712",
".. c #AC4A13",
"X. c #BF6D12",
"o. c #885B2C",
"O. c #A6572F",
"+. c #8E632C",
"@. c #966A34",
"#. c #A26D25",
"$. c #B1722D",
"%. c #D6570A",
"&. c #D44917",
"*. c #D2430A",
"=. c #EE4104",
"-. c #E64D07",
";. c #F44B01",
":. c #E75804",
">. c #FA5500",
",. c #FD5D00",
"<. c #E5591E",
"1. c #DD7208",
"2. c #CE6F11",
"3. c #FE6400",
"4. c #FC6A00",
"5. c #FF6C0B",
"6. c #F56604",
"7. c #EE7905",
"8. c #F37601",
"9. c #FC7400",
"0. c #FB7B01",
"q. c #FA7B06",
"w. c #F46213",
"e. c #FE7510",
"r. c #EB6D0E",
"t. c #D84725",
"y. c #C24A38",
"u. c #DB4331",
"i. c #E45429",
"p. c #DA7631",
"a. c #EA6D25",
"s. c #E77A2B",
"d. c #F87828",
"f. c #EF7435",
"g. c #A13040",
"h. c #8C764A",
"j. c #D07847",
"k. c #E2634D",
"l. c #E77D57",
"z. c #BC8536",
"x. c #BD842E",
"c. c #D08113",
"v. c #DA8206",
"b. c #EA8A04",
"n. c #F98B00",
"m. c #F88500",
"M. c #F79100",
"N. c #F89201",
"B. c #F89909",
"V. c #FE8118",
"C. c #F99F13",
"Z. c #F69519",
"A. c #E7911D",
"S. c #FAA216",
"D. c #DE9229",
"F. c #CC8327",
"G. c #F7862C",
"H. c #F89A23",
"J. c #F18C37",
"K. c #EC9834",
"L. c #F6943A",
"P. c #EC843F",
"I. c #FBAA22",
"U. c #FAA527",
"Y. c #FCB22D",
"T. c #FFA938",
"R. c #FDBB3B",
"E. c #FEB139",
"W. c #EAA328",
"Q. c #9F8244",
"!. c #A68745",
"~. c #B9974A",
"^. c #DD8342",
"/. c #C89B4F",
"(. c #EB9A44",
"). c #F5975A",
"_. c #EB964E",
"`. c #D2A94E",
"'. c #D5AC51",
"]. c #DDB558",
"[. c #F5A747",
"{. c #EAB648",
"}. c #FEBD45",
"|. c #FAB94B",
" X c #EEAB50",
".X c #F5B750",
"XX c #DCBC6C",
"oX c #EFB565",
"OX c #FDC54D",
"+X c #FECA4E",
"@X c #F9C147",
"#X c #FFCB51",
"$X c #FFCE59",
"%X c #F8C650",
"&X c #FFD15F",
"*X c #F7C566",
"=X c #FFD365",
"-X c #FED56B",
";X c #FACC75",
":X c #FFDA75",
">X c #FFDC7C",
",X c #FBD379",
"<X c #E8C66C",
"1X c #D9C889",
"2X c #F9D985",
"3X c #FFE184",
"4X c #FFE28A",
"5X c #FFE592",
"6X c #FFEA9B",
"7X c #F7D4A4",
"8X c #FFECA3",
"9X c #FDEDAC",
"0X c #FFF1AE",
"qX c #FFF3B3",
"wX c #FFF7BB",
"eX c #FFF8BE",
"rX c #FFF9C1",
/* pixels */
"u t t q u p u i i t i u q u u q 6 8 + 0 t 0 + o o + o O + + + 0 + 8 y 8 t q q t t q ",
"u u t 0 i p i u q t i u p i u + O 6 O 0 0 0 0 o O 8 + + + 0 0 t 0 0 y 0 0 p y i i t ",
"p i u t h u 8 t q i i u i p g q + 0 t t t 8 8 + + 8 > + 8 t t i p y t 8 t t q q q p ",
"u t 8 u i t t 8 8 t u u u i i q t y t 0 + + 0 y y y 6 8 8 t y p h u q t p i y i t t ",
"u 8 8 q 8 t 9 6 O t t u i u i t t i q n B ~.`.'.'.`.`.Q.3 > 7 i i u i s p p j s u q ",
"8 8 O + 8 8 O O O 0 0 t i 9 i l d h.~.%X%X+X+X#X#X#X%X+X%XQ.f p i g j c j x x j i i ",
"8 8 8 8 8 8 8 8 + 0 t i u f h.'.<X&X+X+X+X#X#X#X#X#X+X#X#X%X%XQ.f h j g u j x j h 9 ",
"8 8 O + O o 8 8 o O y a B 1X8X8X0X0X5X&X+X#X#X#X#X#X#X#X$X#X#X%X/.n p u i x k h 8 8 ",
"+ O o O o o + o O + 3 '.=X3X4X4X6XeXrX8X=X+X#X+X#X@XY.I.I.I.S.U.@X!.s u i s j g 9 8 ",
"O O o o X o o X + 5 <X8XqXqXqX6X:X6XrXwX:X+XOXR.I.B.M.M.M.M.M.M.B.W.5 i s j g 9 q 8 ",
"8 o o O o X o   B >X0XwXeXeXeXrX0X5X2X>X$XE.C.B.N.N.N.M.N.N.M.M.M.M.2.1 g 8 7 7 0 8 ",
"o o X     . X n 1XeXwXwXeXrXqX6X2X-XR.E.S.q.n.N.N.N.M.m.M.M.N.M.M.B.b.$.s + 8 8 + + ",
"o O o . X   $ <XwXeXeXwXeX8X-X$X#X+X#X+XE.e.m.m.0.0.4.0.M.n.N.N.N.N.N.D.M t 8 O O O ",
"0 + X   X X 3 2XeXeXeXeXeX5X:X6X6X3X$X#X}.w.,.,.,.3.9.0.q.Z.N.N.N.N.N.D.M 8 + O + + ",
"+ o     . s XX8XeXeXeXwXeXeX0X2X*X.XOX#X|.G.,.,.3.9.4.e.H.S.B.N.N.N.b.@.l 8 t t 8 O ",
"+ o X o O f XX6XeXeXeXwX6X4XoXY J J Y (.#X#Xa.=.,.3.5.U.B.M.M.M.N.N.v.1 j t u q 8 O ",
"+ O X O O c ].=X5X8X4X=X$X^.U G S S S K j.#X^.` >.,.5.H.n.N.N.N.b.c.+.s g i i 9 q 0 ",
"8 o o O o c ].$X#X#X#X+X[.] F G S S S S U  X,Xk.) >.,.,.5.4.9.9.2.n z g i g 9 u t i ",
"q + + O > c /.^.{.#X#X#XK.Q R G S G S S y.*XqX7Xk.) ;.,.>.>.=.w.2.f v g j u i u u t ",
"q O O 8 O x U G ' (.+X#XT.=.Q R F F F U _.8XqX6X;Xl.i.d.w.<.J.H.$.c v j k i i i i t ",
"O O 8 + O y r : Z Q L.$X}.e.,._ ~ E ] (.$X:X-X#X#X-X,X-X$X}.W.#.f v h g u 9 u u i 8 ",
"8 8 + 8 0 y y 0 - W G.4X>XE.G.5.d.).*X#X#X+X#X#X#XOXR.Y.Y.A.+.a j z z g g i u u 9 6 ",
"8 + t y u y p p 8 T [.6XwX>X$X;X-X-X$X+X}.E.U.C.C.C.B.7.1.o.k x v v j j g 9 u t 0 t ",
"t t t s p p k u 0 N ;X|.|.@X+X#X#X#X+XT.5.4.b.b.7.*.^ ~ -.| l j v z j j h t i t q + ",
"8 8 t i p k p i i s x.6.^ 8.I.+X+X#X+XT.5.6.[ d d - *.8.n.1.2 m v v j h g 9 t 9 8 0 ",
"t t t t p i g i i i , -.R ! %.U.+X+XR.Y.V. .a h i i +.b.N.n.| l v j g i 8 9 t 8 + + ",
"t 8 t i j i i i p i > X.( H P A.OX@XC.<.&.F.4 i i t # X.N.m.%.2 j g u 8 t q t 8 0 0 ",
"+ t u p k j j j p u u #.U.Z.U.U.Y.Z.<.p.K.p., i t t u 1 b.n.4.%.< 9 9 9 8 6 8 t i 0 ",
"t i i p i i j x x j j n z.p.a.a.a.t._.K.y.D - u 9 9 > $ b.n.3.,.| $ 8 8 O o # i s 8 ",
"t y x x p x j x k h k k > &.&./ I &.$.L F Z & y u u > | 8.0.3.,.*.$ + 8 o + y s p u ",
"p p c b v x x j z z z z M $.~.$.O.@.d - ! _ ; t t B {.r._ ,.,.{ % + 0 0 O 0 y i h h ",
"c b m v v j j b j k v C V V C V v i e D Q ;.A - B j./ ) _ ,.:.= 0 0 0 0 0 i i l x k ",
"m b b z v j h k k v b V v V v v h h $ Z E Q u.).f./ ) >.,.%.= y 8 0 0 0 p s l b b b ",
"C v v v z z h g j k b V v z z h h u * ! u.t.f.)./ ) >.3.} % y q O 0 O 8 i p x x b b ",
"z v z g 9 j t u k v b v j v z g p w I (.L.d._ ^ :.>.3.:.= 0 q 6 O + 0 y p i i v m v ",
"z z g u j h u i k k k j v v j g i $ T <.=.:.m.n.9.,.%.= + O o o o O 0 0 9 8 i x v h ",
"z g j g q 9 u i u i h k z z h j k k a } 8.7.0.9.,.{ @ + o O O X . o # O O 8 u l k j ",
"z j g 8 6 8 t u u p k v g j j j j k i e 2 < = @ = O O O o o X X . o O 0 8 O u l j h ",
"j 9 6 O 8 0 0 8 p x x j j g g h u i g q 7 6 . X O # # 0 + + o X + o # w 0 0 y u u g ",
"i 9 9 u 0 q 8 + p i j h h h u i q j u 8 8 o O O 0 0 0 8 8 8 O o + + + # t q t t u i ",
"q 8 i i u y q t p u i h t t u j u u 9 8 6 q 8 O O O O O O o o X O o + 8 8 t i u t 9 ",
"+ q y i i i i u i u i i q u p j t 8 7 o + 0 O + o o O O O O O O + + t 0 i i t t u 8 "
};
