/* XPM */
static char *_1707038141[] = {
/* columns rows colors chars-per-pixel */
"42 42 214 2 ",
"   c #2E2C33",
".  c #312E33",
"X  c #353136",
"o  c #36333A",
"O  c #3A363C",
"+  c #3C383E",
"@  c #3F3037",
"#  c #771A1F",
"$  c #6B1D22",
"%  c #751F24",
"&  c #46282D",
"*  c #5C242A",
"=  c #54272D",
"-  c #4E2C31",
";  c #582B31",
":  c #4C3237",
">  c #43343B",
",  c #4B343A",
"<  c #433A3E",
"1  c #4A3B3F",
"2  c #59343B",
"3  c #6C252B",
"4  c #65252B",
"5  c #762025",
"6  c #77262D",
"7  c #6C2C32",
"8  c #662F35",
"9  c #762C32",
"0  c #7C2D31",
"q  c #61333A",
"w  c #6A393E",
"e  c #67333A",
"r  c #78373C",
"t  c #363641",
"y  c #393741",
"u  c #3D3A42",
"i  c #3F3E49",
"p  c #423D44",
"a  c #413F48",
"s  c #4C3C45",
"d  c #533C44",
"f  c #5B3D44",
"g  c #6F3C43",
"h  c #703E43",
"j  c #454046",
"k  c #494247",
"l  c #45424A",
"z  c #4A454C",
"x  c #4E484E",
"c  c #52434A",
"v  c #52494E",
"b  c #5B4348",
"n  c #4B4751",
"m  c #4E4952",
"M  c #454451",
"N  c #534D54",
"B  c #534F59",
"V  c #594F52",
"C  c #565056",
"Z  c #585157",
"A  c #56515A",
"S  c #5B545B",
"D  c #704249",
"F  c #62595E",
"G  c #60575B",
"H  c #6A4B4E",
"J  c #645B62",
"K  c #9D0E13",
"L  c #85181D",
"P  c #8B171C",
"I  c #94161A",
"U  c #9C161B",
"Y  c #9B181E",
"T  c #AE0B0F",
"R  c #BE070B",
"E  c #B40B0F",
"W  c #BB090E",
"Q  c #A50D12",
"!  c #AD0E12",
"~  c #AF011F",
"^  c #B40C11",
"/  c #BD0915",
"(  c #B5091D",
")  c #AC1015",
"_  c #A31419",
"`  c #A11014",
"'  c #B81F1E",
"]  c #9F012A",
"[  c #8B1D22",
"{  c #841F24",
"}  c #A10129",
"|  c #AC0723",
" . c #A7112D",
".. c #83242B",
"X. c #872126",
"o. c #902126",
"O. c #AD2030",
"+. c #B32B32",
"@. c #C4060B",
"#. c #CD0509",
"$. c #C1080C",
"%. c #CE090A",
"&. c #CC0207",
"*. c #D10D09",
"=. c #D10A07",
"-. c #CC140C",
";. c #D41307",
":. c #D41C07",
">. c #D2130B",
",. c #D1180E",
"<. c #D91E08",
"1. c #C20512",
"2. c #C0171E",
"3. c #D31A10",
"4. c #DC2505",
"5. c #D9250C",
"6. c #D92909",
"7. c #DC3507",
"8. c #D52414",
"9. c #D82D16",
"0. c #D63314",
"q. c #EB3A03",
"w. c #E63808",
"e. c #C82621",
"r. c #D83D27",
"t. c #DC4818",
"y. c #E44505",
"u. c #F74F01",
"i. c #F14D08",
"p. c #E95C0A",
"a. c #F65102",
"s. c #F85200",
"d. c #F65B01",
"f. c #FC5B00",
"g. c #F65709",
"h. c #F05711",
"j. c #E34F14",
"k. c #EE6B01",
"l. c #EA610C",
"z. c #E96103",
"x. c #FE6301",
"c. c #FC6B01",
"v. c #F66505",
"b. c #EF7204",
"n. c #F57B01",
"m. c #FB7A01",
"M. c #F97300",
"N. c #E86B19",
"B. c #F67614",
"V. c #D84A25",
"C. c #D95A27",
"Z. c #CD522C",
"A. c #E45E2C",
"S. c #E45727",
"D. c #E05738",
"F. c #D4713F",
"G. c #EA6B2E",
"H. c #E87326",
"J. c #E97936",
"K. c #EF692E",
"L. c #D57444",
"P. c #E97A51",
"I. c #F98200",
"U. c #F98C00",
"Y. c #F68205",
"T. c #F79100",
"R. c #F89201",
"E. c #F99516",
"W. c #FD8818",
"Q. c #FAA31A",
"!. c #EA8A24",
"~. c #F88C22",
"^. c #F79D27",
"/. c #FA9627",
"(. c #EB883A",
"). c #F39639",
"_. c #F48E33",
"`. c #FBA921",
"'. c #FBB22F",
"]. c #FBA835",
"[. c #FCB639",
"{. c #DD8A50",
"}. c #E58946",
"|. c #F2974E",
" X c #F7A747",
".X c #FBBA49",
"XX c #FFBE5A",
"oX c #EAA453",
"OX c #E99D68",
"+X c #F19F60",
"@X c #FCBF66",
"#X c #F3AE6C",
"$X c #FEC445",
"%X c #FDC54C",
"&X c #FEC94E",
"*X c #FFCC52",
"=X c #FFD15D",
"-X c #FECC63",
";X c #FCCB6A",
":X c #FED66F",
">X c #FFD771",
",X c #F3C577",
"<X c #FEDE85",
"1X c #F8C782",
"2X c #FFE185",
"3X c #FEE38D",
"4X c #FFE692",
"5X c #FEE79B",
"6X c #FEECA3",
"7X c #FEEDAC",
"8X c #FFF1AD",
"9X c #FFF4B3",
"0X c #FFF7BC",
"qX c #FFF8BF",
/* pixels */
"k j j l l x l z z l k l l l l i y u O u k u u O X u o O + + < p p + k i p p p l l p ",
"k l p p z x l l p l z l x z l u O y + p p p p o O + + + + p 2 p u p k p p z z z l j ",
"x z l l m l i p p z z k z m l i + p j p p u u p + p < + + 1 Y 7 v k j p k j p p p x ",
"l l u l z p l u u l l l l z z l p z k p O > : , 3 5 * u j 1 ^ E 8 l p p v z k z l l ",
"j i u p u p i + O p j l x l z l j z p : * ` ^ ^ %.#.R # - 5 R =.U s s N N z N N z p ",
"u u y + u u O O O p p l k i z z z 2 P ^ $.#.#.#.#.#.#.#.R @.&.=.#.{ n C N N N m z l ",
"u u u u u u i u p u p z a l x z s _ =.#.#.#.#.#.#.#.#.#.#.#.#.#.#.^ b z l x N N n i ",
"u u O + o O + + o + k l u z k x e @.=.&.#.#.#.#.#.#.#.#.#.#.#.#.#.^ f l z N B n i u ",
"+ o o O X O + O O O p p k l N v 9 #.&.&.=.&.&.=.#.#.#.#.#.#.#.#.#.! d l z N m M l u ",
"O O o O X O X X O O + + u p q U / #.&.&.%.,.,.,.>.#.#.#.#.#.=.#.@.X.z x N m l i i u ",
"u X o O X X X X X X O O : 5 ^ &.=.%.0.G.). X X X(.V.#.&.#.#.#.#./ w n n l u t y u u ",
"o o X   . X X X O X $ Q ^ &.#.3.S.J. X*X*X*X*X&X*X.XG.8.#.#.#.#.^ f n l p u u u + + ",
"O O o   X   . X < $ R #.#.%.r.#X<X5X<X=X*X*X*X&X*X*X*X).8.#.=.#.$.r n n k p u O O O ",
"u u o   X   X + - R &.=.*.J.;X5X4X6X0X<X*X*X%X[.`.`.`.'.J.=.#.#.#.o.n m n i y O + + ",
"u o       . X O - @.=.*.J.3X9X9X7X3X8X3X&X'.Q.R.T.T.R.R.E.6.#.#.#.R 9 z n u l p u O ",
"+ X X o O O O < - @.=.D.6X0XqXqX9X4X=X.XE.R.T.U.U.R.R.R.R.z.#.#.#.#.^ 2 m l z p u O ",
"O O X O o + + & $ @.8.1XqXqXqX5X:X-X*X[.W.I.m.m.m.R.R.R.R.Y.:.&.#.#.#...n z z i i p ",
"p X O O X @ * ! &.@.S.5XqXqX0X4X3X>X=X*XB.x.x.c.m.E.R.R.R.Y.:.&.#.#.#...l M l s l k ",
"u + + O < L W #.#.#.|.9XqXqX9X6XOXL.}.&X).g.x.c.W.E.R.R.R.z.=.#.#.#.E 7 8 s n l l j ",
"p + + + 4 @.#.#.#.%.(.2X8X4X>X{.O.]  .L..XS.g.x.E.U.R.R.Y.7.#.#.#._ e d 7 d z z z l ",
"y + u + L #.#.#.#.%.(.*X-X*X X' ] ] ]  .oXOXw.g.c.M.M.n.6.&.&.%.$.w q 3 a l l l z u ",
"u u u + P E W #.#.#.C.L..X*X].,.~ ] ] +.,X7X{.w.f.a.h.B.4.&.#.&.@.[ ^ U s l l j i u ",
"u + p b [ 2 9 @.#.#.( | V.XX[.i.5./ ' }.3X<X;X+X X_.^.p.*.#.#.%.#.#.#._ z a z l u j ",
"j j j H 9 x d ! #.#.#.1.,. X>X/.v.K.|.%X*X&X&X*X$X].l.-.#.#.#.#.#.#.#.X.n a z j i + ",
"u u j z c N x 8 $.#.=.&.e.@X6X-XXX-X=X.X].Q.E.E.b.p.*.#.#.#.#.#.#.#.#...z i l i u p ",
"j j j k x z z k U &.#.&.r. X_.[.*X*X&XW.M.k.y.7.y.d.;.#.#.#.#.#.#.#.#...i u p + u + ",
"j u j x m z z z 9 $.#.#.3.p.4.p.'.*X$X/.v.,.&.4.I.U.q.#.#.#.#.#.#.#.&.6 a i p i j u ",
"+ j k z N x m m x [ @.#.#.y.0.' !.%X^.N.N.:.#.>.b.R.a.;.#.#.#.#.#.R P > u O u l x u ",
"k k z x x n m C N c X.$.%.6.!.!./.^.H.(.C.-.#.#.y.U.x.q.=.#.#.#.$.4 < + + o < z v i ",
"z k C C z N m C B n c 9 E *.t.C.C.V.H.Z.( 1.#.#.w.U.x.s.;.#.#.#.Q , u u o + k v x l ",
"x x Z S S N N N N N N N h Y 3.p.j.V.0.^ <.=.%.A.l.d.f.y.=.#.#.^ ; + j j O j k z z x ",
"Z Z F A B m m S N N S J A h %.>.-.%.$./ q.<.V.A.y.a.u.;.#.#.! ; p u u u < z k C C N ",
"F S A A A m n B m A S F A D @.#.#.&.&.%.8.P.K.w.u.u.<.#.#.$.3 j + j p p z v C S S S ",
"J S A A B B M n m N S S B 6 @.#.#.#.3.A.K.S.j.u.s.4.#.#.&.P s u O + O p z x Z C S S ",
"B B A l a m a l C S S A s ^ #.#.#.#.9.H.p.k.c.s.w.#.#.#.&.I : * # * u k x z z Z F S ",
"B B M l m m a z m C m m B r ) #.#.#.;.i.c.M.d.w.=.#.#.#.&.&.Q R Q - p j u i z C A n ",
"B M n M l i z l l z n N B B d U ^ ! ! -.;.;.;.=.#.#.=.&.=.&.$.P & X p o + u k N m n ",
"A m M u t u j z l x N N m m n c c c s 4 U 1.#.%.#.R Q ) K # = . X X o < u o k N B n ",
"m a t O u p p u N N A m n n n n l n l a < w r r r w > > O O o X O O < j j < z z l l ",
"M i a l u j u + v z m n n n l l a m l i u o O O s j j u u + O X O + + p j j j j l n ",
"a u k z a k p p x l n n a a l n z l u u y p u O u o O y O O o . O X + p i j z l j i ",
"u a k k x z x k z l k z a z x N l y y O y p O + o o O O o O O + + + j + k z j j l u "
};
