/* XPM */
static char *_1707038198[] = {
/* columns rows colors chars-per-pixel */
"42 42 160 2 ",
"   c #2E2D34",
".  c #312E34",
"X  c #332F38",
"o  c #343136",
"O  c #36333A",
"+  c #39363C",
"@  c #3C383E",
"#  c #413439",
"$  c #4C353C",
"%  c #433A3F",
"&  c #4B383D",
"*  c #543136",
"=  c #54353C",
"-  c #58353A",
";  c #7A292F",
":  c #612E34",
">  c #7C2F34",
",  c #63363D",
"<  c #733136",
"1  c #7C3136",
"2  c #713238",
"3  c #7D343B",
"4  c #7C393E",
"5  c #363641",
"6  c #383741",
"7  c #3D3A42",
"8  c #3F3E49",
"9  c #423D44",
"0  c #493F45",
"q  c #413F48",
"w  c #543A42",
"e  c #5B3B43",
"r  c #653A42",
"t  c #693C43",
"y  c #733D43",
"u  c #7C3C43",
"i  c #454046",
"p  c #494247",
"a  c #45424A",
"s  c #4A454C",
"d  c #4E484E",
"f  c #554147",
"g  c #51454C",
"h  c #5A444B",
"j  c #514A4E",
"k  c #454451",
"l  c #4B4751",
"z  c #4E4951",
"x  c #534C54",
"c  c #5A4E54",
"v  c #534F59",
"b  c #565056",
"n  c #585157",
"m  c #56515A",
"M  c #5C545B",
"N  c #62444B",
"B  c #6D494F",
"V  c #734147",
"C  c #7F4147",
"Z  c #73444B",
"A  c #794349",
"S  c #624C53",
"D  c #784B53",
"F  c #61565C",
"G  c #6C545A",
"H  c #62595E",
"J  c #635B63",
"K  c #A9161C",
"L  c #AC191E",
"P  c #BC1216",
"I  c #B7161E",
"U  c #BC1519",
"Y  c #B41A1F",
"T  c #BB1B1D",
"R  c #9F1C21",
"E  c #A20429",
"W  c #A21E23",
"Q  c #AD1F25",
"!  c #B01123",
"~  c #B31D22",
"^  c #8D262A",
"/  c #9E2329",
"(  c #922A2E",
")  c #9F292F",
"_  c #832A31",
"`  c #8C2D33",
"'  c #952D33",
"]  c #9B2B31",
"[  c #8C3037",
"{  c #84363C",
"}  c #8D333A",
"|  c #833A3E",
" . c #8F3A3F",
".. c #933037",
"X. c #9B3034",
"o. c #94353A",
"O. c #AE2025",
"+. c #AB242A",
"@. c #A3292E",
"#. c #AA2B2F",
"$. c #A52C32",
"%. c #A82D32",
"&. c #CD0509",
"*. c #CB090D",
"=. c #D30F07",
"-. c #D10C08",
";. c #CF120B",
":. c #D61407",
">. c #D41A07",
",. c #DA1B06",
"<. c #D21108",
"1. c #D91D08",
"2. c #C30E12",
"3. c #CA0C10",
"4. c #C31014",
"5. c #C71D11",
"6. c #C11519",
"7. c #DE2405",
"8. c #DB2F06",
"9. c #D8230A",
"0. c #DB340B",
"q. c #DD3C0E",
"w. c #CC2314",
"e. c #C5261A",
"r. c #D22C12",
"t. c #D43412",
"y. c #E02605",
"u. c #E42D05",
"i. c #E73404",
"p. c #E93504",
"a. c #EB3D03",
"s. c #E53D09",
"d. c #E74103",
"f. c #EF4102",
"g. c #E54804",
"h. c #EF4B06",
"j. c #E5450B",
"k. c #E94508",
"l. c #E5480B",
"z. c #EC4B08",
"x. c #F14502",
"c. c #F44C02",
"v. c #EC5202",
"b. c #F45303",
"n. c #F95401",
"m. c #F65803",
"M. c #FE5D00",
"N. c #F56103",
"B. c #FD6300",
"V. c #F76B00",
"C. c #FC6A00",
"Z. c #F57002",
"A. c #FC7200",
"S. c #FB7B00",
"D. c #823D46",
"F. c #864249",
"G. c #FA8400",
"H. c #F88C00",
"J. c #F79200",
"K. c #F89200",
/* pixels */
"p i i q i d a s s a p a a a a 8 6 7 + 9 p % @ O O @ + + @ @ @ i % @ s 9 q 9 q p i i ",
"p a q q s d a a 8 a s a s s a @ + 6 + i 3 1 i O + @ @ @ @ @ % i 7 q p 7 9 s p s a i ",
"d s a i d a 8 i 9 p s a d d a 9 @ 9 i p , f @ @ @ % 9 @ 7 i p s j p i 9 p i q q 8 d ",
"a a 7 a a a i 7 7 a a a a s k a i p p 9 7 @ % 9 p i @ 7 % i p d s a q i j s p s i i ",
"i 8 7 q 8 i 8 + + i i a d p d a a s 8 i 9 9 p g d i 7 @ 7 % a s s s a x x d j x a i ",
"7 7 + @ @ @ + + + i 9 a a 8 a s a s p p 7 # < V N i 7 9 7 @ i s s a x x x x x z s a ",
"7 7 6 9 @ 7 8 7 @ @ i s a a d s s d d s w / 3 N h s i p @ % s j d d z s a l v z z 8 ",
"6 @ + 6 + + @ @ O @ i a 7 s a d d N Z [ Y ` g p s d d i p s j x x z z a s x v z 8 5 ",
"7 + + + o + @ + + @ % 9 a i j S ] 6.3.-.&. .s g d j s q i s s j z a l a z v z k q 9 ",
"+ + O O + o o o + O @ @ 7 i d  .&.&.&.&.&.~ { y ' X.` - 7 d s s a x a s z d a 8 9 7 ",
"6 O O O o o + o + O + + % p 4 T &.&.&.&.&.&.&.3.&.&.&.+.f s s z x d z s s 7 5 7 7 7 ",
"O O o   . o o o o O + @ p [ *.&.&.&.&.&.&.&.&.&.-.&.&.2.y s s x v z l a q 6 7 6 7 6 ",
"@ + O . o   . o % + + % t 2.&.&.&.&.&.&.&.&.&.&.&.&.&.@.h d d d x x z l p q 7 O + @ ",
"9 @ o   o   o @ % : - @ ; -.&.&.&.&.&.&.&.&.&.&.&.&.&.U @.h x x z v v z s 8 6 + @ @ ",
"@ o     . o o + < 2.L < ( &.&.&.&.=.1.u.p.u.,.:.*.&.&.&.*.A M x z M l k l 7 0 0 @ + ",
"@ O O O + o + & R -.&.*.*.&.&.,.i.c.B.C.B.M.M.M.c.,.&.&.-.#.G x M M z l z a s q 6 + ",
"+ @ O # + + + & P &.&.&.&.&.7.n.B.G.H.K.G.C.C.M.M.n.y.&.&.&.$.M M D Z z l k s q 9 9 ",
"9 O $ ^ * @ O & P &.&.&.&.:.c.B.S.J.J.J.K.K.G.B.M.B.c.:.&.&.! S J F %.y q N t 0 a p ",
"i @ % & & @ O & K &.&.&.&.p.B.G.J.J.K.K.K.J.H.B.M.M.M.a.-.&.&.#.F.D.! [ z e D.0 p a ",
"8 + @ @ @ @ 9 + ^ &.&.&.7.M.G.J.J.J.K.J.K.K.G.B.M.M.B.n.=.&.&.&.*.&.-.} v l h s s q ",
"+ @ @ 7 + % p = K &.&.&.c.C.K.J.K.J.J.J.K.K.A.M.M.n.x.x.=.&.&.&.&.&.&.` a a a a s 8 ",
"6 7 7 @ 9 p , 6.*.&.&.>.n.S.K.K.J.J.J.J.G.G.B.M.a.=.-.,.-.&.&.&.&.&.3.4 a p a i q 6 ",
"@ @ i p s p V *.&.&.&.,.M.S.J.K.J.K.K.J.H.B.M.a.-.&.&.&.-.&.&.&.&.&.+.x k 8 a a 7 a ",
"i i i j j s u &.&.&.&.,.M.S.J.J.K.K.K.G.A.M.p.-.&.&.&.&.&.&.&.&.&.&.] z l a s a 9 6 ",
"7 9 i s d z V *.&.&.&.,.M.B.G.J.K.G.A.B.M.p.&.&.&.&.&.&.&.&.&.&.&.&.] l l q i q 7 9 ",
"i i 9 p d d N P &.&.&.-.c.M.B.G.H.G.B.M.B.p.&.&.&.&.-.&.&.&.&.&.&.~ N a 8 7 q 7 @ 7 ",
"i 7 i d z s s 4 6.Q I &.y.B.M.B.B.B.b.j.j.k.:.&.&.-.:.&.&.&.&.*.~ t a 8 q q q 7 i 9 ",
"@ i p s x s j x N s h ' *.w.q.M.b.T ! E E T i.&.y.p.-.&.&.2.` r f 8 8 8 7 5 7 0 d 7 ",
"i p p j s l z v x x z A 3.6.e.b.b.~ E E I l.b.v.n.i.&.&.&.Q g q 7 7 7 5 @ o % s d q ",
"p s b b z x z b v l x A <.v.C.j.t.z.q.h.N.S.G.A.a.y.&.&.&.2.e 8 i 9 7 7 O @ p j d a ",
"d d n M b x x v v x c $.*.<.f.t.! b.B.M.M.B.Z.b.a.y.&.&.&.&._ 7 i 7 7 i @ i p s d d ",
"M M H m v v z n z x F.3.&.&.-.c.n.M.M.M.M.q.w.d.g.=.&.&.&.&._ @ 7 @ i 7 % s p b b z ",
"H M M z m z z v Z B o.&.&.&.*.c.B.M.M.b.q.t.b.v.;.&.&.&.&.*.2 i @ i 8 7 d j b M M M ",
"J m m m m z k k ' T T &.&.&.&.7.s.r.t.0.s.N.V.8.&.&.&.&.&.I f 8 + 7 @ 9 s x b b M M ",
"v m m k 8 z a a B +.*.&.&.&.&.&.1.x.c.n.b.7.>.&.&.&.&.&.2.> 8 5 @ @ @ p d a a b H m ",
"v v k a z z a s x c C 2.&.&.&.&.&.,.9.9.5.2.2.&.&.&.&.L , + + O O O i i 7 i s b b z ",
"m k z k a 8 s a a s z ..*.&.&.&.*.Q ' 3 h w = R K R ; $ + + + o . O i O + 7 p b z l ",
"m z a 8 5 6 i a a d x v V O.*.&.3.Z k q a 5 + o + + + @ o + o o o o + @ @ + i b z l ",
"z 8 5 + 7 9 9 7 x x n z s x t ' 6.{ a q 7 5 . O + @ % 9 @ @ o O + + % p i @ d a k a ",
"a 8 8 a 9 q 7 @ j s z l l l a s e h a 8 7 O O @ 9 0 i @ 9 @ @ o + @ @ % p 8 i i a z ",
"q 6 s s i p q 0 s s l l q q a z a a 8 7 5 9 6 @ + + + + + + o o + o @ 7 7 i s a i 8 ",
"7 i i s s s s s s a p s q s s z a 5 5 + @ 0 O + + O + @ O O @ @ @ @ i % s a a i a 7 "
};
