/* XPM */
static char *_3295169aef34586eea498a8b176ad84JRLZe6zF6RkWvt1K[] = {
/* columns rows colors chars-per-pixel */
"62 62 217 2 ",
"   c #553C32",
".  c #5D453B",
"X  c #58453B",
"o  c #624235",
"O  c #65473B",
"+  c #64493D",
"@  c #6B4A3D",
"#  c #6A4639",
"$  c #744C3D",
"%  c #5E4D44",
"&  c #5C5047",
"*  c #634C41",
"=  c #6B4E42",
"-  c #724F41",
";  c #615046",
":  c #6C5245",
">  c #645349",
",  c #6D5549",
"<  c #6C594E",
"1  c #745345",
"2  c #7C5444",
"3  c #735649",
"4  c #7A5648",
"5  c #755A4D",
"6  c #7B5B4D",
"7  c #7E5846",
"8  c #6C5C51",
"9  c #645951",
"0  c #745E51",
"q  c #7B5E51",
"w  c #756155",
"e  c #7C6255",
"r  c #7D6659",
"t  c #7D695B",
"y  c #77675B",
"u  c #7A6C60",
"i  c #845544",
"p  c #8A5A47",
"a  c #835C4B",
"s  c #8A5B4B",
"d  c #835848",
"f  c #925E4D",
"g  c #9B5E4D",
"h  c #835F51",
"j  c #895F50",
"k  c #87604F",
"l  c #96614F",
"z  c #9A624E",
"x  c #836354",
"c  c #8C6353",
"v  c #8C6A57",
"b  c #826659",
"n  c #8A6758",
"m  c #846B5C",
"M  c #8B6B5B",
"N  c #936554",
"B  c #9B6552",
"V  c #946956",
"C  c #9C6A55",
"Z  c #946C5B",
"A  c #9C6D5A",
"S  c #8E705F",
"D  c #94715E",
"F  c #9C715D",
"G  c #A26652",
"H  c #A46A55",
"J  c #AB6C56",
"K  c #A46D5A",
"L  c #AC6E5A",
"P  c #B16C55",
"I  c #B36E5A",
"U  c #A4725D",
"Y  c #AC725C",
"T  c #B37057",
"R  c #B4745D",
"E  c #BB755D",
"W  c #B4785F",
"Q  c #BC795E",
"!  c #856E61",
"~  c #8E6F61",
"^  c #9B6F60",
"/  c #8B7363",
"(  c #877568",
")  c #937463",
"_  c #9C7463",
"`  c #9C7966",
"'  c #947B6B",
"]  c #9B7D6A",
"[  c #947868",
"{  c #8B7D70",
"}  c #A57562",
"|  c #AC7662",
" . c #A57A65",
".. c #AD7A64",
"X. c #A47C6A",
"o. c #AD7D6A",
"O. c #B37662",
"+. c #BB7662",
"@. c #B47B64",
"#. c #BB7B64",
"$. c #B47D6A",
"%. c #BB7E69",
"&. c #C3795E",
"*. c #C2775C",
"=. c #C27C64",
"-. c #C97D65",
";. c #C37E69",
":. c #C97F69",
">. c #C27662",
",. c #9E816D",
"<. c #9B8373",
"1. c #978576",
"2. c #A4816E",
"3. c #AD826C",
"4. c #B78067",
"5. c #BC8167",
"6. c #B5826C",
"7. c #BC836C",
"8. c #BD896F",
"9. c #AB8671",
"0. c #A28975",
"q. c #AC8974",
"w. c #AD8C7A",
"e. c #A28A77",
"r. c #B58572",
"t. c #BC8571",
"y. c #B58A74",
"u. c #BC8B73",
"i. c #B58B78",
"p. c #BC8D79",
"a. c #AD927D",
"s. c #BD9077",
"d. c #B3927C",
"f. c #BC927B",
"g. c #BC987F",
"h. c #C48166",
"j. c #CB8266",
"k. c #C3836B",
"l. c #CB846B",
"z. c #C4896E",
"x. c #CB8A6E",
"c. c #D2846D",
"v. c #D18B6E",
"b. c #D38067",
"n. c #C38671",
"m. c #C98670",
"M. c #C38B73",
"N. c #CB8C73",
"B. c #C38D79",
"V. c #CB8E79",
"C. c #D28E73",
"Z. c #DA8C75",
"A. c #D68E78",
"S. c #D08770",
"D. c #C49176",
"F. c #CB9275",
"G. c #C4937B",
"H. c #CA937B",
"J. c #CC9A7E",
"K. c #C4987E",
"L. c #D29275",
"P. c #D3937A",
"I. c #D39B7D",
"U. c #DA9C7C",
"Y. c #DA9378",
"T. c #E19D7E",
"R. c #AB9685",
"E. c #B59680",
"W. c #B59A86",
"Q. c #BB9B83",
"!. c #BC9281",
"~. c #BDA18A",
"^. c #C29481",
"/. c #CA9681",
"(. c #C49C83",
"). c #CB9C83",
"_. c #CC9E88",
"`. c #C79E89",
"'. c #D39781",
"]. c #D39C84",
"[. c #DA9E85",
"{. c #E29D81",
"}. c #C4A186",
"|. c #CDA186",
" X c #C5A48B",
".X c #CCA48B",
"XX c #CBAA8E",
"oX c #C3A88D",
"OX c #D5A385",
"+X c #DCA484",
"@X c #D4A48B",
"#X c #DCA68C",
"$X c #DBAB8D",
"%X c #D6AA8B",
"&X c #DFB18F",
"*X c #C4A990",
"=X c #CBAB93",
"-X c #C1A493",
";X c #D2A691",
":X c #D6AE93",
">X c #DBAA92",
",X c #D2AE9A",
"<X c #CCB195",
"1X c #CAB29B",
"2X c #DCB296",
"3X c #D1B59A",
"4X c #D6B698",
"5X c #E3A58B",
"6X c #E4A788",
"7X c #E6AD93",
"8X c #E3B295",
"9X c #E3BC9D",
"0X c #EAB39A",
"qX c #F1B497",
"wX c #D5BAA4",
"eX c #E7BBA6",
"rX c #D9C0A1",
/* pixels */
"w 1 7.t.R O.%.%.$.I J Y Y B x <., G j.N.+.=.=.R >.h.@.$.+.l / y 4 C.%.k.#.%.@.#.R k.z.D...M ' + J z.@.p.y.x.h.m.M.@.7.7._ / ",
":X/ a =.%.| U $.N.E J E J 6 Z P.).= J >.=.C.=.R =.z.n.k.K h %.@Xb a #.z.7.M.5.W @.z.x.7.M x F.2.= E @.G.H.5.z.7.G.@.@.V q 6.",
"(.:Xm 2 %.$.%.$.#.%.#.%.h Z $.7.U.XX= C =.h.:.=.h.C.z.B x ..#.E P./ 2 h.u.6.7.N.@.h.R 6 x @.Y k.] - @.| 7.7.z.z.x.7.Z q A $.",
"f.y.$XM 1 #.#.@.z.#.L e c f.6.B.7.F.u.3 T l.E k.k.+.} x U k.+.J 7.#Xm 6 7.z.5.#.=.Y x v @.7.U R h.2.4 | %.@...M.h.A r X.Y G.",
"u.7.W +X/ $ #.k.h.J x Z Y 4.D.5.+.J N.*X, J >.c.l.c b } %.+.>.%.$.+.:X/ n k.E 7.U x x T +.W Y H @.H.,.e @.7.+.x.N e ] @.@. X",
"7.@.$.7.2X[ 2 +.z x c R =.u.M.T W Y @..X~.= z I V e ..k.+.#.%.r.| O.o.#XM 2 k.^.x M Y H @.u.T H $.U u.<.1 Y R A x U J.| 6.B.",
"m.$.7.%.6.8X~ O 5 x R n.).r.Y Y R @.+.7.I.G.* O e w.@.I +.%.%.p.$.B.B.M.>Xx + t M F $.@.u.q.@.R @.W K z.X.* 1 q A @...K @.W ",
"7.$.V.7.%.%.I.0.% B $.u.n.@.R %.%.K Y N.7.h.|.u 6 /.%.+.#.@.+.$.@.%.@.O.+..X' > } 6.| f.}. X Xs.6.W @.@.%.,.8 n r...+.R R @.",
"%.Y %.6.7.#.z.#X[ $ %.7.7.$.#.#.Y 7.z.M.J...x.OX< B O.$.%.$.@.V.} O.@.+.I O.>Xt a z.6.(.u.K.Q. Xu.Y K @.W D.a.+ O.7.Y %.| J ",
"W @.7.7. .z.W $.6Xx 2 W 7.#.@.5...z.@.7.M.f.3.F.@X, G J $.n.%.G.p.7.=.+.@.$.k./.r 4 6.$.U $.3.g.6.W L @.@.Y G.3.- U +.n.O.R ",
"k.+.6...K.n.R E R L.v 1 Y %.@.u.y.7.7.7.$.7.8.6.J.XX, s r.$.k.k.u.^.r.N.O.#.l.+.|.t x 3.7.@.d.Q.u.R +.U @.Y Y $XR.@ Y $.R R ",
"7.k.%.6.6.@.%.H @.z.J.v # =.7.K.).N.7.$.f.5.| 7.%.J.3X> ^ 7.@.%.$.M.u.M.B.$.O.;.%._.r s 7.$.u.f.^.u.Y @.@.@.6.y.).W., C 7...",
"y.p.r.f.$.=.@.@.@.6.6.+X/ $ k.$.7.7.%.6.N.| 8.B.7.7.@X3X8 K %.r./.%.$.n.n.p.B.7.M.C.[.5 c $...@.u.`.f.y.@.@.G.s.R L.g.. A u.",
"G.i.7.u.Y Y 7.%.U R %.u.9X/ 2 6.@.n.@.F.k.7.7.@.Q :X@.|.wXO A n.n.| H.m.t.%.^.G.).].%.,Xt B B.6.n.`.y.3.@.W u.y.6.Y x.g.3 V ",
"F |.@.E %.$.6.o.u.O.%.7.G.8Xx 6 h.G.@.z.7.#.+.#.E u.(.6.N.}., K ;.n.V.+...^.| G.$.@.6./.wX5 a 7.7.f.d.s.z.7.f.f.o.O.R @XE.. ",
"X K =.J K U 7.B.u...6.n.u.H.y.9 4 6.@.z.5.J 7.n.R 7.1Xu.V.$X{ . @.+.%.+.O.^.!.$.%.N./.i.#XW.X V k.7.}.6.Y s.y.7...7.u.7.I.( ",
"W.: B $.n.t.o.6.$.6.t.u.y.V / f.M @ +.@.7.K T H @.W @.h.%.M o.9.3 g n.%.+.^.-Xr.B.V.n.n.K <.W.< k h.| ..%.+.U #.z.7.6. .S q.",
"U.(.* 3.V.6.@.Y =.7.B.(.v e } @.#X) @ W 7.R T R @.E E C x N I C.K.O g +.;.#.O.k.%.k.;.N r ..P.H.5 V @.Y U R @.| ..| K x N h.",
"z.H. X, V f.V.6.m.6.6._ r U R Y Y J./ # @.@.%.Y R #.K 5 j R %.t.].E.= s O.+.J O.$.@._ q r.G.J #.f., C Y L @.K 4.7. .r V Q #.",
"@.Y @X X* ) 7.%.n.7.` r  .u.@.Y Y Y 6X` @ =.Q R E G 4 Z @.%.r.n.M./.i.@ J +.O.=.O.f q A G.r.6.K H.).: N u.H R +.C e A =.=.#.",
"k.$.U x.).: A k.V.` e Z U } o.7.H R +.L.] 4 #.R J e ) 7.B.k.y.u.t.p.>X~.= L N.k.B 5 Z K.K...6.m.B.M.J., p #.#.V x N W @.5.7.",
"H.3.@.J C.F.* c c e F U A U 6.$.Y Y ..@.N._ o i e v u.i.B.@.k.M.p.$.r.=XR.+ C x e X.n.).n.$.R k.t.%.h.G., p V w F &.@.$.J.D.",
"%.5.#.Y @.U.s.> < c | %.@...U C W %.K L J T./ ; N R @.^.r.K +.=.t.n.N.p./.w.; x %.t.r.r.n.$.O.+.n.%.K x.#X< > c E @.+.7.n.u.",
"#.E &.W @.7.r.m N C ..@.U $.Y G H K Y L G J ] A P R J t.B.$.o.+.+.O.7.| r.f.m | H.t.t.t.m.k...R B.y.%.#.m.' c R Q %.#.#.W u.",
"E J R Y 7. .5 B @.J @...Y 6.Y $.U 3.} K B q c I E +.Y J | r.H.t.#.#.@.#.A b 6.6.@.p.7.k.7.| ..%.%.u.$.o.M A 5.W +.=.Q E R #.",
"7.7.x.%.v e l $.6.6...6.K U A } 3.`.y.U m M @.#.R +.@.R @.p.#.u.@.7.%.c q V t.@.t.t.$.6.$.%.| 6...$.K b ` 7.n.+.@.&.E R %.+.",
"6.x.F.V e B Y @...o.| @.U ..Y $.6.u.6.m n $.n.B.%.O.%.L i.n.N.o.R n.V e V N.$.@.z.6.7.@.G./.t.| 6. .b F x.3.6.%.W *.j.@.=.=.",
"@.x.V r 6.%.K $.| %.Y $...K K 3.$.U x ~ ..$.L I R ;.%.#.r.t.;.r.J j ! o.$.L %.%.%.$.m.t.%.n.6.r.$.r Z Q Q ..+.W T #.x.B.W 5.",
"4.F 6 B U H %.@.t...@.@.$.@.o.$.U x j B.^.J #.#.L @.^.B.r.t./.G.N r } z.p.r.$.%.$.%.%.$.%.6./...m V E E z.u.E E Y #.N.f.@.n.",
"v m U J H o.y...$.u.6.Y 7.#.G. .b ~ o.).6.N./.$.t.B.B.r.6.$.o.~ 0 F H.V.t.G.G.B.].n.@.@.#.7.$.n V =.$.8.6.@.R h.5.W Y %.W #.",
"< D $.H | 3.K W $.| ..6...W } w 3 U 6.=.M.p.o.%.M.6.%.%.r.$.c ; Z B.H.O.i.6.G.f.f.6.6.(.6.@.e 6 R 5.7.k.+.R T @.x.Y 8.M.Y N ",
"> 1 | ..$.| | H 3...H y.K s M 1.. L z.%.@.#.t.p.B.@.@.n.#.N <.w 4 %.x.R p.p.6.r.@.M.p.^.t.x u   @.5.+.F.M.E Q R x.%.@.z.F ( ",
"rXw x 6.@...L G K @.z U B 5 Z I.q.@ @.#.O.u.p.M.$.@.R J c b k.@Xe s n.@.%.1Xd.6.B./.).| x Z [.] # Y Y @.h.>.@.$.$.%.h.F x I.",
"9X4X: s U K Y U @.Y $.K 6 M oX}.|.0.= | n.$.%.$.$.$.O.c e | O.O.J.w C z.7.f.y.M.M.n.O.x N =.Z.6X' # E E #.Y 6.6.6.#.N m %.C.",
"D.U.2X0 p R | Y K } | 6 k U ~.XXy.J.9.4 +.=.O.@.k.;.c q A 7.=.I O.^., s h.J J 6.%.$.e A c.c.:.>.0X1.$ Q Q R 8.G.5.U x Y H.J.",
"k.J.$X)., d Y K W B 3 D $.8.n.k.k.#.U.,.1 %.%.$...Z q L 7...W I G %.K.0 p #.Y 6.C q A n.P.#.c.=.H.7X] $ J +.W 5.| x G R N.k.",
"x.k.z.P.:X8 i R z 5 M z.K.XX@X).Q.u.#.$Xq.4 6.$.N e O.J K M.%.P K #.n.].0 p k.K e Z N.V.m.k.#.V.H.#.5X] o &.C.V x A E Q N.N.",
"#.k.I.F.G..X0 o 5 M 6.).d.f.G.<X4X].@.@.OXd.* 5 q B 7.I %.G.7.=.L | U 7.#Xr 3 e N N.B.k.[.k.B./.m.N.V.8X' O s e C l.#.l.l.C.",
"k.C.Y.J.z.k.OX/ > 3.u.f. X|.M.Q..XD.6.n.7.+Xq.> a L +.Y #.r.$.7.6.M.$.O.6._.! * O.l.;.j.h.c.;X].N.N._.].].e.& 6 +.L.N.F.k.=.",
"h.Q #.R l.R h.I.m e `.XX`.J.D..Xk.z.7.%.#.%.9Xa.= K $.Y %.$.%.$.y.B.6.$.@.#.].r g :.+.=.j.l.n.V.N././.-.c.eXR.O x.x.J.8.F.F.",
"-.+.#.x.C.N.u.I.$X/ / }.).B.f.Q.@.h.Y U Q Q %.U.9.= V R #.M.$.6.7.k.R J R L x.^.e i c.%.#.#.l.A.x.M.].H.;.V.5X] 4 7.M.L.x.x.",
"7.%.F.M.k.H.J.x.x.8X! k ).*X<Xf.k.+.+.@.=.R W &.l.0.= U $.V.6...#.E R L R @.t.M._.q i l.E ;.+.Z.S.:.C..XH.-.V.5X) q F.v.&.%.",
"@.N.7.M.x.I.7.l.7.z.+X/ p G.<X=X8.#.R W 7.E R &.P Y.9., r.r.6.U %.%.Y B.`.M.@.K %.3X{ f #.;.%.P.N.N.Z.:.V.'.6.N.7X] $ E 5.).",
"N.J.@.=.x.].v.L.7.5.v.5X) / 4X=XM.R W h.h.#.7.#.=.Q +Xa.O U | u.H.#.#.o.$.+.O.f.6.t.wXm H Z.;.C.;.:.z.m.k.'.H.P.;.{.,.# y.OX",
"x.m.F.Q =.h.Q h.=.h.x.@X8XM a 7.6.B.G.G.k.4.5.W +.h.=.F.e., z.%.H K p.+.O.p.@.O.7.$.h.=Xr B c.=.h.j.O.m.F.Y.%.l.m.l.qX,.5 M.",
"#.z.h.j.l.l.x.j.#.k.H.x.h.%Xr i z.7.R 8.M.7.E J R k.x.#.2Xe.4 #.$.R 7.R Y r.@.o.| ..q.q.=Xr f +.;.%.j.A.P.C.;.l.+.+.[.5XX.1 ",
"5 @.x.L.k.k.N.=.Q Q >.#.k.x.y.; x P.5.(.D.Q k.W #.x.(.s.J.&Xt = | J n.k.B.B.| 3.^.7.K  .@Xa.% p c.=.l.C.l.%.n.m.;.+.^.P.6X! ",
"a.= Y x.#.V.N.j.j.=.l.k.k.U n (./ 3 8.I.4.z.H.D.F.M.7.7.$.v i.e.= O.6.u.o.%.t.K r.7.Y K [ X.XXr B Y.n.#.'.m.k.z.k.;.;.$.M w.",
"Y.f.= Y x.k.x.k.@.H.=.h.C q B m.{.M a h.M.n.N.5.7.z.k.A 0 Z >.7Xq., o...} o.k.U | %.r.n M 8.H.%Xm N =.B.;X].m.7.n.k.@.M D ).",
"@.x.u.3 J k.N.R R +.). .x X.#.J G.7X/ a h.k.M.M.7.@.Y x n R =.J H.W.* 2. Xt.@.6.W +.v e @.u.6.k.9XS d )..X'._._.>X..x _ 7.$.",
"#.R C.B.4 +.j.R #.h.` x 6.G.+.W p.>X8X) p z.8.F.5.L a A #.+.+.%.W [.w., u.r.%./.k.c e @.D.u.G.z.F.OXM _ 7X).@X;X@Xm ) 7.G.R ",
"@.7.W N.y.1 =.l.j.K e } R +.z.R W t.%.J.M s k.7.Y e Z H.t.#.R =.x.>.P.d.= _ $.B.Z 6 3.|.D.x.7.G.H.z.+Xm _ >X_.G.) ) K.%.@.J ",
"@.6.u.z.N.W.= f N q | k.E E #.O.p.n.L J :X/ $ N 3 A #.V.].P.J.k.J h.+.m.f.O N ) 6 J x.8.Y Y W J.J.6.l.J.e )  .q c u.H.T E %.",
"| N.D.M.Y $Xg.% 5 K E E %.O.M.p.F.=.=.%.F.].e < Z N.].%.k.$.7.).m.O.z.j.{.y.; 0 @.j.h.%.T J Q Q 6.u.4.k.I.e > N j.R R E J Y ",
"$.6.%.%.z.N.K.! K #.R $.U t.6.n.O.J U 7.7.%.<.Z %.z.H.$.B.N.P.7.@XF.G.[.j.B.m H %.k.Q Q *.&.h.R Q D.7.6.N.,.k I 5.@.Y @.u.N.",
"m.%.@.h.7.} e B =.%.Y =.O.%.$.t.$.J L I } b Z ].N.7.+.V.H.N.#.f.k.].G.6.| M Y j.#.+.@.5.R Q #.k.=.F.6.Y M s E z.Y =.u.B.L.6.",
"J.z.z.x.Z 6 V h.$.O.@.;.#.+.=.7.O.R t. .q Z +.N.l.z.z.+.R E +.G.t.m.N.N x 6.D.J.M.5.x.@.Y #.#.W z.G.C x k R #.n.7.%.V.k.x.7.",
"7.#.k.U x U #.p.u.6.$.$.k.=.+.+.O.%.y.r N #.@.$.%.7.m.R k.7.R m.=X7.o.x Y n.5.h.J.H.#.Q R J z.h.5.G.x N J @.%.G.7.z.$.6.z.D.",
"%.5.N e  .p.z.n.$.O.6.7.R +.+.#.E K e c x.m.7.z.j.%.n.E >.>.h.N.M.} r O.Q D.L.k.(.z.#.7.L =.J.). .M x W =.@.L k.x.#.@.Y E @.",
"h.F m ..| O.m.t.#.N.t.Y ;.j.R E J x A &.m.].P.m.h.7.k.h.T J #.E f x  .8.R 7.u.D.D.@.u.D.x.z.G.6.M x >.%.5.@.%.7.7.R =.l.R J ",
"V 5 U t.@.R l.%.+.x.#.#.%.G.#.R h n +.l.+.Y N.O.j.=.;.;.#.h.E f 5 U u.D.W E 7.k.%.D.8.7.k.7.#.e [ #.=.R #.z.h.@.V.z.=.R @.@.",
"< Z @...$.O.>.$.+.+.k.n.).B.O.x 0 R #.#.6.E +.K N.N.k.j.=.>.B , N -.7.u.k.T 5.z.x.k.k.D.OX6.6 5 W =.%.@.u.@.%.%.%.D.s.7.k.N "
};
