/* XPM */
static char *_1707038219[] = {
/* columns rows colors chars-per-pixel */
"42 42 138 2 ",
"   c #2E2D34",
".  c #312E34",
"X  c #302F38",
"o  c #343136",
"O  c #36333A",
"+  c #39363C",
"@  c #3C383E",
"#  c #45353A",
"$  c #413C3F",
"%  c #5D363C",
"&  c #6A373D",
"*  c #7D3337",
"=  c #77333A",
"-  c #7F3339",
";  c #72393F",
":  c #363641",
">  c #393741",
",  c #3D3A42",
"<  c #3F3E49",
"1  c #423D44",
"2  c #4D3E44",
"3  c #413F48",
"4  c #533D45",
"5  c #593B42",
"6  c #763D45",
"7  c #793C42",
"8  c #763F48",
"9  c #454046",
"0  c #484247",
"q  c #45424A",
"w  c #4A454C",
"e  c #4E484E",
"r  c #534146",
"t  c #51464D",
"y  c #5B464E",
"u  c #514A4E",
"i  c #454451",
"p  c #4B4751",
"a  c #4E4952",
"s  c #534C54",
"d  c #5C4B53",
"f  c #544F59",
"g  c #575056",
"h  c #5A5157",
"j  c #56515A",
"k  c #5B535B",
"l  c #6A4147",
"z  c #63454D",
"x  c #6C454B",
"c  c #67494F",
"v  c #73454B",
"b  c #7C424A",
"n  c #79484E",
"m  c #634C51",
"M  c #6B4B52",
"N  c #734C53",
"B  c #794E55",
"V  c #63545C",
"C  c #6A555A",
"Z  c #62595E",
"A  c #7B5157",
"S  c #71575E",
"D  c #78575D",
"F  c #635B63",
"G  c #6D5960",
"H  c #AF1A1F",
"J  c #B81015",
"K  c #BE161A",
"L  c #B61A1E",
"P  c #BA191E",
"I  c #9E1C22",
"U  c #AF1C21",
"Y  c #B21D22",
"T  c #BB1D22",
"R  c #8E2228",
"E  c #83292F",
"W  c #95242A",
"Q  c #9C272C",
"!  c #9E2A2E",
"~  c #8B2C33",
"^  c #972E33",
"/  c #9D2C32",
"(  c #8F3137",
")  c #86363B",
"_  c #86393F",
"`  c #963136",
"'  c #93343B",
"]  c #9C3439",
"[  c #93393E",
"{  c #9E393F",
"}  c #AE2126",
"|  c #A22328",
" . c #A9262B",
".. c #A6292F",
"X. c #AF282D",
"o. c #B42125",
"O. c #BD2226",
"+. c #B12529",
"@. c #A32E33",
"#. c #AC2F33",
"$. c #A53035",
"%. c #A5363A",
"&. c #B03237",
"*. c #CD0509",
"=. c #CC0A0D",
"-. c #D30E07",
";. c #D10A08",
":. c #D61307",
">. c #D81706",
",. c #D91A06",
"<. c #C50F14",
"1. c #CA0C11",
"2. c #C51116",
"3. c #C31519",
"4. c #C1191D",
"5. c #DD2105",
"6. c #E02705",
"7. c #E32C04",
"8. c #E73304",
"9. c #E83504",
"0. c #EC3C03",
"q. c #EE4002",
"w. c #F14502",
"e. c #F44B01",
"r. c #F75101",
"t. c #FA5500",
"y. c #FF5D00",
"u. c #FF6000",
"i. c #813D44",
"p. c #8B3D43",
"a. c #963940",
"s. c #8F4045",
"d. c #83444A",
"f. c #8C4349",
"g. c #8F494F",
"h. c #95434A",
"j. c #864950",
"k. c #8A4D52",
/* pixels */
"0 3 9 3 q e q w w q 0 q q q q < > , + , 0 1 @ + O + + + @ @ @ $ , $ 0 3 1 3 , q 9 9 ",
"w 0 3 9 w e q q 3 0 w q w w q , : , @ 1 1 1 1 O + $ @ + @ 1 1 1 , 1 0 , 1 w w w q 9 ",
"w w q 9 e q 3 9 3 w w w w a q , @ 1 9 1 3 @ @ $ @ 1 $ @ $ 9 0 w t w 9 1 0 q 9 9 3 e ",
"q q , q w 3 9 , , 1 q q w w w q 9 0 9 3 , @ $ 1 9 1 , $ $ 9 w t e 1 3 1 t w 9 w 9 q ",
"q , , 3 , 3 , , + 3 1 0 e q w q 9 w 3 1 3 1 0 t u 9 , @ @ 1 3 w w w q s e e s s q 9 ",
", , + @ , , + + + 1 3 9 w < q w w w q 0 , + 1 N c q , , , @ 0 w w 0 s f s s s a w q ",
", , , , , , , , @ 1 9 w 3 q e w w s e w , + 1 t q q q w @ $ w u e e s q q a f a a , ",
", , + @ + + @ , O @ 0 q , w 0 e e u s w 3 1 w w q w e 9 0 r u s f a w q w f f p < , ",
", + O + o O @ O + + 9 0 w 0 v X.Y Y @.M t u e t e g y = Q } ^ b s w w q p s a p 3 , ",
"+ O O O O O O o + % Q _ q ~ 2.*.*.*.*.3.f.k s u c [ L =.*.1.` = y a w w s a q < 3 , ",
"@ O O + o o o o & H =.) ^ =.*.*.*.*.*.*.1.X.+.L K =.*.*.2._ u e s e p a q , : > , , ",
"O O o   . . o % L *.*.<.=.*.*.*.*.*.*.*.*.*.*.*.*.*.*.*.%.e e s f a e 3 3 , , > , + ",
"+ @ O . o . # } *.*.*.*.*.*.*.*.*.-.,.,.,.,.:.*.*.*.*.=.d.e e e s f a e w 3 , + + + ",
", @ o   . o * ;.*.*.*.*.*.*.,.7.0.r.t.y.t.y.t.q.,.*.*.*.$.w s s a j s a p , > + $ + ",
"@ O     . O Q *.*.*.*.*.-.9.t.y.y.y.y.y.u.y.y.y.t.5.*.*.1.%.C s a k p i w , 3 2 , + ",
"@ O o O O $ ..*.*.*.*.*.9.y.u.y.y.y.y.y.y.y.y.y.u.e.:.*.*.1.k.g k k a p a q w 1 , + ",
"@ @ O O + $ ! *.*.*.*.,.t.y.y.u.y.y.y.u.y.y.y.r.q.7.;.*.*.*.T  .a.F d 4 s 2 p 3 3 1 ",
"$ O O O o 1 ! *.*.*.;.0.u.y.y.y.u.y.y.y.y.y.w.:.*.*.*.=.*.*.*.*.T F V p.a.m 3 3 3 w ",
"1 @ @ @ 9 $ ! *.*.*.,.t.y.y.y.y.u.y.y.y.y.w.;.*.*.*.*.*.*.*.*.*.&.V f f p.p.4 i w 2 ",
", + @ @ @ , ` *.*.*.8.y.y.u.u.y.y.y.y.u.y.q.*.*.*.*.*.*.*.*.*.*.h.k f p j j.M i w 3 ",
"@ @ , @ + $ l 2.*.*.8.y.y.y.y.y.y.u.y.y.u.q.*.*.*.*.*.*.=.*.*.2.B f i i 3 d M w w , ",
", , , @ 1 0 r ) <.*.9.y.y.y.y.y.r.q.w.t.y.q.*.*.*.*.;.*.*.*.T g.G f f i p t p 3 3 > ",
", @ 1 0 e 0 t s $.*.7.e.t.y.t.7.:.*.*.0.u.t.7.7.9.9.,.*.*.*.4.B G k s a z p.w 3 , q ",
"9 9 0 u e e t u o.*.*.;.8.y.8.*.*.*.*.7.y.y.y.y.t.7.*.*.*.*.=.3.U p.y c j.v e 0 3 , ",
", 1 9 w e a e M 3.*.*.*.-.w.9.;.;.*.;.0.u.y.y.y.7.*.*.*.*.*.*.*.*.T / p.d 3 1 1 , 1 ",
"9 9 9 q e e z ..*.*.*.*.-.7.8.0.e.e.e.y.u.t.7.,.-.*.*.=.*.*.*.*.1.d.a i 3 , 3 , @ @ ",
"1 , 9 e v ! P *.*.*.*.*.-.9.5.7.y.y.u.y.t.5.*.,.;.*.*.*.*.*.*.*.1.b q 3 3 1 3 3 9 1 ",
"@ 9 0 c O.*.*.*.*.*.*.*.*.6.t.r.y.y.y.y.9.*.5.q.;.*.*.*.*.*.*.*.=.8 < , , > , 1 e , ",
"0 0 0 N 2.*.*.*.*.*.*.*.*.:.e.y.y.y.u.r.5.*.9.t.:.*.*.*.*.*.*.*.L r , , @ O $ e e 3 ",
"q w h k $.*.3.' @.<.*.*.*.*.;.0.y.r.e.7.*.,.r.y.,.*.*.*.*.*.*.=._ 1 , , O + 0 u e q ",
"e t h k A 3.#.g f h.*.*.*.*.*.7.e.6.:.-.:.w.t.0.:.*.*.*.<.J T ) 0 , 9 1 + 9 q 0 e e ",
"k h Z j k a.%.k s N T *.*.*.*.5.w.,.8.w.q.9.:.*.*.*.K ^ 5 4 1 > 1 , 1 @ 9 0 w d g a ",
"Z k k f j j m f a j g.1.*.*.*.:.q.q.e.9.:.*.*.*.*.Y l , q 1 3 w 1 1 1 1 e s g k h k ",
"F j j j f f a w a f D 3.*.*.*.*.*.*.;.*.*.*.*.*.*.p., 1 1 , w n 5 1 + , w a g g k k ",
"f f j i < a q q s j S O.*.*.*.*.*.*.*.*.=.*.*.*.=.6 , 9 ; W | ] $ + 1 0 e w w h F j ",
"f f i q e a q w s s j x / L 1.*.*.*.*.K s.3.*.*.T w + , 5 E R % O + 3 9 , , w h j a ",
"f i a i q < q q q w w f a k 8  .1.*.*.1.b 6 I I & + + + + + + O . O 1 O @ , q s a a ",
"j a q , : , q q q e s f a a a f i.~ ~ ~ 6 , + o O O + + O + O . o o + @ , O 0 s a a ",
"a 3 : + , , 9 , e f h a p p e p i w w 3 > + . O + $ 1 1 + + + o + o $ 2 1 1 0 w q i ",
"i < < 9 < 9 , @ t w a p p p q q < a q , , O + + 1 1 1 $ 1 @ + o + $ $ 1 0 9 9 9 q e ",
", , w w 0 0 1 1 e q w a q 3 q a w q , , : 3 , + + + + + + + O o + o @ 1 1 9 w q < , ",
", 9 q w w w w w e q q w 3 q e a < , : + @ 1 + + + O + @ O O + @ @ @ 9 , 0 w 9 9 q < "
};
