/* XPM */
static char *_c5e2eaed8cc48a6929e0d52583d33edsXVEfX83uu7egDtC[] = {
/* columns rows colors chars-per-pixel */
"42 42 153 2 ",
"   c None",
".  c #720000",
"X  c #7C0000",
"o  c #622727",
"O  c #722020",
"+  c #4D4545",
"@  c #535555",
"#  c #644242",
"$  c #7B6F6F",
"%  c #7B7F7F",
"&  c #850000",
"*  c #8C0000",
"=  c #940101",
"-  c #9C0101",
";  c #9D0A0A",
":  c #831D1D",
">  c #9F1313",
",  c #9F1E1E",
"<  c #A30101",
"1  c #AC0101",
"2  c #A40B0B",
"3  c #AA0B0B",
"4  c #B30000",
"5  c #BB0101",
"6  c #B30808",
"7  c #BE0C0C",
"8  c #A31212",
"9  c #A21A1A",
"0  c #B31515",
"q  c #BF1F1F",
"w  c #A12121",
"e  c #AC2121",
"r  c #BC2A2A",
"t  c #BF3232",
"y  c #B63F3F",
"u  c #BB3C3C",
"i  c #C30000",
"p  c #CA0101",
"a  c #C40909",
"s  c #D50101",
"d  c #DC0000",
"f  c #D40A0A",
"g  c #C21313",
"h  c #CC1414",
"j  c #C01A1A",
"k  c #CB1D1D",
"l  c #D51414",
"z  c #DD1212",
"x  c #D31C1C",
"c  c #E30101",
"v  c #EB0000",
"b  c #EC0B0B",
"n  c #F40101",
"m  c #FE0000",
"M  c #FF0A0A",
"N  c #E41111",
"B  c #EA1111",
"V  c #E71C1C",
"C  c #FF1414",
"Z  c #F41B1B",
"A  c #FF1C1C",
"S  c #CC2626",
"D  c #D32424",
"F  c #DC2020",
"G  c #D52D2D",
"H  c #CD3535",
"J  c #D43333",
"K  c #D63939",
"L  c #DF3C3C",
"P  c #FE2121",
"I  c #FF2F2F",
"U  c #E73232",
"Y  c #E83737",
"T  c #F53434",
"R  c #FF3434",
"E  c #F43C3C",
"W  c #FF3A3A",
"Q  c #9C5757",
"!  c #AF4242",
"~  c #BC4444",
"^  c #B14E4E",
"/  c #937D7D",
"(  c #AF6565",
")  c #BD6464",
"_  c #BD6B6B",
"`  c #BE7B7B",
"'  c #D54545",
"]  c #D94545",
"[  c #D74A4A",
"{  c #D94C4C",
"}  c #C15151",
"|  c #D65454",
" . c #DD5050",
".. c #E64747",
"X. c #FD4545",
"o. c #FF4A4A",
"O. c #FF5454",
"+. c #FF5C5C",
"@. c #C46C6C",
"#. c #DD6B6B",
"$. c #C37C7C",
"%. c #DC7E7E",
"&. c #ED6161",
"*. c #F46161",
"=. c #FF6565",
"-. c #F56D6D",
";. c #FF6B6B",
":. c #FD7474",
">. c #FD7A7A",
",. c #979393",
"<. c #9C9B9B",
"1. c #AE8282",
"2. c #BB8282",
"3. c #A29999",
"4. c #BF9292",
"5. c #A6AAAA",
"6. c #BCA4A4",
"7. c #BDBEBE",
"8. c #C08585",
"9. c #D98181",
"0. c #D88888",
"q. c #C59595",
"w. c #EB8888",
"e. c #F68484",
"r. c #FE8484",
"t. c #F68D8D",
"y. c #FE8D8D",
"u. c #F79191",
"i. c #FE9393",
"p. c #D1A7A7",
"a. c #D0A9A9",
"s. c #C5B3B3",
"d. c #CAB9B9",
"f. c #D5B4B4",
"g. c #CECDCD",
"h. c #D7C6C6",
"j. c #D9C4C4",
"k. c #D5CFCF",
"l. c #DDCCCC",
"z. c #DCD3D3",
"x. c #D7D8D8",
"c. c #E1D6D6",
"v. c #E4DFDF",
"b. c #DFE1E1",
"n. c gray89",
"m. c #E7E9E9",
"M. c #EEEFEF",
"N. c #EEF0F0",
"B. c #F2F5F5",
"V. c #FAFCFC",
"C. c #FDFEFE",
"Z. c white",
"A. c #FAFBFB",
/* pixels */
"                                                                                    ",
"                                                                                    ",
"                                                                                    ",
"                                                                                    ",
"                                                                                    ",
"                                      c c c                                         ",
"                            n v c s p i i i i p s c v                               ",
"                          v i 1 - - < < 3 3 3 < - - < i v                           ",
"                      c i 1 1 0 r H ' [ { ] G l p i 4 1 < 5 c                       ",
"                    d 5 < 8 r ' &.:.>.:.;.O.R C m v s 5 < < 4 d                     ",
"                  d 1 = 0 L -.r.i.y.>.+.W A M m m m m n c 4 = < d                   ",
"                  1 = j ..>.y.y.>.O.R A M m m m m m m m m c i - 1 s                 ",
"                1 - 0 ..:.y.e.*.E A M m m m m m m m m m m m v 5 - 1                 ",
"                = 2 Y :.u.w.#.] F b n m m m m m m m n b N N b c < = i               ",
"              = < k *.e.0.2.4.q.` ! h v m m m m m v k ~ _ ) ~ h 5 < =               ",
"              & 6 U >.9.q.s.z.k.3.# : a m m m m n S @.f.l.l.a.) q < &               ",
"            i & g X.e.$.6.m.A.m.5.@ # e n m m m d ^ 6.m.V.Z.N.d.~ ; & i             ",
"            4 * k O.t.2.s.B.Z.B.g.<./ y v m m n f Q ,.7.M.Z.V.v.) > = 4             ",
"            4 = D +.t.$.6.n.A.Z.B.x.1.t n m m m s O + % b.Z.B.k.} 3 - 1             ",
"            1 - G ;.i.%.$.q.j.c.l.p.} l m m m m v * o $ g.n.h.8.H 7 ; 1             ",
"            4 - J ;.i.e. .t ) ` _ u z n m m m m m s r ( q.q._ r V x > 1             ",
"            4 - J ;.i.r.X.b N z N b n m m m m m m m b z x x z b P G , 1             ",
"            1 - J ;.i.r.X.m m n m m m m m m m m m m m n v v n m R K w 1             ",
"            1 - G ;.i.r.X.m m m m m m m m m m m m m m m m m m M X.' w 1             ",
"            1 < G =.i.r.o.m m m m m m m m m m m m m m m m m m C +.| 9 1             ",
"            1 < D +.i.r.o.M m m m m m m m m m m m m m m m m M R ;.| 8 1             ",
"            1 < l o.y.r.o.M m m m m m m m m m m m m m m m m P +.:.[ 2 1             ",
"            1 < f R >.>.X.m m m m m m m m m m m m m m m m M W >.:.K < 1             ",
"            1 < s A o.O.I m m m m m m m m m m m m m m m m C o.y.;.G < 1             ",
"            1 < s m A A C m m m m m m m m m m m m m m m m M R ;.=.J < 1             ",
"            1 < s m m n m m m m m m m n v v n m m m m m m v B T o.J ; 1             ",
"            1 - s m n d d n m m m m v s 5 5 s v m m m m c 5 4 s Z x ; 4             ",
"            4 - p d 1 < < 4 c m m c 4 < 1 1 < 4 c m m d 1 < < - p 5 = 4             ",
"            4 & < 4 < 1 1 - 4 p p 4 - 1 p p 1 - 4 p i 1 = 4 5 - < = & 4             ",
"              X X - p n v 5 * = = & 4 c m m c 4 & * & & 5 v m d = . .               ",
"                5 s                                                                 ",
"                                                                                    ",
"                                                                                    ",
"                                                                                    ",
"                                                                                    ",
"                                                                                    ",
"                                                                                    "
};
