/* XPM */
static char *_feea1e5_67f1_4eda_b97a_966e17b91706635512[] = {
/* columns rows colors chars-per-pixel */
"62 62 235 2 ",
"   c #010101",
".  c #0A0303",
"X  c #040902",
"o  c #0C0902",
"O  c #02020B",
"+  c #0A040B",
"@  c #07090A",
"#  c #0B0A0B",
"$  c #140C02",
"%  c #1A0C02",
"&  c #150A0A",
"*  c #131205",
"=  c #181104",
"-  c #1A160B",
";  c #020211",
":  c #080811",
">  c #1C1916",
",  c #110914",
"<  c #221B03",
"1  c #261A0A",
"2  c #261B16",
"3  c #292508",
"4  c #34280A",
"5  c #2A2215",
"6  c #362E1B",
"7  c #3A2C12",
"8  c #3F391F",
"9  c #383404",
"0  c #3A3226",
"q  c #433B0E",
"w  c #433410",
"e  c #4C3D1B",
"r  c #443A17",
"t  c #533B1F",
"y  c #433420",
"u  c #483E27",
"i  c #4D461B",
"p  c #564818",
"a  c #5B5010",
"s  c #615018",
"d  c #725F1A",
"f  c #69500E",
"g  c #6F6118",
"h  c #7B641C",
"j  c #776716",
"k  c #4D452A",
"l  c #5D4F2A",
"z  c #5E5632",
"x  c #64572C",
"c  c #666327",
"v  c #736423",
"b  c #72652B",
"n  c #7A6725",
"m  c #6E6835",
"M  c #7A7031",
"N  c #7F7445",
"B  c #876E11",
"V  c #877319",
"C  c #886E29",
"Z  c #8A7725",
"A  c #857A37",
"S  c #937A2B",
"D  c #837A43",
"F  c #988B18",
"G  c #B59C0E",
"H  c #B99C1B",
"J  c #AB931D",
"K  c #BDA21B",
"L  c #BAA416",
"P  c #9B8424",
"I  c #988828",
"U  c #928836",
"Y  c #A48C22",
"T  c #A08824",
"R  c #AB9527",
"E  c #B69A23",
"W  c #BC9E24",
"Q  c #B89422",
"!  c #A69637",
"~  c #BA9D35",
"^  c #BAA327",
"/  c #AEA434",
"(  c #BAA339",
")  c #C49E19",
"_  c #C5A21B",
"`  c #CAA41C",
"'  c #C8AA19",
"]  c #D1AE1C",
"[  c #CCA814",
"{  c #E2BD14",
"}  c #C39F22",
"|  c #C3A223",
" . c #C9A42D",
".. c #C9A925",
"X. c #D2AD23",
"o. c #DAAF25",
"O. c #CCB629",
"+. c #D5B226",
"@. c #DBB424",
"#. c #DCBA25",
"$. c #D5B129",
"%. c #DAB32B",
"&. c #DABB2A",
"*. c #C4A734",
"=. c #C5B637",
"-. c #D3B039",
";. c #D5AB32",
":. c #E9BD23",
">. c #E3BD2A",
",. c #E7BA27",
"<. c #E1BD32",
"1. c #F8BE2C",
"2. c #F5CB1E",
"3. c #FBD31D",
"4. c #F8D61B",
"5. c #EBC41F",
"6. c #FFE21C",
"7. c #D3C632",
"8. c #E6C327",
"9. c #EBC425",
"0. c #EDCA22",
"q. c #E6C22A",
"w. c #ECC42A",
"e. c #EDCA2B",
"r. c #E7CA24",
"t. c #F5CB25",
"y. c #FACE24",
"u. c #F4CB2C",
"i. c #FBCE2B",
"p. c #F2C427",
"a. c #F5D123",
"s. c #FDD425",
"d. c #FFD925",
"f. c #F5D12C",
"g. c #FED52B",
"h. c #F7D828",
"j. c #FFD92B",
"k. c #F5D920",
"l. c #E5C339",
"z. c #ECC732",
"x. c #F5CE33",
"c. c #FBCE32",
"v. c #FCCE3A",
"b. c #F3CF39",
"n. c #F5D433",
"m. c #FED633",
"M. c #FEDA33",
"N. c #F5D43A",
"B. c #FED63A",
"V. c #FED93C",
"C. c #EBD938",
"Z. c #FDE22B",
"A. c #FFE021",
"S. c #ECE03E",
"D. c #FFE53B",
"F. c #FCE637",
"G. c #898348",
"H. c #978B45",
"J. c #9F9146",
"K. c #938D53",
"L. c #A99E43",
"P. c #B99D44",
"I. c #A5995A",
"U. c #ACA14F",
"Y. c #B0A241",
"T. c #BDB445",
"R. c #B5A653",
"E. c #ADA864",
"W. c #CEB849",
"Q. c #DDBF44",
"!. c #C8B558",
"~. c #D4BC50",
"^. c #DAB855",
"/. c #C3AB4B",
"(. c #E0BD47",
"). c #C8BB6D",
"_. c #DCCA4B",
"`. c #D5CA4E",
"'. c #CCC359",
"]. c #CBC857",
"[. c #DAC95A",
"{. c #DCD350",
"}. c #EBC849",
"|. c #F3CE41",
" X c #EBDA48",
".X c #F5D443",
"XX c #FDD643",
"oX c #FED943",
"OX c #F4D44B",
"+X c #FCD44A",
"@X c #FEDB4B",
"#X c #F0DC4D",
"$X c #E5CD58",
"%X c #EDD75F",
"&X c #E5D750",
"*X c #FED755",
"=X c #FEDC54",
"-X c #F2D15D",
";X c #F4DA5C",
":X c #FEDD5B",
">X c #F5D855",
",X c #FEE343",
"<X c #FFE944",
"1X c #FEE34D",
"2X c #FDEB4C",
"3X c #FFF04C",
"4X c #FCE354",
"5X c #FEEB53",
"6X c #FEE55B",
"7X c #FEEB5C",
"8X c #F6E25D",
"9X c #D8C96A",
"0X c #D5CB75",
"qX c #C8C775",
"wX c #F6D964",
"eX c #FDDE64",
"rX c #FEDC6B",
"tX c #FAD764",
"yX c #EFD872",
"uX c #EAD562",
"iX c #FDE265",
"pX c #FFEC65",
"aX c #FEE16B",
"sX c #FDEB6B",
"dX c #F6E76A",
"fX c #FBF067",
"gX c #FDED72",
"hX c #FBEC7C",
"jX c #FEF575",
"kX c #FFF57A",
"lX c #FFF87E",
"zX c #EBE165",
"xX c #D2CB87",
"cX c #F5EA80",
"vX c #FFF583",
/* pixels */
"                    X   O @   .     O       O O 6 z G.R.'.%XiXiXiXiXiX;X[.!.H.b 0 * X       . O . O O         O             ",
"                O               O X X   & k H.].zXdXpXpX5X4X8X>X=X@XoXS.,X4X5X6X4X_.L.x - O O X O X   + X                   ",
"                O .           O     5 D 9XjXsXsX4X>XXXXXV.B.m.B.XXB.B.B.N.c.N.V.oXoX<X2X&X! r   O O O         O             ",
"                      X   X   O 3 K.hXjXiX=XXXm.B.B.m.m.m.g.g.g.s.s.g.m.m.m.m.B.m.m.XXB.D.2X#X=.i       O O                 ",
"                        O O * G.cXhXiXOXN.B.m.m.d.s.s.s.g.g.j.g.g.g.s.s.s.d.s.d.f.M.g.s.m.c.N.,X1X/ 6 O   o                 ",
"                O   X O . k 0XkX>X@XV.M.M.g.g.m.g.M.M.m.f.g.j.m.g.m.M.g.g.g.s.s.j.s.g.y.g.m.V.n.M.D.C.M O   O .             ",
"                    O   D jX7X;X,XB.g.g.m.m.s.d.s.s.g.d.g.g.g.g.s.s.j.g.g.g.m.m.s.M.m.B.g.3.2.M.h.c.oXD./ 2   +             ",
"                  O * E.vX8X+XB.m.m.g.g.s.g.j.g.m.i.g.s.g.g.g.g.m.g.g.g.g.g.g.g.g.s.s.s.g.g.g.g.m.g.j.u.D.7.9 O             ",
"  O O .   X O   O - ).jX4XN.oXM.g.g.g.g.g.g.g.g.g.g.g.j.g.j.g.g.g.g.g.g.g.g.s.g.g.m.g.g.g.g.s.g.v.j.4.M.u.4.N.p O   X O   O ",
"    .     O   O 3 xXlX XN.V.j.s.g.g.g.g.g.g.m.g.m.m.m.m.m.g.m.M.g.g.g.g.g.g.g.g.g.g.g.g.g.g.j.g.g.g.g.m.B.y.A.C.s O X     X ",
"          X . < 9XhXOXV.M.g.s.g.g.g.g.g.m.m.M.g.m.m.m.m.m.m.m.m.m.m.m.m.g.g.g.g.g.g.j.g.g.g.g.g.g.g.j.3.m.v.s.6.n.l O o     ",
"    O   O . # qXgX>XD.M.i.g.m.g.g.g.g.m.g.m.B.M.m.m.B.m.m.B.m.m.m.m.m.m.m.m.m.g.g.g.s.g.g.g.g.g.g.y.k.j.g.c.m.u.4.b.r   X O ",
"          + E.kX=XoXm.g.M.g.m.h.M.g.m.m.M.B.B.B.B.B.B.B.B.B.B.B.B.B.M.M.m.m.m.m.g.g.g.g.g.g.g.g.i.M.i.B.m.3.g.M.u.s.l.2 X O ",
"@ O   X O N jX#XV.m.g.j.s.t.j.g.m.m.m.M.V.B.B.V.V.V.B.B.B.V.B.B.V.V.V.B.m.M.m.m.g.g.g.g.g.g.g.g.g.j.f.g.g.j.s.4.m.p.3.^ @   ",
"  . X . 0 cX6XXXM.g.g.g.s.M.h.m.M.B.V.B.V.V.V.V.V.V.oXV.V.V.V.oXV.V.V.B.B.B.B.M.g.m.M.g.g.g.g.g.m.3.a.g.3.g.m.j.y.s.u.0.j . ",
"O   O . qXgX+XXXM.m.g.i.g.m.B.B.B.B.B.V.V.V.V.oXoXoXoXoXoXoXoXoXV.oXV.V.B.B.m.B.M.m.m.m.g.g.g.g.g.g.g.B.s.s.g.i.i.a.&.%.;.7 ",
"X O O m jX>XB.B.g.g.g.g.m.m.B.B.V.V.V.V.oXoXoX@XoXoXoX@XoXoXoXoXoX+XXXoXV.V.V.V.V.M.m.g.g.g.s.g.i.g.g.g.s.g.f.0.8.#._ | ( B ",
"  : * 0XsX.XM.g.g.g.g.m.m.M.B.B.V.V.V.oXoXoXoXoXoXoXoX@X@XoXoX@XoXXXXXV.oXV.B.V.n.m.M.m.m.m.m.g.g.s.g.j.y.t.w.@.` _ K V q . ",
"  . m lX>Xm.m.g.g.m.m.m.M.B.B.V.V.B.oXoXoXoX@X@X@X@X@X@X@X@X@X@X@X@XoXoXoXoXV.V.V.B.m.m.m.m.i.g.d.g.u.z.w.@.[ _ J Z 7 . O O ",
"O . 0X7X+Xj.g.g.g.m.m.m.m.B.B.V.V.oXoXoX@X@X@X@X=X@X=X=X=X=X=X@X@X@X@X@XoXoXoXoXV.N.V.V.m.g.m.j.t.p.q.] ) *.R j 7 .   O   X ",
"O k kX@XB.g.g.g.g.g.m.m.V.N.oXV.oXoXoX@X@X@X@X=X=X=X*X=X=X=X=X=X@X=X@X@X@XoXoXoXM.V.B.B.c.g.f.5.q.%.` ) H j 3 O   X .     . ",
"  I.fXOXm.m.g.M.m.m.M.B.V.V.V.oXoXoX@X@X@X=X=X=X:X=X:X:X:X:X:X=X=X=X@X@X@X@XoXXXoXV..XV.N.e.8.@.) H R g < .     X   O O .   ",
"* 9X7XXXm.g.g.s.m.m.m.B.V.V.V.XXoX@X@X@X=X=X=X:X:X=X:X:X:X:X=X:X:X=X=X@X@X@X@XoXXX.X|.|.>.+.*.( J d 1 O O O   .     . .   O ",
"u dX=XB.g.s.M.g.m.m.M.B.V.XXoXoX@X@X@X@X=X=X:X=X:X:X:X:X:X:X:X:X=X=X=X=X=X@X+XXXC.|.l.;.| ( T f > X     .         X       O ",
"D dX,Xm.f.d.g.m.M.m.B.B.V.oXoXoXoX@X=X=X=X=X:XeX:X:XeXeXeX:XeX:X:X=X=X=X@X*X+X}.Q.-. .~ P a - O                             ",
"I.sXV.B.g.g.g.m.m.M.B.B.B.oXoX@X@X@X=X=X=X=X:X:XeXeXeXeXeXeXeX:XtXtXeX*XOX}.~.-.*.^ P p 2 ;   .                             ",
"9X6XB.m.g.s.g.M.M.m.B.V.V.oXoXoX@X@X=X=X=X:X:XeXeXiXeXiXrXaXeXeX#X4X-X}.(.W.*.( I p - O O     .                             ",
"yX=XB.m.g.g.m.g.M.B.B.V.oXoXoX@X@X=X=X:X=X:X:XeXiXrXaXaXaXaXiXwX:X$X~.W.*.( S t + O     X                                   ",
"dX@XB.m.g.g.g.g.B.B.B.V.XXoX@XoX@X=X=X=X6X:X:XeXeXaXaXaXaXaXrXwX}.^./.Y.A r #   O X   . . . O                               ",
"eX1XV.m.s.g.m.j.m.B.B.V.B.oXoX@X@X@X=X:X=X:XeXeXrXaXaXaXaXaXtX%X^.~.U y ,     X X       O     O                             ",
"aX@XV.m.d.g.m.m.m.B.B.V.oXoX@X@X@X@X=X=X=X:X:XeXiXiXaXiXiXrXtX-X!.e . O X   .     O O       . O                             ",
"iX4XN.m.d.g.c.g.M.M.V.V.V.XXoXoX@X=X=X=X=X:X:XeXrXeXeXiXaXaXwX-X$XL.i X O O   .         O                                   ",
"rX=XV.h.g.m.s.N.m.m.B.B.V.V.oXoX@X@X=X=X=X6X:XeXeXiXeXrXeXeXeXeX;X6XpX!.l & O O X O   O     .   O O   O                     ",
"wX@XB.g.g.g.s.m.m.B.M.B.V.oXoXoX@X@X@X=X=X:X:X:XeX:XeXiXeXeX:XeXiXeXrXsXfX].c & O   .         O .         O                 ",
"uX1XB.g.g.m.s.m.m.m.B.B.B.oXoXoX@X@X@X=X=X=X:X:X:X:X:X:X:X:X:X:X:X=X:X>X:XpXdX[.m <   X   X O             O O X             ",
"'.1Xm.M.j.g.s.h.m.m.M.B.B.V.oXoX@XoX@X@X=X=X=X=X:X=X:X:X:X=X:X:X=X=X=X:X:X>X4X1XpX[.D > O     O   O ; O       O             ",
"U.4Xm.m.f.g.s.g.M.g.m.B.B.V.V.oXoX@XoX@X@X=X=X=X=X=X=X:X:X=X:X=X:X*X=X4X+X+X4X+XXX1X5X{.A 5 .   O X X     .   O             ",
"D 6XB.m.h.g.g.g.g.m.m.m.B.V.V.V.oXXX@X@X@X=X@X@X=X=X:X=X:X=X=X=X:X4X@XoX=X=XXXV..X@XXX@X2X&XU 4 O .       O O               ",
"u ;XoXB.f.g.g.g.g.g.m.m.B.B.V.V.V.XXoXoXoX@X@X=X=X@X=X=X=X=X@X@X=X@X@XoXV.V.V.@X,XB.+XXXN.oX2X XI w .   X                   ",
"$ {.oXB.s.j.g.s.g.g.M.M.B.B.B.B.oXXXoXoX@X@X@X@X@X@X@X1X@X@X@X@XoX@X@X+XoXoXoXoXXXB.M.m.M.M.c.V.D.#XL.8 O   X O             ",
"X J.1XM.B.3.g.h.g.m.g.M.m.m.B.V.V.V.V.oXoXoX@X@X@X@X@X@XoX@X@X@X@XoXoXoXoXV.V.V.B.B.M.m.m.m.g.g.g.m.,X1XY.t + O   @   O . O ",
"  i 5XXXm.s.m.h.g.g.g.m.m.m.B.V.V.B.V.V.oXoXoXoXoX@XoXoX@X@XoXoXoXoXoXoXV.B.V.B.B.m.m.m.m.g.g.g.N.m.N.b.<X2X/ p +   X O O . ",
"O o `.oXB.g.j.g.g.j.g.g.m.m.m.M.B.B.B.oXV.oXoXoXoXXXoXoXoXoXoXoXoXoXV.V.V.B.B.B.M.M.m.m.g.g.g.g.g.g.g.m.M.B.,X4XT.g O X X X ",
"  O b 2Xv.g.s.M.g.s.g.g.g.m.m.m.M.B.B.B.B.V.V.V.oXXXoXXXB.XXXXoXoXV.V.B.V.B.m.m.m.m.g.g.g.g.g.s.s.g.g.s.s.B.B.g.,XoXW.v o O ",
"X O - _.V.h.f.g.g.g.g.d.g.g.g.M.M.m.m.m.B.B.B.V.B.B.V.V.V.V.V.V.B.V.B.B.m.M.m.m.m.g.g.g.g.g.g.s.j.g.g.g.j.3.s.g.V.u.,XF.O.v ",
"  X O b 3XN.B.s.g.g.g.g.g.g.g.g.m.m.m.m.m.B.M.M.B.B.B.B.B.B.B.B.B.M.B.M.m.m.m.m.g.g.g.g.g.g.g.j.a.g.M.m.m.h.d.j.C.h.t.:.>.P.",
"    . # T.V.B.g.g.g.g.g.s.g.g.m.m.g.g.m.m.m.m.B.M.B.M.B.M.B.B.B.m.M.m.m.m.M.g.m.m.g.g.j.g.g.g.g.g.g.m.g.d.g.c.v.m.t.,.) R 1 ",
"O   X O w D.c.M.m.g.g.g.g.g.g.g.g.g.g.g.m.m.m.B.m.m.M.M.m.M.m.m.m.m.m.m.g.m.g.g.g.g.g.g.g.g.g.j.g.g.g.s.d.s.s.s.u.{  .K a   ",
"  . O .   M F.m.M.s.j.s.s.g.g.g.g.g.g.g.s.g.g.g.m.m.m.m.g.m.m.g.g.g.g.g.g.g.g.g.g.g.m.g.g.g.g.d.3.j.g.g.g.g.g.2.w._ E C   ; ",
"        O . L.F.v.g.f.M.c.m.d.m.g.g.g.g.j.g.g.g.g.g.g.g.g.g.i.m.g.g.g.g.g.j.g.g.g.g.g.g.j.g.g.g.B.s.a.g.j.i.v.0.] _ I % X X ",
"  @   O   O % =.A.c.m.s.M.g.s.s.g.g.g.g.g.g.g.g.g.g.g.g.g.g.g.g.g.g.g.g.g.g.g.s.g.g.g.g.g.g.g.g.m.V.g.a.g.y.9.%.} Y 3 O     ",
"  O   O X   O 3 7.j.s.f.s.k.j.m.g.g.g.g.d.g.g.g.g.g.g.g.g.g.g.g.g.j.g.g.g.j.g.g.g.g.g.g.g.g.g.g.y.g.m.g.y.w.o.H Y 9 O X X   ",
"  O       O     2 7.Z.x.m.d.y.B.g.g.g.g.g.g.g.g.g.g.g.g.g.g.g.g.g.g.g.g.g.g.g.g.g.g.g.g.g.g.g.g.i.3.s.i.:.+.W P i   O     . ",
".   O .   O   X O 2 O.Z.x.s.3.f.g.g.g.g.g.g.g.s.g.g.g.g.g.g.g.g.s.g.g.g.g.g.g.g.g.g.s.g.g.g.g.g.g.s.0.z...G I w   O     O   ",
"    O     O     O X * R j.u.i.4.s.g.s.g.g.g.g.g.g.g.g.g.g.g.g.g.j.g.j.g.g.g.j.g.g.g.g.g.g.g.f.s.t.9.>.W ^ S < . O           ",
"  O X   O     O .   X . C N.s.b.y.s.g.s.g.g.g.g.g.g.g.g.g.g.g.g.g.g.g.g.g.g.s.g.s.g.g.s.g.g.i.t.q.$.G H j & O X .       X O ",
"                      .   r =.j.r.e.i.g.g.s.g.m.i.m.g.g.g.s.s.g.g.g.g.g.s.d.d.s.s.s.c.m.f.t.q.$.} H F i   O X               ",
"                O     O @   % C 1.p.r.8.u.c.g.h.s.s.s.f.g.h.g.m.d.s.g.m.m.m.m.v.a.s.f.p.:.@.X.) H v 2 .       .             ",
"                O   .     :   . 3 Z <.u.:.:.w.r.t.i.i.g.j.g.f.h.g.g.f.y.y.2.y.t.u.>.@.] ] | Y B 4 . O o   O +               ",
"                  +   X O X   X     3 n ..:.:.<.>.>.:.:.:.p.t.t.0.w.u.u.w.w.&.+.o.] ..^ I g 7 X           O   O             ",
"                    . O     O     . .   o i V Q O.+.#.#.#.%.o.X.$.$.] ] ' ' ..) H P n e %     O X X   O O   X               ",
"                      O .     O O X X   O   . X 4 p h S R W K ' _ ^ W Q J Z d f 3 $     X       ;             O             "
};
