/* XPM */
static char *Stone_02_128x1281706703094[] = {
/* columns rows colors chars-per-pixel */
"62 62 37 1 ",
"  c #5E413E",
". c #60423F",
"X c #5F4340",
"o c #644542",
"O c #6A4645",
"+ c #674845",
"@ c #6B4946",
"# c #6E4C49",
"$ c #724747",
"% c #714947",
"& c #734D4B",
"* c #7A4E4D",
"= c #75514E",
"- c #7B514F",
"; c #775350",
": c #7C5451",
"> c #7E5855",
", c #80504F",
"< c #835553",
"1 c #895755",
"2 c #835956",
"3 c #8A5957",
"4 c #855C59",
"5 c #8B5C5A",
"6 c #925E5C",
"7 c #8D615D",
"8 c #94615E",
"9 c #99615F",
"0 c #946461",
"q c #9B6462",
"w c #976965",
"e c #9D6966",
"r c #A16665",
"t c #A26966",
"y c #A66A68",
"u c #AF6F6D",
"i c #A8716E",
/* pixels */
"#-;2=;;;4444:#<:*:56<:651:*6<:4;&-5**<<::&:280q0>2=:2=;@;>#+oo",
"%::=#&+<4&254<5;2363&<q2*&53&31;<::&<3@&=2240>4::2243&o=5#oOo.",
">52;;&:04>5&<<:*535-&56-,3q4;;&&---&;&&545-44;>4-553-@#4;o@@@=",
"255<<3454;&+-,<63&$<<861*<<&#+#-##&*<-6rq8e0><7255=**262#X+;=;",
"24>>8650;-O%;*4<<*<3&<<*O<2@#+###&:<<9q6qy02=48;<&<3391##o#&-;",
"75;7qt0::##<:>:#@<q-o@$o*3;=;%OO*,6*1r3000:4>7-=:*6656OOO&;<2;",
"4:5e6823<%5><<>#<:<**::<6<;=2;X&<66<806q74:4>:&2<<66<-O%=::<<:",
"58q6393;$5q<-<3<2@&<3669632=#&-285:<8<072#==2=2866<<@O@&---&-<",
"8072qq<&<q<=:33:#@2<165533&%>;+;2-<66656;==2:2533*,,*%%*&-&<<5",
"485462:<3;#==;<&o&><16<<--&->##:#&qq66<::>74=25,*<,<<*-*&<<:&5",
"8t2<<1<:&&&;&=<*&;;4<:&%*&:=#;#=:>0:<54><42:<2<162<*<<1:3q:O<q",
"93*;36<;@@;4;>4>>><=&%o@&:&#=&+;24==<54<92;<<31<1*<-250>35::56",
"6;:<11<-;;:>>>5&:&;=@o+#===;=;;;::;085-28<:*<1,<1*;465<*3634<q",
"2*,1,6<:2474>>#+&;>@+@===;:=;=284>7wq38q4--&,-&3<*<65<<<386<18",
"*&5635=2;&;;#;;##;#@##;;;;;=&;44;>222-<<-**,35<3*:55-<1:<3<13>",
"<%<65=2<;#%=:7>+#&@+&>52;====;4744&<&*<-*-1<636314<&O&>%:<,6<*",
":%65*4:<@o4247o #@===2;;-44==-7=;:34>;6<,13-<1--6q4<&<<%<:<;*;",
"%:5;<<*,:2547=++o#=o#;=;77==>>>>>>55=2:<33*,12-8r5<,*<<<<-;&<-",
";<:3:3<<:;<;;=@O:;=@24257=#:>744=24==2>&<1-2=;>43**<<8551652:&",
"<25345<<2;:2=+&>;=&;54<<>-4777===&:=72&-52=2>2-4:=:3352<<56&&:",
"5005:*<66*15<;-&o# &6=-<>7774;>>#=;42=<03-74=>>;:;4:<55<*<<*33",
"w52**1*<<3333-,@o@o#--<2777>>;-=+>>4>442-44>=>>742<*386<<136q8",
"3&%*3<62<<;<<-<@#>=&6<44>;#2==@@=7472=#;2;4477>;:>:=<5:3636532",
"&O*4*<<=<52;=<-*;>#<<<;&>>;>==#>74>=#&&;@=7=>==;::::8q68<<3952",
"@&<>O*;<81---<**2:&&=-=>774>44=>;;;;:<;#=4;&>&=>44;0w027=:;<-o",
"<<>&&;<<1136<<-<2@@&&;>>72;774=;;=+;62=&;:=;=&;4>=>77>2;@#-:-&",
"<3<=;%-586<33,,2&-=#@>>074277>=#:>;45->24:2:=>>=@=47=##@&<-2-<",
"92;<&O;483-1<&33=;=;=>784>7877-=;::4=:2=;=;=;>==&>4;;oo&<534&<",
"2=>>#=>2:<,6,28-:<&&>774->873<%##oo@;:;X&+=;>44=:2#+@ ;8-,=#+-",
"====@+=2-=35<1-2<2->744442742<==@&##:=#@=;>727:;5&#-;;2:&2-+=-",
":=;=Xo;=#2-=@-%-#=:7777>;;2>2#=#&;272#@#27472;:::<37%&& ;4=@#>",
";&####>>2-@-&2-===>7w744>-=-====@;2=@&@;>4742:2::3;&O5*&==#@>>",
"4;<=:275#+&<<--22777072>>:;74;*&&;&+oo+>7742=4;52:-#53,-%-&->4",
"==>=<2=%#=261<55;4777>=&&=25:&#-;=;++=>0e2==>;4<&*%3:-<O-4:>>4",
"@===-=&->473,68:&>=;;# @=2>#;;&4&;-@;5707;;;-;2-::<52-==52>2=@",
";<=-23<-4>2-88622;=>==@=;;;-42=&==&#2774<<-2>42-&&&<-&&-;>>-;=",
";788888q8858q153=&4>>>=&24>&:##;2;&#784=*&:w75-+ .O@@=:<<72;4;",
"40q39<86863t65q<&&44:;#;4=#=&:;<2&&:4;=:<<84>=&.&*<<-1<-2523:-",
"9r61355w5-6q6uq5@#;=--&==X&&&>-;#o;:-#>45q5:@Xo@<356,1*,5<1**5",
"888<88qt<6t6611&.&7<5:&&++##&>&===;#=4745-=;&-*-233<*-,65<1357",
"2qq6q66216q4,1-*&2q66<:&##;=2>==@=-=;252&-352312:-<*-<-66<5522",
"78393<6839<&-6,*<:<5<-:#&;5;>;&@@;>25352=<3,*<<--2&*3--9<<3==4",
"852*O<355-%@<<*-%*1<,<&-#=4;#@#&;;2<2:3:-3*@**<:<=*23<6872##<9",
"98*<1335-O&&&%<,$<33,<:<#>7=o#:;;>2:<<7-2<*,<15<-:-<3586222>59",
"63-3386,&@-o*3,%*<--<1-&#>=  #=;2225<<-331*&<66<-2569556963<69",
"3:22:-&-&%&+2-&=2:@:<1*-==+#=;44:#&-*,=31*-&3<3<462:<<58613<99",
"::2-;<<<--;<2;-#:&-$<1*-#+=;;7e2#&--*,=<-%%*<258072-<5r6333333",
"<<-231<-05;43:-;5<<*31@:;;=>47;+=;--<322&-%<56222::20r6<,<<316",
":365=-<00<469<*:33*:<;*<==>42;+@#=-&43<<-5<53<3<7<:59<,,$<4265",
"6t<O-<6<&**<&&<*:&%**<2447>>4=#;<5>>---27223,9r64-&2-+22551<36",
"q<&<<*<3<<,OO<,-%$*&53;<>2:2;=;<33-##-244<8-<9t63=-2#>524<>799",
"2,,531q**:*,1<<*O<11<%64;>=;-:>;257-52:8898@*t8*3-4455;22;7895",
":<5w;>:*51<63<-%1136%45=>4>22227472-5<5r96-=;8--44w74==;>>>>7=",
"-<63&;;<5<<*<:<5q<66:70ee3:>2;4:>2%-<*16<,%=2<q820e+=>;;>;44=#",
"<<2&#@:<*--:3:861<6<>7tu6:45244>4#%-,656,&$<<3q5784>4==>=>74;=",
"<-*<-<4-<6q52662,<5<65ry2wi7472;-=&133<,O*68268==>4==###=>;>;=",
"-%-3,<,3361<8q35%:1:36q666q>;:=&5-#-<--&O286655&42>=2==->74>7=",
"+o<3*&1,*1*56<3*&<-56:33<::##=@==%&,-*5->422<<2<4477;2<=&2==-+",
"o@*,:561<;-<<61&**66&*11<<2&&=o&@O-%O:<<775<33;7e>7>;;-@<;>-@+",
"@--56<:#O#:<32*<<38%@*5yqq<&#oO#+--@:6::22=3<&277402:=&#-=>;#=",
"oO;3:&#&:=><75<:&<*&;<q631*$%%**--*5<-&<5;:;;4077>;=>=@@=>>>=#",
".&:;;=;;==532=%@%@&3<<65<<516<4===:<*-255=&&00qt4=;=;=#==>;#o "
};
