/* XPM */
static char *Background1706806458[] = {
/* columns rows colors chars-per-pixel */
"42 42 230 2 ",
"   c #352B33",
".  c #3C2A31",
"X  c #3D3137",
"o  c #36333A",
"O  c #3B353C",
"+  c #3D383E",
"@  c #353137",
"#  c #7E0C0E",
"$  c #760A0B",
"%  c #730F11",
"&  c #681315",
"*  c #751416",
"=  c #7D1A1D",
"-  c #630E10",
";  c #7A1F21",
":  c #6D1F23",
">  c #4A292D",
",  c #5A272C",
"<  c #452D33",
"1  c #4C2D33",
"2  c #5C2C32",
"3  c #532C33",
"4  c #423236",
"5  c #43353C",
"6  c #4D353B",
"7  c #44393E",
"8  c #4B393E",
"9  c #4B3035",
"0  c #5C3137",
"q  c #52353C",
"w  c #5A353C",
"e  c #54393E",
"r  c #583339",
"t  c #6D2529",
"y  c #66262A",
"u  c #74252A",
"i  c #7B2429",
"p  c #782428",
"a  c #632D33",
"s  c #6B2E33",
"d  c #752D33",
"f  c #7B2C32",
"g  c #633035",
"h  c #65353B",
"j  c #6C353C",
"k  c #63383F",
"l  c #6A393E",
"z  c #6C3235",
"x  c #753137",
"c  c #7D3236",
"v  c #75363C",
"b  c #7E3439",
"n  c #753A3F",
"m  c #3D3A42",
"M  c #3B3944",
"N  c #433C44",
"B  c #4B3D43",
"V  c #423F48",
"C  c #463A44",
"Z  c #533B43",
"A  c #5A3D44",
"S  c #5B3D48",
"D  c #633D43",
"F  c #6B3D43",
"G  c #743C41",
"H  c #7A3D43",
"J  c #454047",
"K  c #4C4146",
"L  c #464149",
"P  c #4A444B",
"I  c #4E484F",
"U  c #53444B",
"Y  c #5B444B",
"T  c #51494E",
"R  c #564147",
"E  c #4C4751",
"W  c #4D4952",
"Q  c #534C54",
"!  c #5B4D53",
"~  c #564D57",
"^  c #5A5359",
"/  c #634144",
"(  c #65454A",
")  c #66494D",
"_  c #6B454C",
"`  c #714146",
"'  c #75474D",
"]  c #614C53",
"[  c #645459",
"{  c #705357",
"}  c #645A62",
"|  c #7B7777",
" . c #8C0A0B",
".. c #88090A",
"X. c #940506",
"o. c #9C0506",
"O. c #960708",
"+. c #930A0B",
"@. c #9A0B0C",
"#. c #980708",
"$. c #890F11",
"%. c #930F10",
"&. c #9C0F10",
"*. c #8B1416",
"=. c #821618",
"-. c #8C1719",
";. c #851B1D",
":. c #8E191C",
">. c #841314",
",. c #931214",
"<. c #9C1314",
"1. c #9B1618",
"2. c #95191B",
"3. c #9A1C1E",
"4. c #AC0405",
"5. c #A5090A",
"6. c #B30202",
"7. c #BB0303",
"8. c #BE0C0C",
"9. c #A41A1C",
"0. c #AB1B1D",
"q. c #A41516",
"w. c #BA1919",
"e. c #841E22",
"r. c #8B1D20",
"t. c #9D1E22",
"y. c #941E21",
"u. c #B01E21",
"i. c #842226",
"p. c #85262B",
"a. c #8A252A",
"s. c #822A2E",
"d. c #8C2A2D",
"f. c #892126",
"g. c #9A2325",
"h. c #93262A",
"j. c #9A2428",
"k. c #94292C",
"l. c #842D32",
"z. c #892D32",
"x. c #942C31",
"c. c #843136",
"v. c #823439",
"b. c #85353A",
"n. c #A42427",
"m. c #BA2B2B",
"M. c #BB3838",
"N. c #A02B30",
"B. c #C50304",
"V. c #C70404",
"C. c #D40101",
"Z. c #DD0202",
"A. c #D40A0A",
"S. c #CB1919",
"D. c #D51414",
"F. c #D21C1C",
"G. c #DD1313",
"H. c #E40000",
"J. c #EC0000",
"K. c #EC0A0A",
"L. c #E70C0C",
"P. c #F50101",
"I. c #FE0000",
"U. c #FF0A0A",
"Y. c #E31111",
"T. c #E81717",
"R. c #FF1414",
"E. c #FE1C1C",
"W. c #F31B1B",
"Q. c #D42D2D",
"!. c #D92121",
"~. c #D33333",
"^. c #D83A3A",
"/. c #CC2E2E",
"(. c #FE2626",
"). c #FF3434",
"_. c #FA3939",
"`. c #E73535",
"'. c #823B41",
"]. c #9B5757",
"[. c #B94747",
"{. c #AF4242",
"}. c #937D7D",
"|. c #BC6464",
" X c #BC6B6B",
".X c #BD7C7C",
"XX c #AE6565",
"oX c #D54545",
"OX c #D74A4A",
"+X c #C15151",
"@X c #D85252",
"#X c #FD4545",
"$X c #FF4A4A",
"%X c #FF5454",
"&X c #FF5C5C",
"*X c #E54747",
"=X c #C47C7C",
"-X c #D37272",
";X c #FF6B6B",
":X c #F86565",
">X c #FD7474",
",X c #FD7A7A",
"<X c #ED6161",
"1X c #9A9797",
"2X c #BA8282",
"3X c #AF8E8E",
"4X c #BBA3A3",
"5X c #B1B4B4",
"6X c #C49494",
"7X c #D08585",
"8X c #F58383",
"9X c #FE8585",
"0X c #FE8D8D",
"qX c #F58D8D",
"wX c #FE9393",
"eX c #F69191",
"rX c #EA8888",
"tX c #C9ACAC",
"yX c #CEB2B2",
"uX c #CDCDCD",
"iX c #D8CACA",
"pX c #D9D5D5",
"aX c #E2DADA",
"sX c #DFE1E1",
"dX c #E5E6E6",
"fX c #EEEFEF",
"gX c #E6EBEB",
"hX c #FCFCFC",
"jX c #F4F8F8",
"kX c #EFF3F3",
/* pixels */
"P N J J L I L P P L P L L L L V m m O N K N O O o + O O + + + J N + K + J J J L L J ",
"P P J J P I L L m L P L I E K N O 5 5 8 B C C X X 7 7 X + 7 m J m N L J J P P P L L ",
"P P L J I L V L J K P K P U R 8 8 q e e e 6 6 6 8 8 8 5 8 B J P Q L L N J K L J J P ",
"L L m P P V J M N J K K K R R w w l j g g a g z h h r 8 8 e K T P L C V P P L P L J ",
"L m m m m J m + + B B A / h v x f c.f s.i s.s.c.c.d z g 0 w e R U P V Q Q E Q Q L J ",
"m m m m M M + + 4 e w h x d z.d.j.j.g.g.y.:.f.j.k.d.i.f d a h A Y K T ! Q Q Q E P P ",
"m m m m m 7 N 7 6 0 z c d.h.n.n.9.0.9.q.<.&.<.q.9.9.3.g.a.i c n D Y Y E V E ~ Q P V ",
"m M O + o O 5 6 3 a l.d.3.0.<.,. .+.@.@.&.q.q.+. . .,.1.9.n.k.b.H F Y B K ! ~ W L M ",
"+ O o O @ X 8 3 y p h.3.1.%.&.0.m.~.oXOXOXOXQ.D.V.7.4.@.%.2.g.k.v.G D Z Z Q Q V L m ",
"+ o o O X 4 1 , u i.2.%.%.q.m.oX<X>X>X>X;X%X).R.I.J.C.6.o.+.<.g.h.v.j S Y Q V M m m ",
"+ o o O X 9 , y ;.2.$. .q.^.>X9XeXqX,X&X_.E.U.I.I.I.I.P.H.4. .,.j.x.b F S C M M m m ",
"o o o   . > , p ;.>. .w.*X,XqX0X,X&X).E.R.I.I.I.I.I.I.I.P.H.B. .2.a.z.j Z 6 O m m m ",
"o + @ . < > y ;.=.>.w.*X>XeX,X<X_.E.U.I.I.I.I.I.I.I.I.I.I.I.H.6. .r.x.b h Z 7 O + O ",
"m + @ . > , : ;.# &.`.>XeXrX-XoX!.L.P.P.I.I.I.I.I.P.P.K.Y.Y.L.H.o.*.f.c.n q 5 + + + ",
"m o   . > y ; * X.S.:X8X7X2X3X6X.X{.D.H.I.I.I.I.I.H.S.[. X|.+XA.7.@.; s.n r Z B m + ",
"+ o @ 9 , t ; % 5.`.,X7X6XyXaXiX1XY ;.V.P.I.I.I.P./.-XyXiXiXtX|.w.5.* p.b h R C + o ",
"O + X 9 , p = $ 8.#XrX.X4XdXhXdX5XQ / 0.P.I.I.P.Z.[.4XfXhXhXfXyX[.5.# f.c F S B N N ",
"N @ 4 9 , p = ..S.%XqX2XtXjXhXfXuX1X}.{.H.P.I.P.D.].1X5XfXhXjXdX|.q...r.f j Z Z P P ",
"N + 9 r s p = ../.&XeX7X4XaXjXhXjXpX2Xm.J.I.I.P.A.= K | sXhXjXpX[.q.X.r.l.z D B K V ",
"N + 5 r t i =.X./.;XwX-X=X6XiXaXiXyX[.D.I.I.I.I.H..., | uXsXiX2X~.8.%.r.l.v D Z P V ",
"O + 8 0 t i.;.X.Q.;XwX8X@XM.|..X XM.D.P.I.I.I.I.I.C.m.XX6X6X=Xm.T.S.1.;.i x D Z K C ",
"+ 7 6 0 d i.-.X.~.;XwX9X#XK.Y.G.Y.K.P.I.I.I.I.I.I.P.K.G.!.F.G.J.(.Q.g.;.p.d D Z C M ",
"+ 7 8 l c a.:.X.~.>XwX9X#XI.I.P.P.I.I.I.I.I.I.I.I.I.I.P.J.J.P.I.).~.j.r.p.d k Z N B ",
"J C e G v.a.:.o.Q.;XwX9X$XI.I.I.I.I.I.I.I.I.I.I.I.I.I.I.I.I.I.U.#XOXj.r.a.x l Z C m ",
"N 7 e l b d.2.X.Q.;XwX9X$XI.I.I.I.I.I.I.I.I.I.I.I.I.I.I.I.I.I.E.&X@X3.:.s.d h 8 N 7 ",
"K B e h v.a.-.o.!.&X0X9X$XU.I.I.I.I.I.I.I.I.I.I.I.I.I.I.I.I.U.).;X@X1.:.i.d h 6 7 N ",
"C 7 e n v.a.-.o.D.$X0X9X$XU.I.I.I.I.I.I.I.I.I.I.I.I.I.I.I.I.(.&X>XOX@.-.i.f h e B 7 ",
"+ K R l v.a.-.o.A.).,X,X#XI.I.I.I.I.I.I.I.I.I.I.I.I.I.I.I.U._.,X>X^.o.*.e.u 0 e U m ",
"J K Z ` v.a.:.o.C.E.$X%X).I.I.I.I.I.I.I.I.I.I.I.I.I.I.I.I.E.$X0X;XQ.o.>.;.t g R U C ",
"K R ) ` v.d.:.o.C.I.E.E.U.I.I.I.I.I.I.I.I.I.I.I.I.I.I.I.I.U.).;X:X^.o.*.e.u l / T P ",
"I T ) ' '.d.:.o.C.I.I.P.P.I.I.I.I.I.I.P.H.J.P.I.I.I.I.I.I.J.L.).$X~.%.*.i f h A U T ",
"^ ] { ' '.d.:.#.C.I.J.Z.Z.P.I.I.I.I.J.C.6.6.C.J.I.I.I.P.H.7.4.C.W.F.%.-.e.c l ) ! Q ",
"[ [ [ _ '.z.r.O.V.Z.4.5.o.6.H.I.I.H.4.#.5.@.#.4.H.I.P.Z.4.X.X.X.V.7. .;.d.b._ { ^ ^ ",
"} ^ ] _ H c.e.# o.4.&.&.@.+.4.B.B.4.+.,.q.0.,.%.5.B.B.5.$.,.,.$.+.X.$ ; s.n _ ) ^ [ ",
"~ ~ ! S h v.i * % *.0.w.0.t.= ....* r.t.t.n.n.e.* $ $ * ;.y.t.2.* - - i c l Y ! [ ~ ",
"~ ~ B Z F v f i f.h.N.j.N.x.p.p p f l.z.z.z.l.f u y : t p p p p ; t t d a w A ) ^ W ",
"~ W Q S Z w z d f l.c.b.b.'.G v H H G z j g 2 2 2 3 2 2 2 2 a , , , z 2 3 8 K ! Q W ",
"~ W L N 5 q D h F G H G F F D D ( ( S Z A 6 9 < < < 9 6 9 9 > > > 3 1 q 6 4 K ~ W W ",
"W V M M C 8 Z 6 D ( ) ] Y S S Y Z P B C 7 O @ @ 5 8 7 C 7 7 X X 4 4 8 B B 7 R L L E ",
"E M M L C C 5 5 U S U E U U E V V T P C N o O O C J C 7 + 7 X o 5 7 5 C K J J J V E ",
"m m P P L K N B E V P E V V P E L L V V o V M O M o o O o + o o o X + m N L P L L M ",
"m J L L P P I P P P P E V P I E L M o o + V o + o o O + O o o + + + J + P P L L L m "
};
