/* XPM */
static char *wall1706777515__1_1706777645[] = {
/* columns rows colors chars-per-pixel */
"42 42 122 2 ",
"   c #725447",
".  c #735649",
"X  c #74594D",
"o  c #7C5B4D",
"O  c #755C50",
"+  c #7B5E50",
"@  c #7C6254",
"#  c #7F6658",
"$  c #835C4D",
"%  c #895E4D",
"&  c #905F4E",
"*  c #845F51",
"=  c #85604F",
"-  c #8D604F",
";  c #92624F",
":  c #846354",
">  c #8C6554",
",  c #8E6856",
"<  c #826759",
"1  c #8A6758",
"2  c #856A5A",
"3  c #8D6B5A",
"4  c #926654",
"5  c #9C6754",
"6  c #946857",
"7  c #9A6956",
"8  c #906758",
"9  c #936D5B",
"0  c #9B6D5A",
"q  c #8F705F",
"w  c #94715F",
"e  c #9B715E",
"r  c #A16653",
"t  c #A46A56",
"y  c #AB6B56",
"u  c #A36D5A",
"i  c #AB6F5A",
"p  c #B06E59",
"a  c #A3725D",
"s  c #AC725D",
"d  c #B3745D",
"f  c #BA765E",
"g  c #BB785E",
"h  c #8D7161",
"j  c #937362",
"k  c #9B7562",
"l  c #967867",
"z  c #9C7966",
"x  c #9B7B6A",
"c  c #A47562",
"v  c #AC7661",
"b  c #A37A66",
"n  c #AD7964",
"m  c #A47E6A",
"M  c #AB7D69",
"N  c #B37661",
"B  c #BA7660",
"V  c #B47A64",
"C  c #BB7C64",
"Z  c #B47E69",
"A  c #BA7E69",
"S  c #C27D65",
"D  c #C87F67",
"F  c #C27F69",
"G  c #CD7F68",
"H  c #9E806D",
"J  c #A4816E",
"K  c #AC826D",
"L  c #BB8067",
"P  c #B5826C",
"I  c #BC836C",
"U  c #BE886E",
"Y  c #A48470",
"T  c #AC8671",
"R  c #AA8974",
"E  c #AC8E7B",
"W  c #B48671",
"Q  c #BB8671",
"!  c #B48A73",
"~  c #BD8A74",
"^  c #B38E78",
"/  c #BA8F7A",
"(  c #AF907A",
")  c #BD9077",
"_  c #B5947E",
"`  c #BB927A",
"'  c #C48166",
"]  c #C3846B",
"[  c #CA856C",
"{  c #C3886F",
"}  c #CA896E",
"|  c #C28671",
" . c #C88770",
".. c #C38B73",
"X. c #CA8B73",
"o. c #C38F79",
"O. c #CB8F78",
"+. c #D08B73",
"@. c #C09077",
"#. c #CB9177",
"$. c #C4937B",
"%. c #CB937A",
"&. c #C0987F",
"*. c #CB987C",
"=. c #D19076",
"-. c #D2947B",
";. c #D99478",
":. c #D0997C",
">. c #BD9C84",
",. c #C99780",
"<. c #C39A83",
"1. c #CC9C83",
"2. c #CC9E88",
"3. c #D59780",
"4. c #D69D83",
"5. c #C5A087",
"6. c #CAA085",
"7. c #C6A188",
"8. c #CAA48A",
"9. c #CAAA8F",
"0. c #D4A38B",
"q. c #D0AE92",
/* pixels */
"h 6 A N V A p s t > x , d D S g g L A t w h 0 F F A V V } I w w = d ~ ~ ] } U V c j ",
"7.z 7 V V A C d 6 e X.) 4 p [ B D [ v 6 B Q w 7 I Q L C C 9 9 L c ; v U I { { s : n ",
") @.k 4 C ' d 6 e P I ] K 9 d D [ c 6 n B B o.l k I F V 4 4 V s V n 9 v L ] s 2 a ~ ",
"P C @.z 7 s 4 7 V U C d { _ > y u 1 N C C Z V o.b 7 A 9 6 s V i s P z 9 s a , b Z / ",
"I A I %.k . > A o.V d s v #.P + + W B N A Z Z | #.j @ 9 s P ` P V s L z o $ v V s V ",
"C L P A o.z % I L V V N L ..{ ~ 3 v C A A A N N N ~ h , I ` ` >.) s s L J < v V d s ",
"V V P P A ..0 4 V C L L I I ~ U / 3 5 Z A o.Q A N C ..w 9 P P ^ _ d s s P K 8 s C d ",
"F A P I d d { 9 ; V / @.L P I V ..` 3 c I A ~ ~ Q A A U w 9 L ! ) I V V s $.R , a V ",
"~ Q W N V N V @.k 6 I { L U P P A ,.>.h c A A F | Q Q O.O.j 0 Z Q &.W v I W { K : s ",
"W ~ V N P Z V I 1.z 6 L U I L C S / ,.W 8 v ,.F A Q ~ o.| <.x 0 I ) ` L U ) v L ^ @ ",
": s d v P P Z I o.! # 6 L I d V B / ,.,.x * N A N / ~ A | ,.>.O a U ! V P U P P @.z ",
"! > n Q Z V P o.k 3 P k - L d i v B N 9 n M & u A ~ Q Q | c z ! 3 0 V d v v L n 9 M ",
"X.^ q b U L L m q a d U w 4 f d d s * 6 Z O.W $ t B p A u 3 Z A P 9 7 v s d n 3 0 g ",
"V ~ W 2 n  .M 2 e Z s s { e 7 f p & e A A Q ,.^ 8 s F u * M ~ Z I o., 6 d s , 7 g L ",
"Q s ' U > , 1 0 a b V s d I a $ * e ~ Q A Q A <.>.* 9 8 M ,.Z A ] L I 9 > : e f I o.",
"A g s X.m X 6 V V s t s a y C 2 4 N Q Z N A A A o.l < Z A Q A N A P C Q @ 6 B C C U ",
"d d V v , a s v v v s c n 7 > 0 d p s Z ~ A V V a k Z Q Q Q Z N V P Z k c N C g f C ",
"P } a : 7 Z P V c u v / W 3 e A B C N A F Z A c * c A Z Z A Q Z Z n 9 c I C g g f B ",
"' n 3 a s V v v n u V n 9 k V N B C Z Q O.Z 0 h c Z Z A A A ~ Q M w 0 L V V f ] I C ",
"a , 7 s Z Z P V A A M , w ~ A V N Q / Z Q b * Z O.Z A | A V A Q e 0 g I V g d L I C ",
"O e s n n V M M n M 2 * Z { Q Q Q Z A Z k O M | Z Q o./ Q ~ Z 1 - L I C d B L V P u ",
"2 , P v i a s s 0 & l * V C Z ~ Q Z C u k h 0 F A >.W Z o.~ w 2 $ d L ] f V ' L v k ",
"9.w 6 s u s v u $ z 6.T , N L P A V 6 1 V A j a Q >.W O.| 8 u 3.K % p S V P A a w ..",
":.6.3 ; s s u > 9 ! *.o.K 6 C C A a * v V p Z 3 7 p V V 8 c G G -.R ; p V U v > V #.",
"] #.*.q - r = e @.*.*.~ ..T w v e 8 y V A y N W 9 5 s 1 c O. .C  .,.M % g s 4 y S X.",
"' #.*.$.3   w ~ &.&.7.7.P #.! + o u N Z I N v A ~ k O u  . .G ,.O. .0.Y * $ v ] ] [ ",
"' ' ] ' ..j j <.5.$.*.@.P C #.E * t N A A Z Q A A ~ 3 7 D F F ,.O.O.O.-.E + S #.X.] ",
"S C } ] @.*.H Y 1.&.` C B d B #.Z : u I I Z A N y C ~ w r F B G +.O.%.X.3.T 6 ..#.] ",
"L { } #.#.} *.e c 9.5.C d C f f S M 1 Z W V C v Q A Z ~ l t S F +.[ =.O. .-.K 7 S ] ",
"X.U ' #.[ ' ] :.J R 5.I L L C C B } T 1 n A A V A Z V Q <.x p  .[ [ F  .%...-.M , @.",
"] ] ' ' ' ' ' #.*.k 7 { U U L f d ' X.R 9 N V Z N Z V n M >.x y S S [ +.X.F S 3.! 9 ",
"9 L } ' [ S S L ] P # e { ) I C C ..) *.x * s F A W M Q v Z E < t [ [  .] ] C } :.z ",
"K 6 d ] [ S ] ' v 4 P k e } { ......n 9 M T 3 M Z Z N M C 9 b ` z s { %.X.I ] C e T ",
"] P 4 C ] d ] Z 9 c C 1.m u ] ..L d 4 4 B  .T 2 T Q C V e 3 P { *.z c 0.4.1.$.9 c Q ",
"f ] L 7 g S v 9 n ] N o.,.e u { C , c A N B  .P j n ..c , ! @.U #.*.z ! 0.2.Y z Q N ",
"P U { R 9 6 4 v B B Z I V Q z % : c  .O...F B { M : 9 8 V { d g @...{ z x w a U d d ",
"V U L %.J @ i N N Z | A d { Q 2 0 X.| Q ..#...{ ;.b o d ' g d g C P I { < 4 C d N V ",
"P L L n w s C N A A I s s s 9 K ..] Q  .] Q #.$.V c V A C C g C L { v e 0 C C L ..{ ",
"..] n > a L V C C B C N Z 3 7 A ] ] C B B o.O.v , Z ....] f s g ' U , 4 d { I I { { ",
"L s , M { I Z P C B B v 3 u { ] F I S g C ..K 9 v  .} $.I C f @.U w 9 f f I I V V B ",
"u 9 v A F A I A A S p 6 t S  ...' ' S f f t > K A L ..{ P ..] Q j 0 f A C A ' C B s ",
"+ k V N B C C ' o.I 8 > B A B N L [ S S y o u { L d L ] { ...., , A B L P C { { P s "
};
