/* XPM */
static char *_41ce55777464d76ca2c267259749cf0O7GLksBzUuVdgp8R[] = {
/* columns rows colors chars-per-pixel */
"42 42 160 2 ",
"   c None",
".  c #612630",
"X  c #6B2F59",
"o  c #712F51",
"O  c #783555",
"+  c #7E3C56",
"@  c #773759",
"#  c #7E3C59",
"$  c #5C2E62",
"%  c #572D6C",
"&  c #5E3474",
"*  c #693964",
"=  c #6E3A6D",
"-  c #743B6C",
";  c #613676",
":  c #643976",
">  c #6C3A74",
",  c #623778",
"<  c #653A7A",
"1  c #693E7D",
"2  c #7D416A",
"3  c #6B417E",
"4  c #774578",
"5  c #813D5A",
"6  c #814364",
"7  c #85466E",
"8  c #854B71",
"9  c #884B72",
"0  c #824B7C",
"q  c #6C3F80",
"w  c #6E4281",
"e  c #724584",
"r  c #754985",
"t  c #7E4F87",
"y  c #774988",
"u  c #7B4D8A",
"i  c #765184",
"p  c #7E518C",
"a  c #7E598E",
"s  c #814F85",
"d  c #865083",
"f  c #8B5382",
"g  c #81528E",
"h  c #89568B",
"j  c #83588E",
"k  c #8D5A8C",
"l  c #915D8E",
"z  c #845592",
"x  c #875895",
"c  c #8A5A95",
"v  c #8E5E99",
"b  c #905E95",
"n  c #83618C",
"m  c #977688",
"M  c #846391",
"N  c #8D6494",
"B  c #8D6B93",
"V  c #8F6099",
"C  c #906C96",
"Z  c #93639C",
"A  c #98679F",
"S  c #946A9C",
"D  c #957696",
"F  c #94739B",
"G  c #987A99",
"H  c #A07F82",
"J  c #9867A0",
"K  c #976CA0",
"L  c #9B6CA2",
"P  c #9C71A4",
"I  c #997BA1",
"U  c #A072A6",
"Y  c #A17AA7",
"T  c #A475A9",
"R  c #A67AAB",
"E  c #AA7BAE",
"W  c #AD7EB0",
"Q  c #B39597",
"!  c #9F82A4",
"~  c #A785AC",
"^  c #AA8DAD",
"/  c #B08FAB",
"(  c #B096A3",
")  c #B093AA",
"_  c #B399AE",
"`  c #AE82B0",
"'  c #B184B2",
"]  c #B48AB5",
"[  c #B98DB8",
"{  c #AC94B4",
"}  c #B496B6",
"|  c #B19BB3",
" . c #BB93BA",
".. c #B79DBC",
"X. c #BF98BD",
"o. c #BEA6B2",
"O. c #B9A4BA",
"+. c #BDA9BC",
"@. c #C19BBF",
"#. c #C4ADAD",
"$. c #C1A9B3",
"%. c #C6B2BD",
"&. c #CBB2B9",
"*. c #CEB8BF",
"=. c #D1B8BE",
"-. c #BEA9C1",
";. c #C49EC1",
":. c #C6A2C2",
">. c #C9A7C5",
",. c #CBAAC7",
"<. c #CDACC8",
"1. c #C5B4C2",
"2. c #CAB3C1",
"3. c #CAB7CB",
"4. c #CAB8CC",
"5. c #D2B4CC",
"6. c #D5B8CE",
"7. c #D8BCD0",
"8. c #D4C5CD",
"9. c #D6C8CD",
"0. c #DACACE",
"q. c #DBC4D4",
"w. c #D7C9D2",
"e. c #DBC9D4",
"r. c #DCD1D4",
"t. c #DFD5DE",
"y. c #E0CAC7",
"u. c #E1CDCA",
"i. c #E4D2CE",
"p. c #E0CCD9",
"a. c #E2D5D5",
"s. c #E9DCD7",
"d. c #E5D5DE",
"f. c #E3D4DD",
"g. c #E6DDDB",
"h. c #EADED9",
"j. c #EEE4DE",
"k. c #E7D8E0",
"l. c #EADEE3",
"z. c #E8DBE1",
"x. c #EFE6E1",
"c. c #EFE9E3",
"v. c #F0E7E0",
"b. c #F3EBE3",
"n. c #F1EAE3",
"m. c #F1EAEB",
"M. c #F4EFEB",
"N. c #F4EFE9",
"B. c #F7F4EB",
"V. c #F6F2EB",
"C. c #F9F6EF",
"Z. c #F5F3F3",
"A. c #F9F7F1",
"S. c #FAF8F3",
"D. c #FBFAF6",
"F. c #FBFAF4",
"G. c #FBFAF8",
"H. c #FCFCF9",
"J. c #FDFCFA",
"K. c #FEFEF9",
/* pixels */
"                                                                                    ",
"                                                                                    ",
"                                                                                    ",
"                                                                                    ",
"                                                                                    ",
"                                                                                    ",
"                                  @.X. .] ` E T L                                   ",
"                              <.,.:.@. .] ' E T L J Z                               ",
"                          5.6.6.6.5.<.:.X.] E T L J Z Z c                           ",
"                        5.7.p.k.l.d.e.6.>. .` T L J Z Z c z                         ",
"                      ,.6.d.m.m.z.e.5.:. .] E T L J Z V c z g                       ",
"                    :.<.p.l.d.q.5.>.@. .] ` R U L J Z v c z g u                     ",
"                  ;.:.6.q.5.<.,.>.:.X. .] ` R U L Z Z v c z g u y                   ",
"                  ;.:.,.:.;.:.:.;.@. .] ' E T P J Z Z v x z p u y w                 ",
"                @.@.@.@.' Y P R  . .] ' ` E T L J Z z u p u p u y w                 ",
"                @.@.@.] ~ f.{ 3 y K ' ` R T U L c e w ^ 8.B y u y w                 ",
"               .X.X. .R t.H.Z.{ & & p U Z J J g q p -.M.B.9.p y e w 1               ",
"               . . .] ..D.H.H.G._ $ % < e u e e * ( H.S.V.b.! e e w 1               ",
"              [ [ [ ' 4.H.H.H.H.Q . m I y z { ( . H H.S.B.b._ e e 3 <               ",
"              ] ] ] ' 3.D.D.G.H.g.#.s.2.Z A w.c.#.g.D.A.V.s.) e w 1 <               ",
"              ' ' ' ` } N.A.S.A.C.V.s./ Z Z O.C.D.S.A.M.s.y.D w w 1 <               ",
"              W W W E K %.v.b.x.h.a.=.N Z Z C 0.v.j.h.i.i.$.e w 1 < :               ",
"              E E E E R n o.u.u.y.&.B g Z Z z C *.i.i.u.$.i 3 w 1 < ;               ",
"              T T U R ] K 3 n D B e e Z Z v c u r B G n : 3 y 1 < , ;               ",
"              L L L U R R c w < 1 u b l k k k c p w < : y j e 1 < ; &               ",
"                J J J J J A Z k 8 6 5 5 5 5 + # 6 0 p y y y 1 < , ; &               ",
"                Z Z Z Z Z Z 9 5 7 f h g u t s 0 2 O @ 4 e 1 < < ; &                 ",
"                Z Z Z Z b 7 7 c c z y 3 1 1 3 e y e - o = 1 < , ; &                 ",
"                  v v v d 0 c c z z p p u u y e e e w > X : , ; &                   ",
"                    x z g z z z g g p u u y y e w w 1 < ; ; , &                     ",
"                    z z g g g p u u y y y e e w 1 1 < < , ; & &                     ",
"                      u u u u y y y e e e w w 1 1 < , ; & ; 3                       ",
"                          y e e e e e w w 1 1 < < , ; & 1 ! 9.r.                    ",
"                          { F y q q 1 1 1 < < , ; & < M +.r.r.r.r.r.                ",
"                            w.+.I a w 1 < , < 3 i F O.w.r.r.r.r.r.r.                ",
"                              r.r.8.1.O.| | O.1.8.r.r.r.r.r.r.r.                    ",
"                                      a.a.r.r.r.r.r.r.                              ",
"                                                                                    ",
"                                                                                    ",
"                                                                                    ",
"                                                                                    ",
"                                                                                    "
};
