/* XPM */
static char *_1707038249[] = {
/* columns rows colors chars-per-pixel */
"42 42 137 2 ",
"   c #2E2D34",
".  c #312E34",
"X  c #343136",
"o  c #36333A",
"O  c #39363C",
"+  c #3C383E",
"@  c #423B3F",
"#  c #4B383D",
"$  c #52393F",
"%  c #663237",
"&  c #793136",
"*  c #75343A",
"=  c #7D3438",
"-  c #7E393D",
";  c #363640",
":  c #393741",
">  c #3D3A42",
",  c #3F3E49",
"<  c #423D44",
"1  c #483E45",
"2  c #423F49",
"3  c #4C3F49",
"4  c #533D45",
"5  c #5A3D45",
"6  c #553F49",
"7  c #643E44",
"8  c #6B3B44",
"9  c #743940",
"0  c #7E3B41",
"q  c #454046",
"w  c #484247",
"e  c #45424A",
"r  c #4A454C",
"t  c #4E484E",
"y  c #53454C",
"u  c #5D474D",
"i  c #52494E",
"p  c #454451",
"a  c #4B4751",
"s  c #4E4952",
"d  c #534C54",
"f  c #5C4C53",
"g  c #534F59",
"h  c #565056",
"j  c #5A5157",
"k  c #56515A",
"l  c #5B545B",
"z  c #63464B",
"x  c #6B434A",
"c  c #66494F",
"v  c #6C494F",
"b  c #774045",
"n  c #75434A",
"m  c #7A444C",
"M  c #7A4A4E",
"N  c #654C52",
"B  c #6C4C53",
"V  c #764C53",
"C  c #7C4D55",
"Z  c #6C5156",
"A  c #62555C",
"S  c #6A535B",
"D  c #62585F",
"F  c #725258",
"G  c #795259",
"H  c #5D5760",
"J  c #625A62",
"K  c #7B5A60",
"L  c #AC191E",
"P  c #B91217",
"I  c #BE171B",
"U  c #B61A1F",
"Y  c #BD1A1E",
"T  c #A41E23",
"R  c #AE1E22",
"E  c #B21E23",
"W  c #BD1E23",
"Q  c #9C2529",
"!  c #9D282C",
"~  c #822C32",
"^  c #962D32",
"/  c #9B2E34",
"(  c #80353A",
")  c #93353A",
"_  c #9B3439",
"`  c #93393E",
"'  c #9C383C",
"]  c #A5252A",
"[  c #A4292E",
"{  c #AA282D",
"}  c #B52126",
"|  c #BC2126",
" . c #B5252A",
".. c #B0282E",
"X. c #A42E33",
"o. c #AB2C31",
"O. c #B12E32",
"+. c #A23136",
"@. c #AA3034",
"#. c #A63338",
"$. c #A0383D",
"%. c #CD0307",
"&. c #CD0409",
"*. c #CC090C",
"=. c #D30F07",
"-. c #D10B08",
";. c #D51307",
":. c #D81707",
">. c #DA1B06",
",. c #C60E12",
"<. c #C90D11",
"1. c #C21115",
"2. c #C81115",
"3. c #C31519",
"4. c #C31A1D",
"5. c #DE2306",
"6. c #E02605",
"7. c #E32B05",
"8. c #E63204",
"9. c #E93603",
"0. c #ED3D03",
"q. c #EF4102",
"w. c #F14502",
"e. c #F54B01",
"r. c #F75001",
"t. c #FA5500",
"y. c #FE5D00",
"u. c #833F43",
"i. c #8C3E42",
"p. c #913E42",
"a. c #8C4146",
"s. c #83444C",
"d. c #89464E",
"f. c #814C50",
"g. c #8A4D53",
"h. c #924D52",
"j. c #8A5258",
/* pixels */
"w q q 2 q t e r w e w e e e e , ; > o > q > + O o + O O + + + q > @ w 2 < 2 q w q , ",
"w e 2 2 r t e e 2 e r e r r e > O > + < q > < o O + + O + @ q < > < w > q r e r e q ",
"t r e q t e , q < w r r r s r , + < q < q > + + + < + + @ q q w t r q > q w , < , t ",
"e e > e e 2 q > < 2 e e r r e e q w e < > + > q w q + < > q w t r e q q y r w r w q ",
"q , > , , q , O O < 2 e t e r e q r q q > < w y r q > + + q q r r r r d d t i d e q ",
"> > O + + > O O O < < q r , r r e r e e > O < r t w > @ + + q t r r s d d d d s r e ",
"> > > > > > > > + < 1 y 4 w t r r i t r > O < y e e q r * Q ! ` i r s r e r g s s , ",
"> + O + O O > + o + z ^ Q u.u u t d d r 2 < y w e r t t a.- z c g s s r r d g s , ; ",
"> O o O X O + O O O @ w r w f.O.V l g B [ E R R ) N t 2 2 r r i a r a r a s s p 2 > ",
"O o o O X O X X O O + + > < N W O.G i.W &.&.&.&.-...c > > t r w e d e r d s e , 2 > ",
"> o o o O . X . O X O O q q f  .*.3.*.&.&.&.&.&.&.&.} y q t a s f a a a e > ; ; > > ",
"o o X   . . X O O o O @ w q M 2.&.&.&.&.&.&.&.&.&.&.<.0 r w t d d d a 2 2 > > > + + ",
"o + X . X   . X O O O + w u +.&.&.&.-.:.:.:.:.-.&.&.&.} c t t s d j s a r 2 > O O O ",
"> + o   X . X @ O O + + < ) *.-.:.8.e.t.y.t.e.q.9.>.&.-.a.r d d s g d s r > + O + + ",
"+ o     . . X O + # % * ] ,.5.w.t.y.y.y.y.w.=.=.:.>.*.&.$.j j d s j a r a > e 2 > O ",
"+ o X o o O O # * U *.-.;.9.t.y.y.y.y.y.0.=.&.&.&.&.&.&.2.g.D h j l f s s e w 2 > O ",
"O O o O o O + ( ,.&.&.-.0.y.y.y.y.y.y.6.&.&.&.&.&.&.&.&.&.4.f.H H l s.s.l a r 2 < < ",
"< o o O X + 5 4.&.&.&.7.y.y.y.y.y.y.e.-.&.&.&.&.*.-.&.&.&.&.W V H k k s f d e 2 e w ",
"< + + O @ + $ 2.&.&.;.t.y.y.y.y.y.y.e.=.&.&.&.&.&.&.&.&.&.&.&.h.H g k a a 2 r 2 e e ",
"< O + + @ $ ( ,.&.&.6.y.y.y.y.t.e.e.t.>.&.&.&.&.&.&.&.&.&.&.*.h.H H k a d a r r w 2 ",
"O + > > & U *.&.&.%.6.y.y.y.t.:.*.-.9.e.;.&.&.&.&.&.&.&.&.&.*.d.g g p p e r d e r > ",
"> > + z 3.&.&.&.&.%.6.t.y.y.7.&.&.&.8.y.e.:.-.>.6.:.&.&.&.&.*.d.g g g p e r V y 2 > ",
"+ + q X.&.&.&.&.&.&.;.:.6.t.6.&.&.&.9.y.y.t.t.y.y.7.&.&.&.&.*.d.k k s s a 2 v r > 2 ",
"w < z Y ,.1.*.&.&.&.&.&.=.r.0.&.&.7.y.y.y.y.y.y.e.;.&.&.&.&...N k s s d a 2 r 2 2 > ",
"> > b W n c { *.&.-.&.&.-.e.y.q.0.t.y.w.8.r.y.q.-.&.&.&.&. .S J k g s s a 2 2 2 > < ",
"q q n ` t h  .&.&.&.&.&.&.:.9.y.y.y.w.-.*.9.y.w.-.&.&.&.<.g.J j.v g a 2 2 : < > + + ",
"q > Z Z i i { &.&.&.&.&.&.&.&.8.y.y.w.&.&.;.r.y.6.&.&.&.W A s m +.) 8 y 2 2 2 < q < ",
"+ w f f d t f ` <.&.&.&.&.-.6.w.y.y.t.:.&.&.9.y.e.-.&.&. .s p 2 y 5 5 w : : > 2 t > ",
"q w r t r t s h a.3.&.&.&.-.e.y.y.y.y.q.&.&.7.y.y.7.&.&.p.s 3 2 > > > ; + o @ r t 2 ",
"w r h h t d s h d z _ <.&.*.7.5.0.8.t.q.-.&.7.y.t.6.&.&.O.3 , > q > > > o O w i t e ",
"t i h l j g g g g g l @.*.&.&.&.&.5.t.q.-.=.e.y.8.&.&.&.E y > > q > < q O q w r t t ",
"j j D k h s s j s h l G W &.&.&.&.7.q.;.>.e.y.9.&.*.&.&.E y > : < + < > @ r w j h s ",
"D l l k k s a h g h l H G 4.&.&.&.;.:.6.t.y.q.*.&.&.&.&.} y < q > q < > t i h l j l ",
"J k k k k s a p a s l l D | &.&.&.;.0.t.t.0.-.%.&.&.&.&.[ 2 w > O < + < r d h h l D ",
"g k k p , s e e h k l k s.2.*.&.&.&.-.=.=.*.U R L ] ~ & 3 < 2 ; O + > q t e r h l k ",
"g s p e s s e r s h k m #.i.x / P 1.&.&.*.+.u r 2 > + + > O o o o O < q > , r j h s ",
"k a s p , , e e e r a N f g p d f v u.* 9 r O ; O O O O o O O X X X < o + > e d s s ",
"g s e , ; > q e e t g d s s s s d g e e e ; o   o o O + o O X X X o O @ + o w d s s ",
"s , ; O > > q > s d k s a a a a e p e 2 : ; . o O + @ q + + o o O o @ w q < w r e p ",
"p , , e q q > + d r s a a s e e 2 s 2 , > O O O < q < + > + O X O + + @ q q q q e r ",
", > r w w w 2 2 r w r a e 2 e s e e , > ; < > O > O O O O O o X o o + > , q r e e , ",
"> q w r r r r w t e e r 2 e t s 2 > : o + q O O o o O O o o O O + + q @ w r q q e > "
};
