/* XPM */
static char *bab1706808948[] = {
/* columns rows colors chars-per-pixel */
"42 42 128 2 ",
"   c #1F251E",
".  c #21281F",
"X  c #1A1920",
"o  c #201E25",
"O  c #27232B",
"+  c #2B272D",
"@  c #2E2C33",
"#  c #302D33",
"$  c #343137",
"%  c #36333B",
"&  c #3A363D",
"*  c #3C383E",
"=  c #443C3E",
"-  c #363641",
";  c #393741",
":  c #3D3A42",
">  c #3F3E49",
",  c #423E44",
"<  c #413F48",
"1  c #454046",
"2  c #4A4245",
"3  c #4F4A47",
"4  c #45424A",
"5  c #4A454C",
"6  c #4E484E",
"7  c #514547",
"8  c #584E47",
"9  c #514649",
"0  c #524A4D",
"q  c #5A4C4C",
"w  c #595445",
"e  c #57514A",
"r  c #5B534E",
"t  c #454451",
"y  c #4B4751",
"u  c #4E4951",
"i  c #534C53",
"p  c #594F52",
"a  c #544F59",
"s  c #575056",
"d  c #5B5354",
"f  c #5E5855",
"g  c #56515A",
"h  c #5C545B",
"j  c #614F4E",
"k  c #62514F",
"l  c #62584D",
"z  c #645352",
"x  c #6A5654",
"c  c #635A55",
"v  c #6C5B55",
"b  c #60575B",
"n  c #645B5C",
"m  c #6B5E59",
"M  c #725B57",
"N  c #765D58",
"B  c #795F59",
"V  c #66604D",
"C  c #6E6256",
"Z  c #6D625B",
"A  c #726457",
"S  c #76635B",
"D  c #7A655D",
"F  c #72695F",
"G  c #7A685F",
"H  c #635B63",
"J  c #766D62",
"K  c #7B6D62",
"L  c #7D7264",
"P  c #82665D",
"I  c #84685F",
"U  c #846B62",
"Y  c #8A6B60",
"T  c #837465",
"R  c #8B7366",
"E  c #877B67",
"W  c #837769",
"Q  c #8D7468",
"!  c #867A6A",
"~  c #8C7C6C",
"^  c #927466",
"/  c #917468",
"(  c #957A6A",
")  c #9A7B6A",
"_  c #8F826D",
"`  c #93826E",
"'  c #9B816E",
"]  c #928771",
"[  c #9D8571",
"{  c #9D8B74",
"}  c #A28773",
"|  c #A58C75",
" . c #A88A75",
".. c #A59177",
"X. c #A89077",
"o. c #A59379",
"O. c #AA9479",
"+. c #A7987D",
"@. c #AD9A7D",
"#. c #B19D7E",
"$. c #AFA081",
"%. c #B4A182",
"&. c #BBA785",
"*. c #B9A986",
"=. c #BFAE89",
"-. c #C2AF8B",
";. c #C4B28B",
":. c #C9B78E",
">. c #C9B88E",
",. c #CCBC91",
"<. c #D1BA91",
"1. c #D6C294",
"2. c #DAC696",
"3. c #DDC897",
"4. c #D9C798",
"5. c #DBC898",
"6. c #E1C797",
"7. c #E3CD9B",
"8. c #EACD9C",
"9. c #E6D09D",
"0. c #EAD39E",
"q. c #F0D49E",
"w. c #EED6A0",
"e. c #F2D7A1",
"r. c #F3D9A2",
"t. c #FADEA5",
"y. c #FDDFA8",
"u. c #FDE0A6",
/* pixels */
"4 1 1 4 4 6 4 5 5 1 4 4 4 4 4 > - : & : 5 : * & % * & & * * * = * = 2 , < < , 2 4 , ",
"4 4 , 1 5 6 4 4 > 1 6 1 6 5 4 : 1 0 r c c c c r 2 * * * * , 1 1 , < 4 : , 5 4 5 4 1 ",
"6 5 1 1 0 4 > < < 5 6 4 5 u 5 4 l w V C C A A L E = : * = 1 1 5 0 4 1 : 2 4 < < < 6 ",
"4 4 : 4 5 < 1 : : 1 4 4 4 5 4 5 2     X   O + 2 _ 1 : * : 1 4 3 5 4 < 1 0 4 2 5 4 4 ",
"< > * > : < : : & , 1 4 6 4 6 4 7 = 7 8 l l C E _ 1 : * * 1 1 5 5 5 4 i i 5 i i 4 < ",
": : & : : : & & * = > 1 5 > 4 6 2 5 5 i 5 2 3 s 6 4 : : * * 1 5 6 5 u s i i i u 5 4 ",
": : : = : 9 i r f f Z J J L W L ! ~ ~ ! T L L _ L L J F f f C Z m n n s 4 u a u 5 > ",
": * & * , I ( | @.=.>.4.9.9.0.q.e.r.y.y.u.t.q.q.w.5.1.;.*.@.@.$.#.$.@.` 6 i a u < : ",
": & % & , ) } G A G T ~ ` ] [ { | X.O.#.#.@.@.@.o.o.{ [ ` ~ R T U ( %.] i i u t < : ",
"& % % % 3 *.*.x 8 d r k r r l v v m S S S G G S G G G S S G S M q K :.o.i u 4 > < < ",
"* % % & 8 -.-.B ` >.>.>.;.>.:.:.>.>.:.;.-.:.>.>.:.:.:.>.>.>.,.;.J Q ,.@.5 : - ; : : ",
"% % $ @ 3 ,.>.U | 4.4.2.4.4.4.4.4.4.3.1.>.2.4.5.4.4.4.4.4.5.5.,.U ( 4.$.5 : : ; * & ",
"& & % # e 1.1.R o.9.8.8.9.9.9.9.9.9.9.5.1.8.9.9.9.9.9.8.9.9.9.5./ [ 8.*.5 < : & & & ",
", * $ @ e 7.6.Y #.r.t.q.r.r.r.r.r.r.t.0.7.r.r.r.r.r.r.r.r.r.r.0.) } w.=.i < ; * * * ",
"* % @ @ e 0.8.^ #.t.t.t.t.t.t.t.t.t.t.r.8.t.t.t.t.t.t.t.t.t.t.e.) } t.;.i : 2 , * & ",
"* $ $ & r 0.8.^ #.t.t.t.t.t.t.t.t.t.t.q.8.t.t.t.t.t.t.t.t.t.t.q.(  .t.;.i 4 4 < : & ",
"& * $ & d 8.6.^ @.r.r.r.r.r.r.r.r.r.r.0.8.r.r.r.r.r.r.r.r.r.r.9.(  .e.-.i y 5 < > , ",
", % $ & r 6.6.^ @.w.w.w.w.w.w.w.w.w.0.0.6.0.0.q.w.w.w.r.w.w.0.9.(  .w.-.u 5 4 < 1 4 ",
", * * & c 2.3.^ @.0.0.0.0.0.0.0.0.0.0.8.3.0.0.0.0.0.0.0.0.0.0.9.( } w.=.i 4 5 4 4 4 ",
"> & * * r 2.1./ @.9.9.0.9.9.9.9.0.9.9.7.2.9.9.9.9.9.9.9.0.9.9.3.( } 7.*.g 5 5 5 4 1 ",
"& * * : r 1.2.^ O.9.9.7.9.9.9.9.9.9.9.3.1.9.9.9.9.9.9.9.9.9.9.4./ } 8.*.y < 5 4 5 < ",
": : * * f 1.1.^ O.7.7.7.9.7.7.7.9.9.9.4.1.9.9.9.7.7.7.9.9.9.9.4.( } 7.*.y 5 4 < < ; ",
": * , 2 V 4.1.^ { 1.3.3.2.2.3.1.4.4.4.1.>.3.3.5.4.4.4.4.4.4.4.1./ | 3.*.u > c ] ` E ",
"1 , 2 i C >.<.E ] 1.1.1.>.>.1.1.>.,.1.>.;.>.,.,.1.1.>.1.>.1.>.;.Q } 4.%.i < ! <.%.<.",
": : , 5 n -.-.^ ' =.=.=.=.=.=.=.;.;.;.#.#.=.=.=.*.*.=.=.=.;.=.*.Q } ,.$.t < W >.-.>.",
"1 1 < 4 c $.*.Y ` #.#.#.#.#.#.#.#.#.#.#.#.#.#.#.#.#.#.#.#.#.#.@.U ) =.{ 4 : Z X.) X.",
", : 1 3 d o.$.U Y |  . .X. .| | ..|  .| } |  . ...| | | | | ..{ I ( $.] 4 < 0 M v M ",
": 1 2 6 d [  .U P ) ) ) ' ) ' ) ) ' ) ) ) ) ) ) ` ) ) ) ) ) ) ) S Q  .R : ; : 4 5 , ",
", 4 5 u i ^ ) U B I Y Y Y I Y I I I I Y P Y Y Y Y I Y I I I Y I M U } P ; % , 7 9 < ",
"5 5 p i i Y Q B x M B N B N B N B B B B N M N N B N B N A B B B x P ^ N & & 2 i 0 4 ",
"0 u p b h N P N l P B B P N P N B B B B S P B B P N P N B B B N x D P x & , 4 4 5 u ",
"p h H g i x B x P ) ) ) ) ) ) ) ) ' ) ' ) ) ) ) ) ) ) ) ) ) ) ) M N N k , 7 5 p p u ",
"H b g a h I R x U O.O.O.O.O.O.O.X.O.X.X.| X.X.X.O.X.O.O.X.O.O.| M S ^ S 9 i i h h h ",
"H a a a h ' [ x T #.#.@.@.#.@.#.#.#.$.#.X.#.#.#.$.#.#.$.#.#.#.O.M S } R 5 i d s h h ",
"a a a y i | ..x T #.#.#.#.#.#.#.#.#.#.#.O.#.#.#.#.#.#.#.#.#.#.O.m G @.( 9 5 5 g H g ",
"a a t < d o.o.x I X.X.X.X.X.X.X.X.X. . .| o.X.X.X.X.X. .X.X.X. .v G @.` > > 5 d a u ",
"a y u y i | o.x N ) ) ) ) ) ( ) ) ^ ) ) ^ ) ) ) ) ) ) ) ) ^ ) ^ x G @.( * : 4 s a y ",
"a u t : < ' [ x x P P P P P P P P P P P P P P P P P P P P P P P j G | R 1 & 1 i u t ",
"u < - ; 2 Y ( x j z z z z z j z z z z j j j j j j j k k k j j j q N ( P 1 * 3 4 4 4 ",
"5 > > < 1 B I k 9 5 y y 0 u 4 < < 0 < , , % & & , , , , = = & $ , M I x 1 1 1 1 4 u ",
", , 5 5 < x N 9 9 < y y < < < i 5 < < ; ; , & & & & & & & & % # % q M q < 1 5 1 4 : ",
", , < 5 9 i 9 5 5 5 < y < 5 9 u < ; ; & , , & & % % & & & % & & & , 7 2 2 5 1 < 4 > "
};
