/* XPM */
static char *baba1706809928[] = {
/* columns rows colors chars-per-pixel */
"42 42 146 2 ",
"   c #252C1F",
".  c #1F1F21",
"X  c #232026",
"o  c #2C272D",
"O  c #36322E",
"+  c #2E2D34",
"@  c #312E33",
"#  c #343136",
"$  c #36333A",
"%  c #3A363D",
"&  c #3C383E",
"*  c #403B3F",
"=  c #363641",
"-  c #393741",
";  c #3D3A42",
":  c #3F3E49",
">  c #423E44",
",  c #483D42",
"<  c #413F48",
"1  c #454046",
"2  c #4B4346",
"3  c #45424A",
"4  c #4A454C",
"5  c #4E484E",
"6  c #504545",
"7  c #534B43",
"8  c #524649",
"9  c #524A4D",
"0  c #5C4D4D",
"q  c #5C534E",
"w  c #454451",
"e  c #4B4750",
"r  c #4D4952",
"t  c #534D54",
"y  c #584E51",
"u  c #534F59",
"i  c #565056",
"p  c #5C5354",
"a  c #56515A",
"s  c #5C545B",
"d  c #614F4F",
"f  c #60544E",
"g  c #64584E",
"h  c #645452",
"j  c #6B5654",
"k  c #645B53",
"l  c #6C5B56",
"z  c #62575A",
"x  c #645A5B",
"c  c #695D5C",
"v  c #715B57",
"b  c #745E59",
"n  c #795F5B",
"m  c #6C6256",
"M  c #6D635D",
"N  c #74625B",
"B  c #7B635C",
"V  c #73695F",
"C  c #7B695F",
"Z  c #635B63",
"A  c #736960",
"S  c #7C6B62",
"D  c #7E7263",
"F  c #82665E",
"G  c #85685F",
"H  c #836761",
"J  c #836B61",
"K  c #8B6D62",
"L  c #906F63",
"P  c #867364",
"I  c #8C7266",
"U  c #857867",
"Y  c #8E7668",
"T  c #877B6B",
"R  c #8A7D6C",
"E  c #947466",
"W  c #987767",
"Q  c #947669",
"!  c #957B6B",
"~  c #9B7D6C",
"^  c #96836E",
"/  c #9D816E",
"(  c #978670",
")  c #9D8371",
"_  c #9D8C74",
"`  c #9D9076",
"'  c #A0846F",
"]  c #A28571",
"[  c #A48B74",
"{  c #A88F76",
"}  c #A69177",
"|  c #A89077",
" . c #A69479",
".. c #AA947A",
"X. c #A6987C",
"o. c #AE9B7D",
"O. c #B0977B",
"+. c #B19C7E",
"@. c #A28E81",
"#. c #AE9D80",
"$. c #A39388",
"%. c #B39E80",
"&. c #B39B8C",
"*. c #AE9F93",
"=. c #B5A383",
"-. c #B9A584",
";. c #BCAA86",
":. c #BDAC89",
">. c #B4A296",
",. c #B9A699",
"<. c #BEAB9B",
"1. c #C1AA87",
"2. c #C3AE8A",
"3. c #CAAF89",
"4. c #C4B38D",
"5. c #CAB58E",
"6. c #C9B88F",
"7. c #C7B890",
"8. c #CCBC92",
"9. c #D2BE92",
"0. c #C4B3A4",
"q. c #D3C294",
"w. c #DAC496",
"e. c #DCC798",
"r. c #DECA99",
"t. c #E0C697",
"y. c #E3CD9B",
"u. c #E9CC9B",
"i. c #E7D09D",
"p. c #EBD49F",
"a. c #EED6A0",
"s. c #F1D7A1",
"d. c #F5DAA3",
"f. c #FBDEA5",
"g. c #F7DDAB",
"h. c #FDDFA8",
"j. c #FEE1AC",
"k. c #FEE3B3",
"l. c #FFE6BB",
"z. c #EFE2CE",
"x. c #FEE7C0",
"c. c #FFE8C4",
"v. c #EFE3D1",
"b. c #F5E8D3",
"n. c #FBEED7",
"m. c #FEF0DA",
/* pixels */
"3 1 1 1 3 5 3 4 4 1 4 3 1 1 3 1 - ; % ; 2 ; & & # & % % & % & * & * 1 ; > < < 1 3 3 ",
"3 3 > 1 4 5 3 3 < 1 4 1 5 e 3 - ; 5 p k k k m p 2 & & % % > 1 1 > > 1 , > 4 4 2 3 > ",
"5 4 3 1 r 3 : 1 < 4 4 4 3 r 3 : 6 7 7 q f g g P D * > & * 1 1 4 t 3 < > 1 4 < < < 9 ",
"3 1 ; 3 4 < 1 ; ; 1 3 3 3 4 e 1 2 O   . X o @ q U 1 & > * 1 2 5 r , < < 9 2 3 4 3 1 ",
"3 ; - 1 ; < ; - % > 1 3 4 4 4 3 4 6 6 q g m V U V 1 ; & & 1 > 4 4 4 3 t t r t t 3 < ",
"; ; & & ; ; % & % > ; 3 4 < 4 4 4 5 2 2 1 ; 2 9 5 1 1 * > & 1 4 4 4 r y r t t r 3 3 ",
"; ; - ; ; ; 1 l C D ^ `  .#.+.=.-.1.4.4.:.;.;.1.=.#.X.` ^ U R ^ T T S r < t t r 5 : ",
"; - % & % & 2 E ^ ^ } +.4.6.9.q.q.w.t.u.u.u.y.w.q.q.4.-.X. . .`  .%.` 4 4 t u e < ; ",
"; % % % # % q +._ q 0 q d f h l l N N S J P J J G D H S C B b j l =. .4 4 t r e < > ",
"& $ $ $ $ % q 7.X.N 0 2 6 2 6 h $.*.>.,.<.<.<.,.,.@.B b b l 0 l C :.#.t t t 3 < > ; ",
"& $ $ % # # q q.+.H f * & * , 0 0.v.v.n.m.m.n.b.z.&.B l j 0 8 b K 7.-.t 3 ; - - ; ; ",
"$ $ # + @ # q e.1.E v j N ( _  .;.q.a.k.x.l.g.i.q.;.+..._ N h H Q 9.:.4 < - ; - ; % ",
"% & $ + # @ q p.3.! S b ) 2.4.7.q.y.d.k.c.l.j.s.y.q.8.4.2.I b I ~ t.5.t 4 > > $ % % ",
"; & $ + O @ g s.5.! H n ) 4.4.4.q.y.d.k.l.l.j.p.e.8.4.4.4.I n Y ~ u.8.t 4 > - & & & ",
"& $ + + + @ g s.5.~ J n _ 7.4.7.q.y.d.j.l.k.f.s.r.8.4.4.7.I n Y ~ u.5.r e - 1 > - % ",
"& $ # $ % % m p.3.~ K n [ 8.4.8.q.a.d.j.l.k.h.s.r.q.8.4.7.Y B ! ~ t.4.t r 3 4 < ; % ",
"% & $ % $ % m i.3.~ K F } 8.4.6.q.i.d.j.k.j.j.p.y.q.:.q.q.U B ^ ~ t.5.t e < 4 < > , ",
"; $ # % $ & k y.2.~ Y H  .q.7.8.w.a.s.j.j.j.f.p.r.q.q.:.4.^ G W ~ e.4.u < e < 3 3 4 ",
"> & & & * & k y.2.~ ! J ..q.5.6.q.i.s.j.j.j.f.p.r.q.:.q.8.^ G / ~ e.4.r r < 4 < 3 3 ",
"; & & & & & m t.3.~ W K ..8.4.4.q.y.s.d.j.f.d.i.r.q.4.4.8./ E / ~ q.4.u u e 4 4 3 < ",
"- 1 q 5 & * M r.2.~ ~ Q ..9.4.4.q.e.p.j.d.j.s.i.q.8.2.4.8./ Q ] ~ w.:.e 3 3 3 3 2 < ",
"; ` -.;.x 3 M w.1.~ ~ Q ..5.;.:.q.q.i.a.d.p.p.r.q.7.:.2.6.' W ] ) 9.:.t 3 3 3 3 < - ",
"1 +.+.6.A , A 8.&.~ ~ ~ | 4.-.-.:.q.r.i.p.p.i.e.8.:.-.-.4.) W [ ~ 5.=.t 4 : 3 3 ; 1 ",
"1 _ O.;.M 5 c 2.%.~ ~ E ) -.O.-.:.q.w.y.p.i.r.q.5.:.%.%.%.W E ] ! :.#.a e 1 4 3 < ; ",
"* m N S p t x %. .! ! K ~ [ ' [ +.:.7.q.e.w.6.4.=...[ ' | W E ~ Q %.` r w < > < ; ; ",
"1 1 2 2 t 4 z [ ) Y E K Q [ ' ] ..+.:.6.q.6.6.;.+.{ ~ ' [ G K W Y [ ! e < ; > ; & ; ",
", ; > 5 r 4 p ~ ! K K F P ~ W W [ ..-.:.4.:.;.+.| ' Q E ~ F K I K ) K < < < < < 1 > ",
"; 1 4 2 t 5 p K I K J B J Q L E / } o.=.;.;.+.| ] ~ L L Q B F I J E B > ; = ; 1 5 ; ",
"1 4 4 9 4 r y B B I F j F E G E W ' | O.+.+.O.[ ~ W G G E v b I F F j - % $ > 2 5 < ",
"1 4 y i 4 t y v B P C j B E G G L ~ ] | O.| [ ' W E G G E v v I C B f > $ % 2 t 5 3 ",
"5 9 i s a t s E K C B f B E G G L W ' ] [ [ ' ~ E L G G E l j G B Y F 1 % > 3 4 4 5 ",
"i s Z a t t z [ W C b 0 N W W W W / [ | | { { ' ' W Q Q W h q G N [ ! 1 > 2 2 p i r ",
"x Z a r u r x ..^ S l 8 n W ] [ o.=.=.=.-.;.*.=.o.X. .] E h 0 C B  .^ 1 2 t i z a s ",
"Z a a a u u x o.^ N h d Q { %.:.:.7.8.q.q.q.7.q.7.7.:.;.} H 8 b N ..( 1 4 t i i s s ",
"u u u w 3 r p } ^ v 0 B ) #.=.:.<.7.8.q.7.q.7.7.7.7.4.:.+.W j j N } ! 5 9 4 4 a Z a ",
"u u w w 5 r i ~ I j l K ~ [ ..#.=.:.:.:.:.:.:.:.:.-.-.=...~ B l l ~ I 2 - < 3 i a e ",
"u e r e < : y F F d y z c Z c c M M M c c x p p p p q k q 0 8 6 h K v & % ; 3 y u e ",
"u e 3 ; = ; 8 v v t y u r r r r r i w 3 3 - $ + $ $ % % $ $ # # 2 b j * & % 1 y r e ",
"r : = = ; > > 8 y t t r e e r r w 3 3 : - & @ $ % & * 1 & & $ $ * 6 6 2 > , 4 4 3 3 ",
"4 : : 3 < > > & 9 r r e e r 3 < 1 r 3 ; ; % % % 1 1 1 & ; & % $ % & % * 1 1 1 < 1 e ",
"< ; 4 4 3 3 > , 4 3 4 r < < 4 r 4 1 : ; = < ; % & $ % % % % $ # % $ & * < 3 4 3 1 : ",
"; , 3 4 4 4 4 3 4 3 4 4 < 4 4 r < ; = $ & > % & $ $ % % % $ % % & & , ; 4 3 1 1 3 ; "
};
