/* XPM */
static char *Stone_11_128x1281706778225[] = {
/* columns rows colors chars-per-pixel */
"42 42 37 1 ",
"  c #2E2D34",
". c #312E34",
"X c #343136",
"o c #36333A",
"O c #39363C",
"+ c #3C383E",
"@ c #413C3F",
"# c #363640",
"$ c #383741",
"% c #3D3A42",
"& c #3F3E49",
"* c #423E44",
"= c #413F48",
"- c #454046",
"; c #484247",
": c #45424A",
"> c #4A454C",
", c #4E484E",
"< c #514A4E",
"1 c #464550",
"2 c #4A4751",
"3 c #4E4952",
"4 c #4E4C59",
"5 c #524C54",
"6 c #594F52",
"7 c #534F58",
"8 c #565056",
"9 c #585156",
"0 c #56515A",
"q c #5B545C",
"w c #60575C",
"e c #61595F",
"r c #5D5761",
"t c #5F5860",
"y c #625A61",
"u c #695F64",
"i c #6A6066",
/* pixels */
";--=:,:>;:>:=::-$%O%;*OOoOOO+++**@*****=**",
";:*=>,::=:>:,>:$$O+=***oo@+O+********<<=*,",
",>=:<:==*;>>>,:=+*-**%+@@**O@;;><==**,***<",
"::%;>=-%**:::>::-;;*%O*@;*+@**;,<===6*=<==",
":%%=%=%$O--:>>>:->=***;,>**O@**,>=,<<2<5<*",
"%%OO+%O+o*=->%>>>>::%o*>,=**+O*>,=<65853,=",
"%%%*+%%*+*->::>>><,>%o;<;=:>+@,<23,2=383<=",
"$+$OOO%OoO--%>:,>55>=*>;>><=;;,6633=2672=$",
"%OOOoO@ooO@->=<96qq5,5,,<53==;>5322>2332=%",
"OOooXXOXOoO@**<9e0q05555553%*,>;=,=,5,==**",
"$ooOO.XXOooO**,577rq070553$$;,2363,3>%#$%%",
"ooX .XXXOoO@;;<55qyq0q073=$:>;>5732==%%$O%",
"OOo.X..X@Oo@;;336qyyrq732$:,,3,3383,=**oOO",
"*+X ...@@XO@*;;,3qur4043:=>>,;5538532*$@%O",
"+X ...XOOo@@;<><eqr4403q1:,,5695,q212***%O",
"+ooooOO@O@-;<,><570007q72296eee70w33,=>*%O",
"OOXOOOOOo@->,>5::37q0041:387qqq0r7731>2=**",
"*XOOXOOO*;<,=>::355q722159500q00y073=>=;;>",
"*O@O@@o+@->:>,:-:57q413:83557r0qr7723=>=;=",
"=OO@O+*Oo*->,::::,2223:35358q0yyrr7252>>>=",
"$O*+o@-O@@->::2&=-:>>325355qytt77721==>:>*",
"%%*+*;;**@-*%$$%-;,>:>::>55q007757721>=;=$",
"*+@;>;>,--+OOO**;>==&>:=>30q704070353=;=%=",
"=*;<<,<>:-=O+*+**=%*:;%=>5500075743,2=,=*%",
"*%*>,5,>>>-%=-O*%+%%--:->,55370q07531=*=**",
"***;<,>>>:%-;;-;*--;::,,>,2:5qq0741==%=%OO",
"*%*,3>:3,>><,,,,--,>-<3>::=;q74421====****",
"@;>>,,333>,33<55:<>=:>2::=-;>::&1==%%$%=,*",
"->><3,3503355580>5>:>,,:::*=,>:=%%%OoO@>,*",
";>65,555525555qq552:>,:>:;$*,&=%**%%oO*5,=",
",<9qq5557855w0qu0255>3>==*%--=%%*%**O*;>>3",
"9qw0733q35qyqqit425:2>%:-%**%:$%*@***,>665",
"wy05752577qq0t004:21:335:=;%=*=*****,55wqq",
"y007772135qq0434122>:55:::=**%;=o*O*;565qe",
"7072&3::5qq74002222:;53::%%***=OO+*;<>>9e0",
"441:32:>55547021:22:>3::=$OO%ooooo**$=;q72",
"0232=&-;:>253723555::&$$$OoOoOooXo*oO*;534",
"731$$%:::,58332357>::$o.oo+OoO...OO@@o;632",
"5=#O%**%,8833223:::=$$.oO@@@+OoOOO@***>>::",
":&&:**%+,>3222::=3:&%oOO=****%oOO@O@;***:>",
"=$;>;;**,:23==>3>:&%$*%OOOOOoOoXOOO@=:>;:%",
"%=>;,>>:>:;>=;,3=%$oO*OOOoOOoOOOO@**;;-=:="
};
